0
SECTION
2
HEADER
9
$INSUNITS
70
4
9
$ACADVER
1
AC1014
9
$HANDSEED
5
FFFF
0
ENDSEC
0
SECTION
2
TABLES
0
TABLE
2
VPORT
5
8
100
AcDbSymbolTable
0
ENDTAB
0
TABLE
2
LTYPE
5
5
100
AcDbSymbolTable
0
LTYPE
5
14
100
AcDbSymbolTableRecord
100
AcDbLinetypeTableRecord
2
BYBLOCK
70
0
0
LTYPE
5
15
100
AcDbSymbolTableRecord
100
AcDbLinetypeTableRecord
2
BYLAYER
70
0
0
ENDTAB
0
TABLE
2
LAYER
5
2
100
AcDbSymbolTable
70
2
0
LAYER
5
50
100
AcDbSymbolTableRecord
100
AcDbLayerTableRecord
2
0
70
0
6
CONTINUOUS
0
ENDTAB
0
TABLE
2
STYLE
5
3
100
AcDbSymbolTable
70
1
0
STYLE
5
11
100
AcDbSymbolTableRecord
100
AcDbTextStyleTableRecord
2
STANDARD
70
0
0
ENDTAB
0
TABLE
2
VIEW
5
6
100
AcDbSymbolTable
70
0
0
ENDTAB
0
TABLE
2
UCS
5
7
100
AcDbSymbolTable
70
0
0
ENDTAB
0
TABLE
2
APPID
5
9
100
AcDbSymbolTable
70
2
0
APPID
5
12
100
AcDbSymbolTableRecord
100
AcDbRegAppTableRecord
2
ACAD
70
0
0
ENDTAB
0
TABLE
2
DIMSTYLE
5
A
100
AcDbSymbolTable
70
1
0
ENDTAB
0
TABLE
2
BLOCK_RECORD
5
1
100
AcDbSymbolTable
70
1
0
BLOCK_RECORD
5
1F
100
AcDbSymbolTableRecord
100
AcDbBlockTableRecord
2
*MODEL_SPACE
0
BLOCK_RECORD
5
1B
100
AcDbSymbolTableRecord
100
AcDbBlockTableRecord
2
*PAPER_SPACE
0
ENDTAB
0
ENDSEC
0
SECTION
2
BLOCKS
0
BLOCK
5
20
100
AcDbEntity
100
AcDbBlockBegin
2
*MODEL_SPACE
0
ENDBLK
5
21
100
AcDbEntity
100
AcDbBlockEnd
0
BLOCK
5
1C
100
AcDbEntity
100
AcDbBlockBegin
2
*PAPER_SPACE
0
ENDBLK
5
1D
100
AcDbEntity
100
AcDbBlockEnd
0
ENDSEC
0
SECTION
2
ENTITIES
0
LWPOLYLINE
5
100
100
AcDbEntity
8
0
100
AcDbPolyline
90
14
70
1
43
0.0
10
-352.55991003476112
20
256.30558548616483
10
-352.55991003476083
20
244.74916526926435
42
-0.84515425472852224
10
-352.55991003476083
20
238.83308548616483
10
-352.55991003476083
20
238.08541526926439
42
-0.84515425472852224
10
-352.55991003476083
20
232.16933548616487
10
-352.55991003476072
20
230.32142287535098
42
0.05038204448491708
10
-353.059910034761
20
230.2709126181341
42
-0.47449786780808084
10
-356.05991003476106
20
232.72040236091726
10
-356.05991003476106
20
268.33434855713915
42
-0.47449786780807579
10
-353.05991003476106
20
270.78383829992237
42
0.050382044484866988
10
-352.55991003476129
20
270.73332804270558
10
-352.55991003476112
20
268.88541526926446
42
-0.84515425472858563
10
-352.55991003476112
20
262.96933548616482
10
-352.55991003476112
20
262.22166526926446
42
-0.84515425472858563
0
CIRCLE
5
101
100
AcDbEntity
8
0
100
AcDbCircle
10
-353.05991003476083
20
241.79112537771459
30
-1.7789921910373654e-45
40
1.3499999999999801
210
0
220
0
230
1
0
CIRCLE
5
102
100
AcDbEntity
8
0
100
AcDbCircle
10
-353.05991003476089
20
259.26362537771462
30
1.3958246421985483e-45
40
1.3499999999999801
210
0
220
0
230
1
0
CIRCLE
5
103
100
AcDbEntity
8
0
100
AcDbCircle
10
-353.05991003476083
20
235.12737537771466
30
-1.7789921910373654e-45
40
1.3499999999999801
210
0
220
0
230
1
0
CIRCLE
5
104
100
AcDbEntity
8
0
100
AcDbCircle
10
-353.05991003476089
20
265.92737537771461
30
1.3958246421985483e-45
40
1.3499999999999801
210
0
220
0
230
1
0
SPLINE
5
105
100
AcDbEntity
8
0
100
AcDbSpline
70
0
71
3
72
14
73
10
74
0
42
0.000000001
43
0.0000000001
44
0.0000000001
40
1.2583947231199524
40
1.2583947231199524
40
1.2583947231199524
40
1.2583947231199524
40
1.3551256448006443
40
1.3551256448006443
40
1.4518565664813363
40
1.4518565664813363
40
1.5944956593834734
40
1.5944956593834734
40
1.6651863802546687
40
1.6651863802546687
40
1.6651863802546687
40
1.6651863802546687
10
-352.55991003476083
20
244.74916526926435
30
0
10
-352.24198345134096
20
244.69542586833063
30
-5.5511151231257827e-16
10
-351.92081672258973
20
244.58508292790637
30
0
10
-351.3537028340715
20
244.27961659599345
30
0
10
-351.10708816479769
20
244.0850723024856
30
0
10
-350.6311091866209
20
243.59820691773237
30
0
10
-350.41016238452187
20
243.25116333621827
30
0
10
-350.19651445806977
20
242.70682885127755
30
0
10
-350.1444377044632
20
242.52234195023357
30
0
10
-350.11042029197773
20
242.33931353630314
30
0
0
LINE
5
106
100
AcDbEntity
8
0
100
AcDbLine
10
-350.11042029197773
20
242.33931353630314
30
0
11
-350.11042029197768
21
241.24293721912611
31
0
0
SPLINE
5
107
100
AcDbEntity
8
0
100
AcDbSpline
70
0
71
3
72
14
73
10
74
0
42
0.000000001
43
0.0000000001
44
0.0000000001
40
0.071948372030938026
40
0.071948372030938026
40
0.071948372030938026
40
0.071948372030938026
40
0.14263909290213728
40
0.14263909290213728
40
0.28527818580427455
40
0.28527818580427455
40
0.38200910748496852
40
0.38200910748496852
40
0.47874002916566255
40
0.47874002916566255
40
0.47874002916566255
40
0.47874002916566255
10
-350.11042029197768
20
241.24293721912611
30
0
10
-350.14443770446314
20
241.05990880519562
30
0
10
-350.19651445806983
20
240.87542190415172
30
0
10
-350.41016238452181
20
240.33108741921097
30
0
10
-350.6311091866209
20
239.9840438376969
30
0
10
-351.10708816479769
20
239.49717845294367
30
0
10
-351.35370283407144
20
239.3026341594358
30
0
10
-351.92081672258962
20
238.99716782752284
30
0
10
-352.24198345134096
20
238.88682488709858
30
-5.5511151231257827e-16
10
-352.55991003476083
20
238.83308548616483
30
0
0
LINE
5
108
100
AcDbEntity
8
0
100
AcDbLine
10
-352.55991003476078
20
238.83308548616483
30
2.6533226160666026e-31
11
-352.55991003476083
21
238.08541526926439
31
0
0
SPLINE
5
109
100
AcDbEntity
8
0
100
AcDbSpline
70
0
71
3
72
14
73
10
74
0
42
0.000000001
43
0.0000000001
44
0.0000000001
40
1.258394723119949
40
1.258394723119949
40
1.258394723119949
40
1.258394723119949
40
1.3551256448006423
40
1.3551256448006423
40
1.4518565664813354
40
1.4518565664813354
40
1.594495659383472
40
1.594495659383472
40
1.6651863802546962
40
1.6651863802546962
40
1.6651863802546962
40
1.6651863802546962
10
-352.55991003476083
20
238.08541526926439
30
0
10
-352.24198345134096
20
238.03167586833069
30
-5.5511151231257827e-16
10
-351.92081672258962
20
237.92133292790638
30
0
10
-351.3537028340715
20
237.61586659599345
30
0
10
-351.10708816479769
20
237.42132230248561
30
0
10
-350.6311091866209
20
236.9344569177324
30
0
10
-350.41016238452187
20
236.58741333621822
30
0
10
-350.19651445806971
20
236.04307885127739
30
0
10
-350.14443770446303
20
235.8585919502334
30
0
10
-350.11042029197762
20
235.67556353630283
30
0
0
LINE
5
110
100
AcDbEntity
8
0
100
AcDbLine
10
-350.11042029197762
20
235.67556353630283
30
0
11
-350.11042029197768
21
234.57918721912654
31
-2.311115933264683e-31
0
SPLINE
5
111
100
AcDbEntity
8
0
100
AcDbSpline
70
0
71
3
72
14
73
10
74
0
42
0.000000001
43
0.0000000001
44
0.0000000001
40
0.071948372030910673
40
0.071948372030910673
40
0.071948372030910673
40
0.071948372030910673
40
0.14263909290213678
40
0.14263909290213678
40
0.28527818580427355
40
0.28527818580427355
40
0.38200910748496875
40
0.38200910748496875
40
0.47874002916566394
40
0.47874002916566394
40
0.47874002916566394
40
0.47874002916566394
10
-350.11042029197768
20
234.57918721912654
30
0
10
-350.14443770446314
20
234.39615880519608
30
0
10
-350.19651445806971
20
234.21167190415204
30
0
10
-350.41016238452175
20
233.66733741921121
30
0
10
-350.6311091866209
20
233.32029383769697
30
0
10
-351.10708816479769
20
232.83342845294374
30
0
10
-351.35370283407144
20
232.63888415943586
30
0
10
-351.92081672258962
20
232.33341782752288
30
0
10
-352.24198345134096
20
232.22307488709859
30
0
10
-352.55991003476083
20
232.16933548616487
30
0
0
LINE
5
112
100
AcDbEntity
8
0
100
AcDbLine
10
-352.55991003476078
20
232.16933548616487
30
0
11
-352.55991003476072
21
230.32142287535098
31
0
0
ARC
5
113
100
AcDbEntity
8
0
100
AcDbCircle
10
-352.55991003476078
20
227.82142287535098
30
0
40
2.5
210
-1.8727925115579129e-32
220
1.3010426069709573e-18
230
1
100
AcDbArc
50
0
51
89.999999999998693
0
LINE
5
114
100
AcDbEntity
8
0
100
AcDbLine
10
-350.05991003476078
20
227.82142287535106
30
-4.5624824540811856e-32
11
-350.05991003476117
21
273.23332804270558
31
-5.5511151231257827e-16
0
ARC
5
115
100
AcDbEntity
8
0
100
AcDbCircle
10
-352.55991003476112
20
273.23332804270552
30
1.3144471870442885e-31
40
2.4999999999999645
210
-3.8382499114296196e-31
220
1.3010426069774556e-18
230
1
100
AcDbArc
50
-90.000000000005201
51
0
0
LINE
5
116
100
AcDbEntity
8
0
100
AcDbLine
10
-352.55991003476134
20
270.73332804270558
30
3.2526065174437244e-18
11
-352.55991003476112
21
268.88541526926446
31
0
0
SPLINE
5
117
100
AcDbEntity
8
0
100
AcDbSpline
70
0
71
3
72
14
73
10
74
0
42
0.000000001
43
0.0000000001
44
0.0000000001
40
1.2583947231199786
40
1.2583947231199786
40
1.2583947231199786
40
1.2583947231199786
40
1.3551256448006659
40
1.3551256448006659
40
1.4518565664813532
40
1.4518565664813532
40
1.5944956593835027
40
1.5944956593835027
40
1.6651863802546112
40
1.6651863802546112
40
1.6651863802546112
40
1.6651863802546112
10
-352.55991003476112
20
268.88541526926446
30
0
10
-352.2419834513413
20
268.83167586833076
30
-5.5511151231257827e-16
10
-351.92081672259002
20
268.72133292790647
30
0
10
-351.35370283407178
20
268.41586659599363
30
0
10
-351.10708816479803
20
268.22132230248587
30
0
10
-350.63110918662119
20
267.7344569177327
30
0
10
-350.41016238452198
20
267.38741333621863
30
0
10
-350.19651445807
20
266.84307885127822
30
0
10
-350.14443770446343
20
266.65859195023461
30
-5.5511151231257827e-16
10
-350.11042029197796
20
266.47556353630461
30
-5.5511151231257827e-16
0
LINE
5
118
100
AcDbEntity
8
0
100
AcDbLine
10
-350.11042029197796
20
266.47556353630461
30
-5.5511151231257837e-16
11
-350.11042029197796
21
265.37918721912479
31
-5.5511151231257827e-16
0
SPLINE
5
119
100
AcDbEntity
8
0
100
AcDbSpline
70
0
71
3
72
14
73
10
74
0
42
0.000000001
43
0.0000000001
44
0.0000000001
40
0.071948372031040084
40
0.071948372031040084
40
0.071948372031040084
40
0.071948372031040084
40
0.14263909290214963
40
0.14263909290214963
40
0.28527818580429926
40
0.28527818580429926
40
0.38200910748498851
40
0.38200910748498851
40
0.47874002916567782
40
0.47874002916567782
40
0.47874002916567782
40
0.47874002916567782
10
-350.11042029197796
20
265.37918721912479
30
-5.5511151231257827e-16
10
-350.14443770446343
20
265.19615880519467
30
-5.5511151231257827e-16
10
-350.19651445806994
20
265.01167190415111
30
0
10
-350.41016238452193
20
264.46733741921071
30
0
10
-350.63110918662119
20
264.12029383769664
30
0
10
-351.10708816479803
20
263.63342845294346
30
0
10
-351.35370283407178
20
263.43888415943564
30
0
10
-351.92081672259002
20
263.13341782752281
30
0
10
-352.2419834513413
20
263.02307488709852
30
-5.5511151231257827e-16
10
-352.55991003476112
20
262.96933548616482
30
0
0
LINE
5
120
100
AcDbEntity
8
0
100
AcDbLine
10
-352.55991003476106
20
262.96933548616482
30
8.0451332955376457e-32
11
-352.55991003476112
21
262.22166526926446
31
0
0
SPLINE
5
121
100
AcDbEntity
8
0
100
AcDbSpline
70
0
71
3
72
14
73
10
74
0
42
0.000000001
43
0.0000000001
44
0.0000000001
40
1.2583947231199768
40
1.2583947231199768
40
1.2583947231199768
40
1.2583947231199768
40
1.3551256448006652
40
1.3551256448006652
40
1.4518565664813536
40
1.4518565664813536
40
1.5944956593835027
40
1.5944956593835027
40
1.6651863802546487
40
1.6651863802546487
40
1.6651863802546487
40
1.6651863802546487
10
-352.55991003476112
20
262.22166526926446
30
0
10
-352.2419834513413
20
262.16792586833083
30
-5.5511151231257827e-16
10
-351.92081672259002
20
262.05758292790654
30
0
10
-351.35370283407178
20
261.75211659599364
30
0
10
-351.10708816479803
20
261.55757230248582
30
0
10
-350.63110918662119
20
261.07070691773271
30
0
10
-350.41016238452193
20
260.72366333621864
30
0
10
-350.19651445806983
20
260.17932885127811
30
0
10
-350.14443770446337
20
259.99484195023444
30
0
10
-350.1104202919779
20
259.81181353630421
30
-5.5511151231257827e-16
0
LINE
5
122
100
AcDbEntity
8
0
100
AcDbLine
10
-350.1104202919779
20
259.81181353630421
30
-5.5511151231257817e-16
11
-350.1104202919779
21
258.71543721912508
31
-5.5511151231257827e-16
0
SPLINE
5
123
100
AcDbEntity
8
0
100
AcDbSpline
70
0
71
3
72
14
73
10
74
0
42
0.000000001
43
0.0000000001
44
0.0000000001
40
0.071948372031007277
40
0.071948372031007277
40
0.071948372031007277
40
0.071948372031007277
40
0.14263909290214929
40
0.14263909290214929
40
0.28527818580429859
40
0.28527818580429859
40
0.38200910748498895
40
0.38200910748498895
40
0.47874002916567937
40
0.47874002916567937
40
0.47874002916567937
40
0.47874002916567937
10
-350.1104202919779
20
258.71543721912508
30
-5.5511151231257827e-16
10
-350.14443770446337
20
258.5324088051949
30
0
10
-350.19651445806994
20
258.34792190415124
30
0
10
-350.41016238452193
20
257.80358741921071
30
0
10
-350.63110918662119
20
257.4565438376967
30
0
10
-351.10708816479803
20
256.96967845294353
30
0
10
-351.35370283407161
20
256.77513415943571
30
0
10
-351.92081672258985
20
256.46966782752281
30
0
10
-352.2419834513413
20
256.35932488709852
30
-5.5511151231257827e-16
10
-352.55991003476112
20
256.30558548616483
30
0
0
LINE
5
124
100
AcDbEntity
8
0
100
AcDbLine
10
-352.55991003476106
20
256.30558548616483
30
2.6533872682558978e-31
11
-352.55991003476083
21
244.74916526926435
31
0
0
LINE
5
125
100
AcDbEntity
8
0
100
AcDbLine
10
-345.05991003476072
20
225.52737537771475
30
-5.5511151231257827e-16
11
-345.05991003476129
21
275.52737537771475
31
-6.5052130348688504e-17
0
LINE
5
126
100
AcDbEntity
8
0
100
AcDbLine
10
-350.05991003476072
20
225.52737537771466
30
-5.5511151231257827e-16
11
-350.05991003476129
21
275.52737537771469
31
-6.5052130348688504e-17
0
ENDSEC
0
SECTION
2
OBJECTS
0
DICTIONARY
5
C
100
AcDbDictionary
3
ACAD_GROUP
350
D
3
ACAD_MLINESTYLE
350
17
0
DICTIONARY
5
D
100
AcDbDictionary
0
DICTIONARY
5
1A
330
C
100
AcDbDictionary
0
DICTIONARY
5
17
100
AcDbDictionary
0
ENDSEC
0
EOF
