M48
; DRILL file {KiCad 5.1.10} date Sun Jul  4 18:02:12 2021
; FORMAT={-:-/ absolute / inch / decimal}
; #@! TF.CreationDate,2021-07-04T18:02:12+02:00
; #@! TF.GenerationSoftware,Kicad,Pcbnew,5.1.10
; #@! TF.FileFunction,Plated,1,2,PTH
FMAT,2
INCH
T1C0.0157
T2C0.0315
T3C0.0472
%
G90
G05
T1
X14.2815Y-9.7146
X14.6161Y-10.5079
X14.622Y-9.1673
X14.9705Y-9.9803
X14.9705Y-11.0472
X14.9783Y-8.624
X15.315Y-11.3543
X15.3228Y-8.3386
X15.3228Y-9.1752
X15.3248Y-10.5059
X15.6594Y-11.0433
X15.6713Y-8.6142
X16.0118Y-11.3425
X16.0177Y-8.3406
X16.0217Y-9.1732
X16.0217Y-10.498
X16.3681Y-8.6181
X16.3681Y-11.0571
X16.3701Y-9.7264
X16.7185Y-9.187
X16.7205Y-10.4961
X17.0669Y-9.7185
T2
X15.3401Y-9.6146
X16.156Y-10.0704
T3
X14.1535Y-9.8425
X14.2323Y-9.3012
X14.2323Y-9.439
X14.2323Y-10.2461
X14.2323Y-10.3839
X14.502Y-10.3839
X14.5039Y-9.3012
X14.5472Y-9.8425
X14.8484Y-10.9252
X14.8524Y-9.8425
X14.8543Y-8.7598
X14.8957Y-10.3839
X14.8976Y-9.3012
X15.1969Y-11.4665
X15.2008Y-10.3839
X15.2028Y-8.2205
X15.2028Y-9.3012
X15.2421Y-10.9252
X15.2461Y-9.8425
X15.248Y-8.7598
X15.5472Y-10.9252
X15.5531Y-8.7598
X15.5906Y-11.4665
X15.5945Y-10.3839
X15.5965Y-8.2205
X15.5965Y-9.3012
X15.8957Y-11.4665
X15.8996Y-10.3839
X15.9016Y-8.2205
X15.9016Y-9.3012
X15.9409Y-10.9252
X15.9469Y-8.7598
X16.2461Y-10.9252
X16.25Y-9.8425
X16.252Y-8.7598
X16.2894Y-11.4665
X16.2933Y-10.3839
X16.2953Y-8.2205
X16.2953Y-9.3012
X16.5984Y-10.3839
X16.6004Y-9.3012
X16.6398Y-10.9252
X16.6437Y-9.8425
X16.6457Y-8.7598
X16.9488Y-9.8425
X16.9921Y-10.3839
X16.9941Y-9.3012
X17.3425Y-9.8425
T0
M30
