%TF.GenerationSoftware,KiCad,Pcbnew,5.1.10*%
%TF.CreationDate,2021-07-04T18:02:09+02:00*%
%TF.ProjectId,test_16,74657374-5f31-4362-9e6b-696361645f70,0.1*%
%TF.SameCoordinates,Original*%
%TF.FileFunction,Soldermask,Bot*%
%TF.FilePolarity,Negative*%
%FSLAX46Y46*%
G04 Gerber Fmt 4.6, Leading zero omitted, Abs format (unit mm)*
G04 Created by KiCad (PCBNEW 5.1.10) date 2021-07-04 18:02:09*
%MOMM*%
%LPD*%
G01*
G04 APERTURE LIST*
%ADD10C,1.524000*%
%ADD11R,2.200000X2.200000*%
%ADD12C,2.200000*%
%ADD13O,3.600000X1.800000*%
%ADD14C,2.700000*%
G04 APERTURE END LIST*
D10*
%TO.C,D1*%
X410362593Y-255788495D03*
X389637407Y-244211505D03*
%TD*%
D11*
%TO.C,LS3*%
X403750000Y-291250000D03*
D12*
X413750000Y-291250000D03*
%TD*%
D11*
%TO.C,LS7*%
X421600000Y-263750000D03*
D12*
X431600000Y-263750000D03*
%TD*%
D11*
%TO.C,LS6*%
X412650000Y-277500000D03*
D12*
X422650000Y-277500000D03*
%TD*%
D11*
%TO.C,LS5*%
X386000000Y-291250000D03*
D12*
X396000000Y-291250000D03*
%TD*%
D11*
%TO.C,LS2*%
X430500000Y-250000000D03*
D12*
X440500000Y-250000000D03*
%TD*%
D11*
%TO.C,LS1*%
X403850000Y-263750000D03*
D12*
X413850000Y-263750000D03*
%TD*%
D11*
%TO.C,LS4*%
X394900000Y-277500000D03*
D12*
X404900000Y-277500000D03*
%TD*%
D11*
%TO.C,LS10*%
X412750000Y-250000000D03*
D12*
X422750000Y-250000000D03*
%TD*%
D11*
%TO.C,LS9*%
X386100000Y-263750000D03*
D12*
X396100000Y-263750000D03*
%TD*%
D11*
%TO.C,LS8*%
X377150000Y-277500000D03*
D12*
X387150000Y-277500000D03*
%TD*%
D11*
%TO.C,LS22*%
X412800000Y-222500000D03*
D12*
X422800000Y-222500000D03*
%TD*%
D11*
%TO.C,LS21*%
X421650000Y-236250000D03*
D12*
X431650000Y-236250000D03*
%TD*%
D11*
%TO.C,LS16*%
X368350000Y-263750000D03*
D12*
X378350000Y-263750000D03*
%TD*%
D11*
%TO.C,LS13*%
X395050000Y-222500000D03*
D12*
X405050000Y-222500000D03*
%TD*%
D11*
%TO.C,LS12*%
X403900000Y-236250000D03*
D12*
X413900000Y-236250000D03*
%TD*%
D11*
%TO.C,LS11*%
X377250000Y-250000000D03*
D12*
X387250000Y-250000000D03*
%TD*%
D11*
%TO.C,LS20*%
X377300000Y-222500000D03*
D12*
X387300000Y-222500000D03*
%TD*%
D11*
%TO.C,LS19*%
X386150000Y-236250000D03*
D12*
X396150000Y-236250000D03*
%TD*%
D11*
%TO.C,LS18*%
X359500000Y-250000000D03*
D12*
X369500000Y-250000000D03*
%TD*%
D11*
%TO.C,LS15*%
X368400000Y-236250000D03*
D12*
X378400000Y-236250000D03*
%TD*%
D11*
%TO.C,LS14*%
X403900000Y-208800000D03*
D12*
X413900000Y-208800000D03*
%TD*%
D11*
%TO.C,LS17*%
X386150000Y-208800000D03*
D12*
X396150000Y-208800000D03*
%TD*%
D13*
%TO.C,J2*%
X361500000Y-239750000D03*
G36*
G01*
X359950000Y-235350000D02*
X363050000Y-235350000D01*
G75*
G02*
X363300000Y-235600000I0J-250000D01*
G01*
X363300000Y-236900000D01*
G75*
G02*
X363050000Y-237150000I-250000J0D01*
G01*
X359950000Y-237150000D01*
G75*
G02*
X359700000Y-236900000I0J250000D01*
G01*
X359700000Y-235600000D01*
G75*
G02*
X359950000Y-235350000I250000J0D01*
G01*
G37*
%TD*%
%TO.C,J1*%
X361500000Y-263750000D03*
G36*
G01*
X359950000Y-259350000D02*
X363050000Y-259350000D01*
G75*
G02*
X363300000Y-259600000I0J-250000D01*
G01*
X363300000Y-260900000D01*
G75*
G02*
X363050000Y-261150000I-250000J0D01*
G01*
X359950000Y-261150000D01*
G75*
G02*
X359700000Y-260900000I0J250000D01*
G01*
X359700000Y-259600000D01*
G75*
G02*
X359950000Y-259350000I250000J0D01*
G01*
G37*
%TD*%
D14*
%TO.C,H12*%
X394866666Y-297000000D03*
%TD*%
%TO.C,H11*%
X405133332Y-297000000D03*
%TD*%
%TO.C,H10*%
X384600000Y-203000000D03*
%TD*%
%TO.C,H9*%
X415400000Y-297000000D03*
%TD*%
%TO.C,H8*%
X447000000Y-234600000D03*
%TD*%
%TO.C,H7*%
X447000000Y-265400000D03*
%TD*%
%TO.C,H6*%
X353000000Y-258736250D03*
%TD*%
%TO.C,H5*%
X353000000Y-241263750D03*
%TD*%
%TO.C,H4*%
X384600000Y-297000000D03*
%TD*%
%TO.C,H3*%
X353000000Y-265400000D03*
%TD*%
%TO.C,H2*%
X415400000Y-203000000D03*
%TD*%
%TO.C,H1*%
X353000000Y-234600000D03*
%TD*%
M02*
