%TF.GenerationSoftware,KiCad,Pcbnew,5.1.10*%
%TF.CreationDate,2021-07-04T18:02:09+02:00*%
%TF.ProjectId,test_16,74657374-5f31-4362-9e6b-696361645f70,0.1*%
%TF.SameCoordinates,Original*%
%TF.FileFunction,Paste,Top*%
%TF.FilePolarity,Positive*%
%FSLAX46Y46*%
G04 Gerber Fmt 4.6, Leading zero omitted, Abs format (unit mm)*
G04 Created by KiCad (PCBNEW 5.1.10) date 2021-07-04 18:02:09*
%MOMM*%
%LPD*%
G01*
G04 APERTURE LIST*
G04 APERTURE END LIST*
%TO.C,R40*%
G36*
G01*
X386150000Y-218975000D02*
X386150000Y-219525000D01*
G75*
G02*
X385950000Y-219725000I-200000J0D01*
G01*
X385550000Y-219725000D01*
G75*
G02*
X385350000Y-219525000I0J200000D01*
G01*
X385350000Y-218975000D01*
G75*
G02*
X385550000Y-218775000I200000J0D01*
G01*
X385950000Y-218775000D01*
G75*
G02*
X386150000Y-218975000I0J-200000D01*
G01*
G37*
G36*
G01*
X387800000Y-218975000D02*
X387800000Y-219525000D01*
G75*
G02*
X387600000Y-219725000I-200000J0D01*
G01*
X387200000Y-219725000D01*
G75*
G02*
X387000000Y-219525000I0J200000D01*
G01*
X387000000Y-218975000D01*
G75*
G02*
X387200000Y-218775000I200000J0D01*
G01*
X387600000Y-218775000D01*
G75*
G02*
X387800000Y-218975000I0J-200000D01*
G01*
G37*
%TD*%
%TO.C,R39*%
G36*
G01*
X394900000Y-232725000D02*
X394900000Y-233275000D01*
G75*
G02*
X394700000Y-233475000I-200000J0D01*
G01*
X394300000Y-233475000D01*
G75*
G02*
X394100000Y-233275000I0J200000D01*
G01*
X394100000Y-232725000D01*
G75*
G02*
X394300000Y-232525000I200000J0D01*
G01*
X394700000Y-232525000D01*
G75*
G02*
X394900000Y-232725000I0J-200000D01*
G01*
G37*
G36*
G01*
X396550000Y-232725000D02*
X396550000Y-233275000D01*
G75*
G02*
X396350000Y-233475000I-200000J0D01*
G01*
X395950000Y-233475000D01*
G75*
G02*
X395750000Y-233275000I0J200000D01*
G01*
X395750000Y-232725000D01*
G75*
G02*
X395950000Y-232525000I200000J0D01*
G01*
X396350000Y-232525000D01*
G75*
G02*
X396550000Y-232725000I0J-200000D01*
G01*
G37*
%TD*%
%TO.C,R38*%
G36*
G01*
X368325000Y-246475000D02*
X368325000Y-247025000D01*
G75*
G02*
X368125000Y-247225000I-200000J0D01*
G01*
X367725000Y-247225000D01*
G75*
G02*
X367525000Y-247025000I0J200000D01*
G01*
X367525000Y-246475000D01*
G75*
G02*
X367725000Y-246275000I200000J0D01*
G01*
X368125000Y-246275000D01*
G75*
G02*
X368325000Y-246475000I0J-200000D01*
G01*
G37*
G36*
G01*
X369975000Y-246475000D02*
X369975000Y-247025000D01*
G75*
G02*
X369775000Y-247225000I-200000J0D01*
G01*
X369375000Y-247225000D01*
G75*
G02*
X369175000Y-247025000I0J200000D01*
G01*
X369175000Y-246475000D01*
G75*
G02*
X369375000Y-246275000I200000J0D01*
G01*
X369775000Y-246275000D01*
G75*
G02*
X369975000Y-246475000I0J-200000D01*
G01*
G37*
%TD*%
%TO.C,R36*%
G36*
G01*
X377075000Y-266725000D02*
X377075000Y-267275000D01*
G75*
G02*
X376875000Y-267475000I-200000J0D01*
G01*
X376475000Y-267475000D01*
G75*
G02*
X376275000Y-267275000I0J200000D01*
G01*
X376275000Y-266725000D01*
G75*
G02*
X376475000Y-266525000I200000J0D01*
G01*
X376875000Y-266525000D01*
G75*
G02*
X377075000Y-266725000I0J-200000D01*
G01*
G37*
G36*
G01*
X378725000Y-266725000D02*
X378725000Y-267275000D01*
G75*
G02*
X378525000Y-267475000I-200000J0D01*
G01*
X378125000Y-267475000D01*
G75*
G02*
X377925000Y-267275000I0J200000D01*
G01*
X377925000Y-266725000D01*
G75*
G02*
X378125000Y-266525000I200000J0D01*
G01*
X378525000Y-266525000D01*
G75*
G02*
X378725000Y-266725000I0J-200000D01*
G01*
G37*
%TD*%
%TO.C,R35*%
G36*
G01*
X377325000Y-232725000D02*
X377325000Y-233275000D01*
G75*
G02*
X377125000Y-233475000I-200000J0D01*
G01*
X376725000Y-233475000D01*
G75*
G02*
X376525000Y-233275000I0J200000D01*
G01*
X376525000Y-232725000D01*
G75*
G02*
X376725000Y-232525000I200000J0D01*
G01*
X377125000Y-232525000D01*
G75*
G02*
X377325000Y-232725000I0J-200000D01*
G01*
G37*
G36*
G01*
X378975000Y-232725000D02*
X378975000Y-233275000D01*
G75*
G02*
X378775000Y-233475000I-200000J0D01*
G01*
X378375000Y-233475000D01*
G75*
G02*
X378175000Y-233275000I0J200000D01*
G01*
X378175000Y-232725000D01*
G75*
G02*
X378375000Y-232525000I200000J0D01*
G01*
X378775000Y-232525000D01*
G75*
G02*
X378975000Y-232725000I0J-200000D01*
G01*
G37*
%TD*%
%TO.C,R34*%
G36*
G01*
X412825000Y-211475000D02*
X412825000Y-212025000D01*
G75*
G02*
X412625000Y-212225000I-200000J0D01*
G01*
X412225000Y-212225000D01*
G75*
G02*
X412025000Y-212025000I0J200000D01*
G01*
X412025000Y-211475000D01*
G75*
G02*
X412225000Y-211275000I200000J0D01*
G01*
X412625000Y-211275000D01*
G75*
G02*
X412825000Y-211475000I0J-200000D01*
G01*
G37*
G36*
G01*
X414475000Y-211475000D02*
X414475000Y-212025000D01*
G75*
G02*
X414275000Y-212225000I-200000J0D01*
G01*
X413875000Y-212225000D01*
G75*
G02*
X413675000Y-212025000I0J200000D01*
G01*
X413675000Y-211475000D01*
G75*
G02*
X413875000Y-211275000I200000J0D01*
G01*
X414275000Y-211275000D01*
G75*
G02*
X414475000Y-211475000I0J-200000D01*
G01*
G37*
%TD*%
%TO.C,R33*%
G36*
G01*
X403825000Y-218725000D02*
X403825000Y-219275000D01*
G75*
G02*
X403625000Y-219475000I-200000J0D01*
G01*
X403225000Y-219475000D01*
G75*
G02*
X403025000Y-219275000I0J200000D01*
G01*
X403025000Y-218725000D01*
G75*
G02*
X403225000Y-218525000I200000J0D01*
G01*
X403625000Y-218525000D01*
G75*
G02*
X403825000Y-218725000I0J-200000D01*
G01*
G37*
G36*
G01*
X405475000Y-218725000D02*
X405475000Y-219275000D01*
G75*
G02*
X405275000Y-219475000I-200000J0D01*
G01*
X404875000Y-219475000D01*
G75*
G02*
X404675000Y-219275000I0J200000D01*
G01*
X404675000Y-218725000D01*
G75*
G02*
X404875000Y-218525000I200000J0D01*
G01*
X405275000Y-218525000D01*
G75*
G02*
X405475000Y-218725000I0J-200000D01*
G01*
G37*
%TD*%
%TO.C,R32*%
G36*
G01*
X412725000Y-232875000D02*
X412725000Y-233425000D01*
G75*
G02*
X412525000Y-233625000I-200000J0D01*
G01*
X412125000Y-233625000D01*
G75*
G02*
X411925000Y-233425000I0J200000D01*
G01*
X411925000Y-232875000D01*
G75*
G02*
X412125000Y-232675000I200000J0D01*
G01*
X412525000Y-232675000D01*
G75*
G02*
X412725000Y-232875000I0J-200000D01*
G01*
G37*
G36*
G01*
X414375000Y-232875000D02*
X414375000Y-233425000D01*
G75*
G02*
X414175000Y-233625000I-200000J0D01*
G01*
X413775000Y-233625000D01*
G75*
G02*
X413575000Y-233425000I0J200000D01*
G01*
X413575000Y-232875000D01*
G75*
G02*
X413775000Y-232675000I200000J0D01*
G01*
X414175000Y-232675000D01*
G75*
G02*
X414375000Y-232875000I0J-200000D01*
G01*
G37*
%TD*%
%TO.C,R31*%
G36*
G01*
X386075000Y-252975000D02*
X386075000Y-253525000D01*
G75*
G02*
X385875000Y-253725000I-200000J0D01*
G01*
X385475000Y-253725000D01*
G75*
G02*
X385275000Y-253525000I0J200000D01*
G01*
X385275000Y-252975000D01*
G75*
G02*
X385475000Y-252775000I200000J0D01*
G01*
X385875000Y-252775000D01*
G75*
G02*
X386075000Y-252975000I0J-200000D01*
G01*
G37*
G36*
G01*
X387725000Y-252975000D02*
X387725000Y-253525000D01*
G75*
G02*
X387525000Y-253725000I-200000J0D01*
G01*
X387125000Y-253725000D01*
G75*
G02*
X386925000Y-253525000I0J200000D01*
G01*
X386925000Y-252975000D01*
G75*
G02*
X387125000Y-252775000I200000J0D01*
G01*
X387525000Y-252775000D01*
G75*
G02*
X387725000Y-252975000I0J-200000D01*
G01*
G37*
%TD*%
%TO.C,R30*%
G36*
G01*
X378675000Y-219325000D02*
X378675000Y-218775000D01*
G75*
G02*
X378875000Y-218575000I200000J0D01*
G01*
X379275000Y-218575000D01*
G75*
G02*
X379475000Y-218775000I0J-200000D01*
G01*
X379475000Y-219325000D01*
G75*
G02*
X379275000Y-219525000I-200000J0D01*
G01*
X378875000Y-219525000D01*
G75*
G02*
X378675000Y-219325000I0J200000D01*
G01*
G37*
G36*
G01*
X377025000Y-219325000D02*
X377025000Y-218775000D01*
G75*
G02*
X377225000Y-218575000I200000J0D01*
G01*
X377625000Y-218575000D01*
G75*
G02*
X377825000Y-218775000I0J-200000D01*
G01*
X377825000Y-219325000D01*
G75*
G02*
X377625000Y-219525000I-200000J0D01*
G01*
X377225000Y-219525000D01*
G75*
G02*
X377025000Y-219325000I0J200000D01*
G01*
G37*
%TD*%
%TO.C,R29*%
G36*
G01*
X387425000Y-233325000D02*
X387425000Y-232775000D01*
G75*
G02*
X387625000Y-232575000I200000J0D01*
G01*
X388025000Y-232575000D01*
G75*
G02*
X388225000Y-232775000I0J-200000D01*
G01*
X388225000Y-233325000D01*
G75*
G02*
X388025000Y-233525000I-200000J0D01*
G01*
X387625000Y-233525000D01*
G75*
G02*
X387425000Y-233325000I0J200000D01*
G01*
G37*
G36*
G01*
X385775000Y-233325000D02*
X385775000Y-232775000D01*
G75*
G02*
X385975000Y-232575000I200000J0D01*
G01*
X386375000Y-232575000D01*
G75*
G02*
X386575000Y-232775000I0J-200000D01*
G01*
X386575000Y-233325000D01*
G75*
G02*
X386375000Y-233525000I-200000J0D01*
G01*
X385975000Y-233525000D01*
G75*
G02*
X385775000Y-233325000I0J200000D01*
G01*
G37*
%TD*%
%TO.C,R28*%
G36*
G01*
X360975000Y-247025000D02*
X360975000Y-246475000D01*
G75*
G02*
X361175000Y-246275000I200000J0D01*
G01*
X361575000Y-246275000D01*
G75*
G02*
X361775000Y-246475000I0J-200000D01*
G01*
X361775000Y-247025000D01*
G75*
G02*
X361575000Y-247225000I-200000J0D01*
G01*
X361175000Y-247225000D01*
G75*
G02*
X360975000Y-247025000I0J200000D01*
G01*
G37*
G36*
G01*
X359325000Y-247025000D02*
X359325000Y-246475000D01*
G75*
G02*
X359525000Y-246275000I200000J0D01*
G01*
X359925000Y-246275000D01*
G75*
G02*
X360125000Y-246475000I0J-200000D01*
G01*
X360125000Y-247025000D01*
G75*
G02*
X359925000Y-247225000I-200000J0D01*
G01*
X359525000Y-247225000D01*
G75*
G02*
X359325000Y-247025000I0J200000D01*
G01*
G37*
%TD*%
%TO.C,R26*%
G36*
G01*
X369475000Y-267175000D02*
X369475000Y-266625000D01*
G75*
G02*
X369675000Y-266425000I200000J0D01*
G01*
X370075000Y-266425000D01*
G75*
G02*
X370275000Y-266625000I0J-200000D01*
G01*
X370275000Y-267175000D01*
G75*
G02*
X370075000Y-267375000I-200000J0D01*
G01*
X369675000Y-267375000D01*
G75*
G02*
X369475000Y-267175000I0J200000D01*
G01*
G37*
G36*
G01*
X367825000Y-267175000D02*
X367825000Y-266625000D01*
G75*
G02*
X368025000Y-266425000I200000J0D01*
G01*
X368425000Y-266425000D01*
G75*
G02*
X368625000Y-266625000I0J-200000D01*
G01*
X368625000Y-267175000D01*
G75*
G02*
X368425000Y-267375000I-200000J0D01*
G01*
X368025000Y-267375000D01*
G75*
G02*
X367825000Y-267175000I0J200000D01*
G01*
G37*
%TD*%
%TO.C,R25*%
G36*
G01*
X369625000Y-233125000D02*
X369625000Y-232575000D01*
G75*
G02*
X369825000Y-232375000I200000J0D01*
G01*
X370225000Y-232375000D01*
G75*
G02*
X370425000Y-232575000I0J-200000D01*
G01*
X370425000Y-233125000D01*
G75*
G02*
X370225000Y-233325000I-200000J0D01*
G01*
X369825000Y-233325000D01*
G75*
G02*
X369625000Y-233125000I0J200000D01*
G01*
G37*
G36*
G01*
X367975000Y-233125000D02*
X367975000Y-232575000D01*
G75*
G02*
X368175000Y-232375000I200000J0D01*
G01*
X368575000Y-232375000D01*
G75*
G02*
X368775000Y-232575000I0J-200000D01*
G01*
X368775000Y-233125000D01*
G75*
G02*
X368575000Y-233325000I-200000J0D01*
G01*
X368175000Y-233325000D01*
G75*
G02*
X367975000Y-233125000I0J200000D01*
G01*
G37*
%TD*%
%TO.C,R24*%
G36*
G01*
X405075000Y-212125000D02*
X405075000Y-211575000D01*
G75*
G02*
X405275000Y-211375000I200000J0D01*
G01*
X405675000Y-211375000D01*
G75*
G02*
X405875000Y-211575000I0J-200000D01*
G01*
X405875000Y-212125000D01*
G75*
G02*
X405675000Y-212325000I-200000J0D01*
G01*
X405275000Y-212325000D01*
G75*
G02*
X405075000Y-212125000I0J200000D01*
G01*
G37*
G36*
G01*
X403425000Y-212125000D02*
X403425000Y-211575000D01*
G75*
G02*
X403625000Y-211375000I200000J0D01*
G01*
X404025000Y-211375000D01*
G75*
G02*
X404225000Y-211575000I0J-200000D01*
G01*
X404225000Y-212125000D01*
G75*
G02*
X404025000Y-212325000I-200000J0D01*
G01*
X403625000Y-212325000D01*
G75*
G02*
X403425000Y-212125000I0J200000D01*
G01*
G37*
%TD*%
%TO.C,R23*%
G36*
G01*
X396275000Y-219075000D02*
X396275000Y-218525000D01*
G75*
G02*
X396475000Y-218325000I200000J0D01*
G01*
X396875000Y-218325000D01*
G75*
G02*
X397075000Y-218525000I0J-200000D01*
G01*
X397075000Y-219075000D01*
G75*
G02*
X396875000Y-219275000I-200000J0D01*
G01*
X396475000Y-219275000D01*
G75*
G02*
X396275000Y-219075000I0J200000D01*
G01*
G37*
G36*
G01*
X394625000Y-219075000D02*
X394625000Y-218525000D01*
G75*
G02*
X394825000Y-218325000I200000J0D01*
G01*
X395225000Y-218325000D01*
G75*
G02*
X395425000Y-218525000I0J-200000D01*
G01*
X395425000Y-219075000D01*
G75*
G02*
X395225000Y-219275000I-200000J0D01*
G01*
X394825000Y-219275000D01*
G75*
G02*
X394625000Y-219075000I0J200000D01*
G01*
G37*
%TD*%
%TO.C,R22*%
G36*
G01*
X405175000Y-233275000D02*
X405175000Y-232725000D01*
G75*
G02*
X405375000Y-232525000I200000J0D01*
G01*
X405775000Y-232525000D01*
G75*
G02*
X405975000Y-232725000I0J-200000D01*
G01*
X405975000Y-233275000D01*
G75*
G02*
X405775000Y-233475000I-200000J0D01*
G01*
X405375000Y-233475000D01*
G75*
G02*
X405175000Y-233275000I0J200000D01*
G01*
G37*
G36*
G01*
X403525000Y-233275000D02*
X403525000Y-232725000D01*
G75*
G02*
X403725000Y-232525000I200000J0D01*
G01*
X404125000Y-232525000D01*
G75*
G02*
X404325000Y-232725000I0J-200000D01*
G01*
X404325000Y-233275000D01*
G75*
G02*
X404125000Y-233475000I-200000J0D01*
G01*
X403725000Y-233475000D01*
G75*
G02*
X403525000Y-233275000I0J200000D01*
G01*
G37*
%TD*%
%TO.C,R21*%
G36*
G01*
X378475000Y-253775000D02*
X378475000Y-253225000D01*
G75*
G02*
X378675000Y-253025000I200000J0D01*
G01*
X379075000Y-253025000D01*
G75*
G02*
X379275000Y-253225000I0J-200000D01*
G01*
X379275000Y-253775000D01*
G75*
G02*
X379075000Y-253975000I-200000J0D01*
G01*
X378675000Y-253975000D01*
G75*
G02*
X378475000Y-253775000I0J200000D01*
G01*
G37*
G36*
G01*
X376825000Y-253775000D02*
X376825000Y-253225000D01*
G75*
G02*
X377025000Y-253025000I200000J0D01*
G01*
X377425000Y-253025000D01*
G75*
G02*
X377625000Y-253225000I0J-200000D01*
G01*
X377625000Y-253775000D01*
G75*
G02*
X377425000Y-253975000I-200000J0D01*
G01*
X377025000Y-253975000D01*
G75*
G02*
X376825000Y-253775000I0J200000D01*
G01*
G37*
%TD*%
%TO.C,R37*%
G36*
G01*
X394825000Y-211475000D02*
X394825000Y-212025000D01*
G75*
G02*
X394625000Y-212225000I-200000J0D01*
G01*
X394225000Y-212225000D01*
G75*
G02*
X394025000Y-212025000I0J200000D01*
G01*
X394025000Y-211475000D01*
G75*
G02*
X394225000Y-211275000I200000J0D01*
G01*
X394625000Y-211275000D01*
G75*
G02*
X394825000Y-211475000I0J-200000D01*
G01*
G37*
G36*
G01*
X396475000Y-211475000D02*
X396475000Y-212025000D01*
G75*
G02*
X396275000Y-212225000I-200000J0D01*
G01*
X395875000Y-212225000D01*
G75*
G02*
X395675000Y-212025000I0J200000D01*
G01*
X395675000Y-211475000D01*
G75*
G02*
X395875000Y-211275000I200000J0D01*
G01*
X396275000Y-211275000D01*
G75*
G02*
X396475000Y-211475000I0J-200000D01*
G01*
G37*
%TD*%
%TO.C,R20*%
G36*
G01*
X421575000Y-246725000D02*
X421575000Y-247275000D01*
G75*
G02*
X421375000Y-247475000I-200000J0D01*
G01*
X420975000Y-247475000D01*
G75*
G02*
X420775000Y-247275000I0J200000D01*
G01*
X420775000Y-246725000D01*
G75*
G02*
X420975000Y-246525000I200000J0D01*
G01*
X421375000Y-246525000D01*
G75*
G02*
X421575000Y-246725000I0J-200000D01*
G01*
G37*
G36*
G01*
X423225000Y-246725000D02*
X423225000Y-247275000D01*
G75*
G02*
X423025000Y-247475000I-200000J0D01*
G01*
X422625000Y-247475000D01*
G75*
G02*
X422425000Y-247275000I0J200000D01*
G01*
X422425000Y-246725000D01*
G75*
G02*
X422625000Y-246525000I200000J0D01*
G01*
X423025000Y-246525000D01*
G75*
G02*
X423225000Y-246725000I0J-200000D01*
G01*
G37*
%TD*%
%TO.C,R19*%
G36*
G01*
X394925000Y-266575000D02*
X394925000Y-267125000D01*
G75*
G02*
X394725000Y-267325000I-200000J0D01*
G01*
X394325000Y-267325000D01*
G75*
G02*
X394125000Y-267125000I0J200000D01*
G01*
X394125000Y-266575000D01*
G75*
G02*
X394325000Y-266375000I200000J0D01*
G01*
X394725000Y-266375000D01*
G75*
G02*
X394925000Y-266575000I0J-200000D01*
G01*
G37*
G36*
G01*
X396575000Y-266575000D02*
X396575000Y-267125000D01*
G75*
G02*
X396375000Y-267325000I-200000J0D01*
G01*
X395975000Y-267325000D01*
G75*
G02*
X395775000Y-267125000I0J200000D01*
G01*
X395775000Y-266575000D01*
G75*
G02*
X395975000Y-266375000I200000J0D01*
G01*
X396375000Y-266375000D01*
G75*
G02*
X396575000Y-266575000I0J-200000D01*
G01*
G37*
%TD*%
%TO.C,R18*%
G36*
G01*
X385825000Y-280225000D02*
X385825000Y-280775000D01*
G75*
G02*
X385625000Y-280975000I-200000J0D01*
G01*
X385225000Y-280975000D01*
G75*
G02*
X385025000Y-280775000I0J200000D01*
G01*
X385025000Y-280225000D01*
G75*
G02*
X385225000Y-280025000I200000J0D01*
G01*
X385625000Y-280025000D01*
G75*
G02*
X385825000Y-280225000I0J-200000D01*
G01*
G37*
G36*
G01*
X387475000Y-280225000D02*
X387475000Y-280775000D01*
G75*
G02*
X387275000Y-280975000I-200000J0D01*
G01*
X386875000Y-280975000D01*
G75*
G02*
X386675000Y-280775000I0J200000D01*
G01*
X386675000Y-280225000D01*
G75*
G02*
X386875000Y-280025000I200000J0D01*
G01*
X387275000Y-280025000D01*
G75*
G02*
X387475000Y-280225000I0J-200000D01*
G01*
G37*
%TD*%
%TO.C,R17*%
G36*
G01*
X430325000Y-266475000D02*
X430325000Y-267025000D01*
G75*
G02*
X430125000Y-267225000I-200000J0D01*
G01*
X429725000Y-267225000D01*
G75*
G02*
X429525000Y-267025000I0J200000D01*
G01*
X429525000Y-266475000D01*
G75*
G02*
X429725000Y-266275000I200000J0D01*
G01*
X430125000Y-266275000D01*
G75*
G02*
X430325000Y-266475000I0J-200000D01*
G01*
G37*
G36*
G01*
X431975000Y-266475000D02*
X431975000Y-267025000D01*
G75*
G02*
X431775000Y-267225000I-200000J0D01*
G01*
X431375000Y-267225000D01*
G75*
G02*
X431175000Y-267025000I0J200000D01*
G01*
X431175000Y-266475000D01*
G75*
G02*
X431375000Y-266275000I200000J0D01*
G01*
X431775000Y-266275000D01*
G75*
G02*
X431975000Y-266475000I0J-200000D01*
G01*
G37*
%TD*%
%TO.C,R16*%
G36*
G01*
X421325000Y-280475000D02*
X421325000Y-281025000D01*
G75*
G02*
X421125000Y-281225000I-200000J0D01*
G01*
X420725000Y-281225000D01*
G75*
G02*
X420525000Y-281025000I0J200000D01*
G01*
X420525000Y-280475000D01*
G75*
G02*
X420725000Y-280275000I200000J0D01*
G01*
X421125000Y-280275000D01*
G75*
G02*
X421325000Y-280475000I0J-200000D01*
G01*
G37*
G36*
G01*
X422975000Y-280475000D02*
X422975000Y-281025000D01*
G75*
G02*
X422775000Y-281225000I-200000J0D01*
G01*
X422375000Y-281225000D01*
G75*
G02*
X422175000Y-281025000I0J200000D01*
G01*
X422175000Y-280475000D01*
G75*
G02*
X422375000Y-280275000I200000J0D01*
G01*
X422775000Y-280275000D01*
G75*
G02*
X422975000Y-280475000I0J-200000D01*
G01*
G37*
%TD*%
%TO.C,R15*%
G36*
G01*
X394825000Y-287975000D02*
X394825000Y-288525000D01*
G75*
G02*
X394625000Y-288725000I-200000J0D01*
G01*
X394225000Y-288725000D01*
G75*
G02*
X394025000Y-288525000I0J200000D01*
G01*
X394025000Y-287975000D01*
G75*
G02*
X394225000Y-287775000I200000J0D01*
G01*
X394625000Y-287775000D01*
G75*
G02*
X394825000Y-287975000I0J-200000D01*
G01*
G37*
G36*
G01*
X396475000Y-287975000D02*
X396475000Y-288525000D01*
G75*
G02*
X396275000Y-288725000I-200000J0D01*
G01*
X395875000Y-288725000D01*
G75*
G02*
X395675000Y-288525000I0J200000D01*
G01*
X395675000Y-287975000D01*
G75*
G02*
X395875000Y-287775000I200000J0D01*
G01*
X396275000Y-287775000D01*
G75*
G02*
X396475000Y-287975000I0J-200000D01*
G01*
G37*
%TD*%
%TO.C,R14*%
G36*
G01*
X403575000Y-280225000D02*
X403575000Y-280775000D01*
G75*
G02*
X403375000Y-280975000I-200000J0D01*
G01*
X402975000Y-280975000D01*
G75*
G02*
X402775000Y-280775000I0J200000D01*
G01*
X402775000Y-280225000D01*
G75*
G02*
X402975000Y-280025000I200000J0D01*
G01*
X403375000Y-280025000D01*
G75*
G02*
X403575000Y-280225000I0J-200000D01*
G01*
G37*
G36*
G01*
X405225000Y-280225000D02*
X405225000Y-280775000D01*
G75*
G02*
X405025000Y-280975000I-200000J0D01*
G01*
X404625000Y-280975000D01*
G75*
G02*
X404425000Y-280775000I0J200000D01*
G01*
X404425000Y-280225000D01*
G75*
G02*
X404625000Y-280025000I200000J0D01*
G01*
X405025000Y-280025000D01*
G75*
G02*
X405225000Y-280225000I0J-200000D01*
G01*
G37*
%TD*%
%TO.C,R13*%
G36*
G01*
X412475000Y-288125000D02*
X412475000Y-288675000D01*
G75*
G02*
X412275000Y-288875000I-200000J0D01*
G01*
X411875000Y-288875000D01*
G75*
G02*
X411675000Y-288675000I0J200000D01*
G01*
X411675000Y-288125000D01*
G75*
G02*
X411875000Y-287925000I200000J0D01*
G01*
X412275000Y-287925000D01*
G75*
G02*
X412475000Y-288125000I0J-200000D01*
G01*
G37*
G36*
G01*
X414125000Y-288125000D02*
X414125000Y-288675000D01*
G75*
G02*
X413925000Y-288875000I-200000J0D01*
G01*
X413525000Y-288875000D01*
G75*
G02*
X413325000Y-288675000I0J200000D01*
G01*
X413325000Y-288125000D01*
G75*
G02*
X413525000Y-287925000I200000J0D01*
G01*
X413925000Y-287925000D01*
G75*
G02*
X414125000Y-288125000I0J-200000D01*
G01*
G37*
%TD*%
%TO.C,R12*%
G36*
G01*
X439325000Y-246475000D02*
X439325000Y-247025000D01*
G75*
G02*
X439125000Y-247225000I-200000J0D01*
G01*
X438725000Y-247225000D01*
G75*
G02*
X438525000Y-247025000I0J200000D01*
G01*
X438525000Y-246475000D01*
G75*
G02*
X438725000Y-246275000I200000J0D01*
G01*
X439125000Y-246275000D01*
G75*
G02*
X439325000Y-246475000I0J-200000D01*
G01*
G37*
G36*
G01*
X440975000Y-246475000D02*
X440975000Y-247025000D01*
G75*
G02*
X440775000Y-247225000I-200000J0D01*
G01*
X440375000Y-247225000D01*
G75*
G02*
X440175000Y-247025000I0J200000D01*
G01*
X440175000Y-246475000D01*
G75*
G02*
X440375000Y-246275000I200000J0D01*
G01*
X440775000Y-246275000D01*
G75*
G02*
X440975000Y-246475000I0J-200000D01*
G01*
G37*
%TD*%
%TO.C,R11*%
G36*
G01*
X412900000Y-266225000D02*
X412900000Y-266775000D01*
G75*
G02*
X412700000Y-266975000I-200000J0D01*
G01*
X412300000Y-266975000D01*
G75*
G02*
X412100000Y-266775000I0J200000D01*
G01*
X412100000Y-266225000D01*
G75*
G02*
X412300000Y-266025000I200000J0D01*
G01*
X412700000Y-266025000D01*
G75*
G02*
X412900000Y-266225000I0J-200000D01*
G01*
G37*
G36*
G01*
X414550000Y-266225000D02*
X414550000Y-266775000D01*
G75*
G02*
X414350000Y-266975000I-200000J0D01*
G01*
X413950000Y-266975000D01*
G75*
G02*
X413750000Y-266775000I0J200000D01*
G01*
X413750000Y-266225000D01*
G75*
G02*
X413950000Y-266025000I200000J0D01*
G01*
X414350000Y-266025000D01*
G75*
G02*
X414550000Y-266225000I0J-200000D01*
G01*
G37*
%TD*%
%TO.C,R44*%
G36*
G01*
X421575000Y-218475000D02*
X421575000Y-219025000D01*
G75*
G02*
X421375000Y-219225000I-200000J0D01*
G01*
X420975000Y-219225000D01*
G75*
G02*
X420775000Y-219025000I0J200000D01*
G01*
X420775000Y-218475000D01*
G75*
G02*
X420975000Y-218275000I200000J0D01*
G01*
X421375000Y-218275000D01*
G75*
G02*
X421575000Y-218475000I0J-200000D01*
G01*
G37*
G36*
G01*
X423225000Y-218475000D02*
X423225000Y-219025000D01*
G75*
G02*
X423025000Y-219225000I-200000J0D01*
G01*
X422625000Y-219225000D01*
G75*
G02*
X422425000Y-219025000I0J200000D01*
G01*
X422425000Y-218475000D01*
G75*
G02*
X422625000Y-218275000I200000J0D01*
G01*
X423025000Y-218275000D01*
G75*
G02*
X423225000Y-218475000I0J-200000D01*
G01*
G37*
%TD*%
%TO.C,R43*%
G36*
G01*
X430325000Y-233225000D02*
X430325000Y-233775000D01*
G75*
G02*
X430125000Y-233975000I-200000J0D01*
G01*
X429725000Y-233975000D01*
G75*
G02*
X429525000Y-233775000I0J200000D01*
G01*
X429525000Y-233225000D01*
G75*
G02*
X429725000Y-233025000I200000J0D01*
G01*
X430125000Y-233025000D01*
G75*
G02*
X430325000Y-233225000I0J-200000D01*
G01*
G37*
G36*
G01*
X431975000Y-233225000D02*
X431975000Y-233775000D01*
G75*
G02*
X431775000Y-233975000I-200000J0D01*
G01*
X431375000Y-233975000D01*
G75*
G02*
X431175000Y-233775000I0J200000D01*
G01*
X431175000Y-233225000D01*
G75*
G02*
X431375000Y-233025000I200000J0D01*
G01*
X431775000Y-233025000D01*
G75*
G02*
X431975000Y-233225000I0J-200000D01*
G01*
G37*
%TD*%
%TO.C,R27*%
G36*
G01*
X387425000Y-212075000D02*
X387425000Y-211525000D01*
G75*
G02*
X387625000Y-211325000I200000J0D01*
G01*
X388025000Y-211325000D01*
G75*
G02*
X388225000Y-211525000I0J-200000D01*
G01*
X388225000Y-212075000D01*
G75*
G02*
X388025000Y-212275000I-200000J0D01*
G01*
X387625000Y-212275000D01*
G75*
G02*
X387425000Y-212075000I0J200000D01*
G01*
G37*
G36*
G01*
X385775000Y-212075000D02*
X385775000Y-211525000D01*
G75*
G02*
X385975000Y-211325000I200000J0D01*
G01*
X386375000Y-211325000D01*
G75*
G02*
X386575000Y-211525000I0J-200000D01*
G01*
X386575000Y-212075000D01*
G75*
G02*
X386375000Y-212275000I-200000J0D01*
G01*
X385975000Y-212275000D01*
G75*
G02*
X385775000Y-212075000I0J200000D01*
G01*
G37*
%TD*%
%TO.C,R10*%
G36*
G01*
X414025000Y-247325000D02*
X414025000Y-246775000D01*
G75*
G02*
X414225000Y-246575000I200000J0D01*
G01*
X414625000Y-246575000D01*
G75*
G02*
X414825000Y-246775000I0J-200000D01*
G01*
X414825000Y-247325000D01*
G75*
G02*
X414625000Y-247525000I-200000J0D01*
G01*
X414225000Y-247525000D01*
G75*
G02*
X414025000Y-247325000I0J200000D01*
G01*
G37*
G36*
G01*
X412375000Y-247325000D02*
X412375000Y-246775000D01*
G75*
G02*
X412575000Y-246575000I200000J0D01*
G01*
X412975000Y-246575000D01*
G75*
G02*
X413175000Y-246775000I0J-200000D01*
G01*
X413175000Y-247325000D01*
G75*
G02*
X412975000Y-247525000I-200000J0D01*
G01*
X412575000Y-247525000D01*
G75*
G02*
X412375000Y-247325000I0J200000D01*
G01*
G37*
%TD*%
%TO.C,R9*%
G36*
G01*
X387475000Y-267125000D02*
X387475000Y-266575000D01*
G75*
G02*
X387675000Y-266375000I200000J0D01*
G01*
X388075000Y-266375000D01*
G75*
G02*
X388275000Y-266575000I0J-200000D01*
G01*
X388275000Y-267125000D01*
G75*
G02*
X388075000Y-267325000I-200000J0D01*
G01*
X387675000Y-267325000D01*
G75*
G02*
X387475000Y-267125000I0J200000D01*
G01*
G37*
G36*
G01*
X385825000Y-267125000D02*
X385825000Y-266575000D01*
G75*
G02*
X386025000Y-266375000I200000J0D01*
G01*
X386425000Y-266375000D01*
G75*
G02*
X386625000Y-266575000I0J-200000D01*
G01*
X386625000Y-267125000D01*
G75*
G02*
X386425000Y-267325000I-200000J0D01*
G01*
X386025000Y-267325000D01*
G75*
G02*
X385825000Y-267125000I0J200000D01*
G01*
G37*
%TD*%
%TO.C,R8*%
G36*
G01*
X378475000Y-280875000D02*
X378475000Y-280325000D01*
G75*
G02*
X378675000Y-280125000I200000J0D01*
G01*
X379075000Y-280125000D01*
G75*
G02*
X379275000Y-280325000I0J-200000D01*
G01*
X379275000Y-280875000D01*
G75*
G02*
X379075000Y-281075000I-200000J0D01*
G01*
X378675000Y-281075000D01*
G75*
G02*
X378475000Y-280875000I0J200000D01*
G01*
G37*
G36*
G01*
X376825000Y-280875000D02*
X376825000Y-280325000D01*
G75*
G02*
X377025000Y-280125000I200000J0D01*
G01*
X377425000Y-280125000D01*
G75*
G02*
X377625000Y-280325000I0J-200000D01*
G01*
X377625000Y-280875000D01*
G75*
G02*
X377425000Y-281075000I-200000J0D01*
G01*
X377025000Y-281075000D01*
G75*
G02*
X376825000Y-280875000I0J200000D01*
G01*
G37*
%TD*%
%TO.C,R7*%
G36*
G01*
X422925000Y-266875000D02*
X422925000Y-266325000D01*
G75*
G02*
X423125000Y-266125000I200000J0D01*
G01*
X423525000Y-266125000D01*
G75*
G02*
X423725000Y-266325000I0J-200000D01*
G01*
X423725000Y-266875000D01*
G75*
G02*
X423525000Y-267075000I-200000J0D01*
G01*
X423125000Y-267075000D01*
G75*
G02*
X422925000Y-266875000I0J200000D01*
G01*
G37*
G36*
G01*
X421275000Y-266875000D02*
X421275000Y-266325000D01*
G75*
G02*
X421475000Y-266125000I200000J0D01*
G01*
X421875000Y-266125000D01*
G75*
G02*
X422075000Y-266325000I0J-200000D01*
G01*
X422075000Y-266875000D01*
G75*
G02*
X421875000Y-267075000I-200000J0D01*
G01*
X421475000Y-267075000D01*
G75*
G02*
X421275000Y-266875000I0J200000D01*
G01*
G37*
%TD*%
%TO.C,R6*%
G36*
G01*
X413975000Y-281125000D02*
X413975000Y-280575000D01*
G75*
G02*
X414175000Y-280375000I200000J0D01*
G01*
X414575000Y-280375000D01*
G75*
G02*
X414775000Y-280575000I0J-200000D01*
G01*
X414775000Y-281125000D01*
G75*
G02*
X414575000Y-281325000I-200000J0D01*
G01*
X414175000Y-281325000D01*
G75*
G02*
X413975000Y-281125000I0J200000D01*
G01*
G37*
G36*
G01*
X412325000Y-281125000D02*
X412325000Y-280575000D01*
G75*
G02*
X412525000Y-280375000I200000J0D01*
G01*
X412925000Y-280375000D01*
G75*
G02*
X413125000Y-280575000I0J-200000D01*
G01*
X413125000Y-281125000D01*
G75*
G02*
X412925000Y-281325000I-200000J0D01*
G01*
X412525000Y-281325000D01*
G75*
G02*
X412325000Y-281125000I0J200000D01*
G01*
G37*
%TD*%
%TO.C,R5*%
G36*
G01*
X387225000Y-288675000D02*
X387225000Y-288125000D01*
G75*
G02*
X387425000Y-287925000I200000J0D01*
G01*
X387825000Y-287925000D01*
G75*
G02*
X388025000Y-288125000I0J-200000D01*
G01*
X388025000Y-288675000D01*
G75*
G02*
X387825000Y-288875000I-200000J0D01*
G01*
X387425000Y-288875000D01*
G75*
G02*
X387225000Y-288675000I0J200000D01*
G01*
G37*
G36*
G01*
X385575000Y-288675000D02*
X385575000Y-288125000D01*
G75*
G02*
X385775000Y-287925000I200000J0D01*
G01*
X386175000Y-287925000D01*
G75*
G02*
X386375000Y-288125000I0J-200000D01*
G01*
X386375000Y-288675000D01*
G75*
G02*
X386175000Y-288875000I-200000J0D01*
G01*
X385775000Y-288875000D01*
G75*
G02*
X385575000Y-288675000I0J200000D01*
G01*
G37*
%TD*%
%TO.C,R4*%
G36*
G01*
X395975000Y-280775000D02*
X395975000Y-280225000D01*
G75*
G02*
X396175000Y-280025000I200000J0D01*
G01*
X396575000Y-280025000D01*
G75*
G02*
X396775000Y-280225000I0J-200000D01*
G01*
X396775000Y-280775000D01*
G75*
G02*
X396575000Y-280975000I-200000J0D01*
G01*
X396175000Y-280975000D01*
G75*
G02*
X395975000Y-280775000I0J200000D01*
G01*
G37*
G36*
G01*
X394325000Y-280775000D02*
X394325000Y-280225000D01*
G75*
G02*
X394525000Y-280025000I200000J0D01*
G01*
X394925000Y-280025000D01*
G75*
G02*
X395125000Y-280225000I0J-200000D01*
G01*
X395125000Y-280775000D01*
G75*
G02*
X394925000Y-280975000I-200000J0D01*
G01*
X394525000Y-280975000D01*
G75*
G02*
X394325000Y-280775000I0J200000D01*
G01*
G37*
%TD*%
%TO.C,R3*%
G36*
G01*
X404925000Y-288375000D02*
X404925000Y-287825000D01*
G75*
G02*
X405125000Y-287625000I200000J0D01*
G01*
X405525000Y-287625000D01*
G75*
G02*
X405725000Y-287825000I0J-200000D01*
G01*
X405725000Y-288375000D01*
G75*
G02*
X405525000Y-288575000I-200000J0D01*
G01*
X405125000Y-288575000D01*
G75*
G02*
X404925000Y-288375000I0J200000D01*
G01*
G37*
G36*
G01*
X403275000Y-288375000D02*
X403275000Y-287825000D01*
G75*
G02*
X403475000Y-287625000I200000J0D01*
G01*
X403875000Y-287625000D01*
G75*
G02*
X404075000Y-287825000I0J-200000D01*
G01*
X404075000Y-288375000D01*
G75*
G02*
X403875000Y-288575000I-200000J0D01*
G01*
X403475000Y-288575000D01*
G75*
G02*
X403275000Y-288375000I0J200000D01*
G01*
G37*
%TD*%
%TO.C,R2*%
G36*
G01*
X431725000Y-247125000D02*
X431725000Y-246575000D01*
G75*
G02*
X431925000Y-246375000I200000J0D01*
G01*
X432325000Y-246375000D01*
G75*
G02*
X432525000Y-246575000I0J-200000D01*
G01*
X432525000Y-247125000D01*
G75*
G02*
X432325000Y-247325000I-200000J0D01*
G01*
X431925000Y-247325000D01*
G75*
G02*
X431725000Y-247125000I0J200000D01*
G01*
G37*
G36*
G01*
X430075000Y-247125000D02*
X430075000Y-246575000D01*
G75*
G02*
X430275000Y-246375000I200000J0D01*
G01*
X430675000Y-246375000D01*
G75*
G02*
X430875000Y-246575000I0J-200000D01*
G01*
X430875000Y-247125000D01*
G75*
G02*
X430675000Y-247325000I-200000J0D01*
G01*
X430275000Y-247325000D01*
G75*
G02*
X430075000Y-247125000I0J200000D01*
G01*
G37*
%TD*%
%TO.C,R1*%
G36*
G01*
X405175000Y-266925000D02*
X405175000Y-266375000D01*
G75*
G02*
X405375000Y-266175000I200000J0D01*
G01*
X405775000Y-266175000D01*
G75*
G02*
X405975000Y-266375000I0J-200000D01*
G01*
X405975000Y-266925000D01*
G75*
G02*
X405775000Y-267125000I-200000J0D01*
G01*
X405375000Y-267125000D01*
G75*
G02*
X405175000Y-266925000I0J200000D01*
G01*
G37*
G36*
G01*
X403525000Y-266925000D02*
X403525000Y-266375000D01*
G75*
G02*
X403725000Y-266175000I200000J0D01*
G01*
X404125000Y-266175000D01*
G75*
G02*
X404325000Y-266375000I0J-200000D01*
G01*
X404325000Y-266925000D01*
G75*
G02*
X404125000Y-267125000I-200000J0D01*
G01*
X403725000Y-267125000D01*
G75*
G02*
X403525000Y-266925000I0J200000D01*
G01*
G37*
%TD*%
%TO.C,R42*%
G36*
G01*
X413975000Y-219175000D02*
X413975000Y-218625000D01*
G75*
G02*
X414175000Y-218425000I200000J0D01*
G01*
X414575000Y-218425000D01*
G75*
G02*
X414775000Y-218625000I0J-200000D01*
G01*
X414775000Y-219175000D01*
G75*
G02*
X414575000Y-219375000I-200000J0D01*
G01*
X414175000Y-219375000D01*
G75*
G02*
X413975000Y-219175000I0J200000D01*
G01*
G37*
G36*
G01*
X412325000Y-219175000D02*
X412325000Y-218625000D01*
G75*
G02*
X412525000Y-218425000I200000J0D01*
G01*
X412925000Y-218425000D01*
G75*
G02*
X413125000Y-218625000I0J-200000D01*
G01*
X413125000Y-219175000D01*
G75*
G02*
X412925000Y-219375000I-200000J0D01*
G01*
X412525000Y-219375000D01*
G75*
G02*
X412325000Y-219175000I0J200000D01*
G01*
G37*
%TD*%
%TO.C,R41*%
G36*
G01*
X422875000Y-233625000D02*
X422875000Y-233075000D01*
G75*
G02*
X423075000Y-232875000I200000J0D01*
G01*
X423475000Y-232875000D01*
G75*
G02*
X423675000Y-233075000I0J-200000D01*
G01*
X423675000Y-233625000D01*
G75*
G02*
X423475000Y-233825000I-200000J0D01*
G01*
X423075000Y-233825000D01*
G75*
G02*
X422875000Y-233625000I0J200000D01*
G01*
G37*
G36*
G01*
X421225000Y-233625000D02*
X421225000Y-233075000D01*
G75*
G02*
X421425000Y-232875000I200000J0D01*
G01*
X421825000Y-232875000D01*
G75*
G02*
X422025000Y-233075000I0J-200000D01*
G01*
X422025000Y-233625000D01*
G75*
G02*
X421825000Y-233825000I-200000J0D01*
G01*
X421425000Y-233825000D01*
G75*
G02*
X421225000Y-233625000I0J200000D01*
G01*
G37*
%TD*%
M02*
