%TF.GenerationSoftware,KiCad,Pcbnew,5.1.10*%
%TF.CreationDate,2021-07-04T18:04:24+02:00*%
%TF.ProjectId,test_10,74657374-5f31-4302-9e6b-696361645f70,0.1*%
%TF.SameCoordinates,Original*%
%TF.FileFunction,Soldermask,Top*%
%TF.FilePolarity,Negative*%
%FSLAX46Y46*%
G04 Gerber Fmt 4.6, Leading zero omitted, Abs format (unit mm)*
G04 Created by KiCad (PCBNEW 5.1.10) date 2021-07-04 18:04:24*
%MOMM*%
%LPD*%
G01*
G04 APERTURE LIST*
%ADD10C,2.000000*%
%ADD11R,2.000000X2.000000*%
%ADD12C,1.524000*%
%ADD13O,3.600000X1.800000*%
%ADD14C,2.700000*%
G04 APERTURE END LIST*
%TO.C,R124*%
G36*
G01*
X364425000Y-243625000D02*
X364975000Y-243625000D01*
G75*
G02*
X365175000Y-243825000I0J-200000D01*
G01*
X365175000Y-244225000D01*
G75*
G02*
X364975000Y-244425000I-200000J0D01*
G01*
X364425000Y-244425000D01*
G75*
G02*
X364225000Y-244225000I0J200000D01*
G01*
X364225000Y-243825000D01*
G75*
G02*
X364425000Y-243625000I200000J0D01*
G01*
G37*
G36*
G01*
X364425000Y-241975000D02*
X364975000Y-241975000D01*
G75*
G02*
X365175000Y-242175000I0J-200000D01*
G01*
X365175000Y-242575000D01*
G75*
G02*
X364975000Y-242775000I-200000J0D01*
G01*
X364425000Y-242775000D01*
G75*
G02*
X364225000Y-242575000I0J200000D01*
G01*
X364225000Y-242175000D01*
G75*
G02*
X364425000Y-241975000I200000J0D01*
G01*
G37*
%TD*%
%TO.C,R123*%
G36*
G01*
X409525000Y-291875000D02*
X409525000Y-291325000D01*
G75*
G02*
X409725000Y-291125000I200000J0D01*
G01*
X410125000Y-291125000D01*
G75*
G02*
X410325000Y-291325000I0J-200000D01*
G01*
X410325000Y-291875000D01*
G75*
G02*
X410125000Y-292075000I-200000J0D01*
G01*
X409725000Y-292075000D01*
G75*
G02*
X409525000Y-291875000I0J200000D01*
G01*
G37*
G36*
G01*
X407875000Y-291875000D02*
X407875000Y-291325000D01*
G75*
G02*
X408075000Y-291125000I200000J0D01*
G01*
X408475000Y-291125000D01*
G75*
G02*
X408675000Y-291325000I0J-200000D01*
G01*
X408675000Y-291875000D01*
G75*
G02*
X408475000Y-292075000I-200000J0D01*
G01*
X408075000Y-292075000D01*
G75*
G02*
X407875000Y-291875000I0J200000D01*
G01*
G37*
%TD*%
%TO.C,R122*%
G36*
G01*
X398025000Y-291875000D02*
X398025000Y-291325000D01*
G75*
G02*
X398225000Y-291125000I200000J0D01*
G01*
X398625000Y-291125000D01*
G75*
G02*
X398825000Y-291325000I0J-200000D01*
G01*
X398825000Y-291875000D01*
G75*
G02*
X398625000Y-292075000I-200000J0D01*
G01*
X398225000Y-292075000D01*
G75*
G02*
X398025000Y-291875000I0J200000D01*
G01*
G37*
G36*
G01*
X396375000Y-291875000D02*
X396375000Y-291325000D01*
G75*
G02*
X396575000Y-291125000I200000J0D01*
G01*
X396975000Y-291125000D01*
G75*
G02*
X397175000Y-291325000I0J-200000D01*
G01*
X397175000Y-291875000D01*
G75*
G02*
X396975000Y-292075000I-200000J0D01*
G01*
X396575000Y-292075000D01*
G75*
G02*
X396375000Y-291875000I0J200000D01*
G01*
G37*
%TD*%
%TO.C,R121*%
G36*
G01*
X359525000Y-238175000D02*
X359525000Y-237625000D01*
G75*
G02*
X359725000Y-237425000I200000J0D01*
G01*
X360125000Y-237425000D01*
G75*
G02*
X360325000Y-237625000I0J-200000D01*
G01*
X360325000Y-238175000D01*
G75*
G02*
X360125000Y-238375000I-200000J0D01*
G01*
X359725000Y-238375000D01*
G75*
G02*
X359525000Y-238175000I0J200000D01*
G01*
G37*
G36*
G01*
X357875000Y-238175000D02*
X357875000Y-237625000D01*
G75*
G02*
X358075000Y-237425000I200000J0D01*
G01*
X358475000Y-237425000D01*
G75*
G02*
X358675000Y-237625000I0J-200000D01*
G01*
X358675000Y-238175000D01*
G75*
G02*
X358475000Y-238375000I-200000J0D01*
G01*
X358075000Y-238375000D01*
G75*
G02*
X357875000Y-238175000I0J200000D01*
G01*
G37*
%TD*%
%TO.C,R120*%
G36*
G01*
X404625000Y-291875000D02*
X404625000Y-291325000D01*
G75*
G02*
X404825000Y-291125000I200000J0D01*
G01*
X405225000Y-291125000D01*
G75*
G02*
X405425000Y-291325000I0J-200000D01*
G01*
X405425000Y-291875000D01*
G75*
G02*
X405225000Y-292075000I-200000J0D01*
G01*
X404825000Y-292075000D01*
G75*
G02*
X404625000Y-291875000I0J200000D01*
G01*
G37*
G36*
G01*
X402975000Y-291875000D02*
X402975000Y-291325000D01*
G75*
G02*
X403175000Y-291125000I200000J0D01*
G01*
X403575000Y-291125000D01*
G75*
G02*
X403775000Y-291325000I0J-200000D01*
G01*
X403775000Y-291875000D01*
G75*
G02*
X403575000Y-292075000I-200000J0D01*
G01*
X403175000Y-292075000D01*
G75*
G02*
X402975000Y-291875000I0J200000D01*
G01*
G37*
%TD*%
%TO.C,R119*%
G36*
G01*
X393125000Y-291875000D02*
X393125000Y-291325000D01*
G75*
G02*
X393325000Y-291125000I200000J0D01*
G01*
X393725000Y-291125000D01*
G75*
G02*
X393925000Y-291325000I0J-200000D01*
G01*
X393925000Y-291875000D01*
G75*
G02*
X393725000Y-292075000I-200000J0D01*
G01*
X393325000Y-292075000D01*
G75*
G02*
X393125000Y-291875000I0J200000D01*
G01*
G37*
G36*
G01*
X391475000Y-291875000D02*
X391475000Y-291325000D01*
G75*
G02*
X391675000Y-291125000I200000J0D01*
G01*
X392075000Y-291125000D01*
G75*
G02*
X392275000Y-291325000I0J-200000D01*
G01*
X392275000Y-291875000D01*
G75*
G02*
X392075000Y-292075000I-200000J0D01*
G01*
X391675000Y-292075000D01*
G75*
G02*
X391475000Y-291875000I0J200000D01*
G01*
G37*
%TD*%
D10*
%TO.C,LS62*%
X363300000Y-240500000D03*
D11*
X358300000Y-240500000D03*
%TD*%
D10*
%TO.C,LS61*%
X408300000Y-294100000D03*
D11*
X403300000Y-294100000D03*
%TD*%
D10*
%TO.C,LS60*%
X396800000Y-294100000D03*
D11*
X391800000Y-294100000D03*
%TD*%
D12*
%TO.C,D1*%
X410362593Y-255788495D03*
X389637407Y-244211505D03*
%TD*%
D13*
%TO.C,J2*%
X359350000Y-248200000D03*
G36*
G01*
X360900000Y-252600000D02*
X357800000Y-252600000D01*
G75*
G02*
X357550000Y-252350000I0J250000D01*
G01*
X357550000Y-251050000D01*
G75*
G02*
X357800000Y-250800000I250000J0D01*
G01*
X360900000Y-250800000D01*
G75*
G02*
X361150000Y-251050000I0J-250000D01*
G01*
X361150000Y-252350000D01*
G75*
G02*
X360900000Y-252600000I-250000J0D01*
G01*
G37*
%TD*%
D10*
%TO.C,LS59*%
X380100000Y-285600000D03*
D11*
X375100000Y-285600000D03*
%TD*%
D10*
%TO.C,LS58*%
X391100000Y-285300000D03*
D11*
X386100000Y-285300000D03*
%TD*%
D10*
%TO.C,LS32*%
X431300000Y-258750000D03*
D11*
X426300000Y-258750000D03*
%TD*%
D10*
%TO.C,LS56*%
X425550000Y-267600000D03*
D11*
X420550000Y-267600000D03*
%TD*%
D10*
%TO.C,LS57*%
X396800000Y-276400000D03*
D11*
X391800000Y-276400000D03*
%TD*%
D10*
%TO.C,LS55*%
X431200000Y-241200000D03*
D11*
X426200000Y-241200000D03*
%TD*%
D10*
%TO.C,LS54*%
X425450000Y-250000000D03*
D11*
X420450000Y-250000000D03*
%TD*%
D10*
%TO.C,LS53*%
X419800000Y-258750000D03*
D11*
X414800000Y-258750000D03*
%TD*%
D10*
%TO.C,LS52*%
X414050000Y-267600000D03*
D11*
X409050000Y-267600000D03*
%TD*%
D10*
%TO.C,LS51*%
X436950000Y-250000000D03*
D11*
X431950000Y-250000000D03*
%TD*%
D10*
%TO.C,LS50*%
X396750000Y-205500000D03*
D11*
X391750000Y-205500000D03*
%TD*%
D10*
%TO.C,LS49*%
X390950000Y-232350000D03*
D11*
X385950000Y-232350000D03*
%TD*%
D10*
%TO.C,LS48*%
X396700000Y-223500000D03*
D11*
X391700000Y-223500000D03*
%TD*%
D10*
%TO.C,LS47*%
X413950000Y-214650000D03*
D11*
X408950000Y-214650000D03*
%TD*%
D10*
%TO.C,LS46*%
X366700000Y-269600000D03*
D11*
X361700000Y-269600000D03*
%TD*%
D10*
%TO.C,LS45*%
X379450000Y-250000000D03*
D11*
X374450000Y-250000000D03*
%TD*%
D10*
%TO.C,LS44*%
X385200000Y-241200000D03*
D11*
X380200000Y-241200000D03*
%TD*%
D10*
%TO.C,LS43*%
X402450000Y-232350000D03*
D11*
X397450000Y-232350000D03*
%TD*%
D10*
%TO.C,LS42*%
X408200000Y-223500000D03*
D11*
X403200000Y-223500000D03*
%TD*%
D10*
%TO.C,LS41*%
X425450000Y-214650000D03*
D11*
X420450000Y-214650000D03*
%TD*%
D10*
%TO.C,LS19*%
X408200000Y-241200000D03*
D11*
X403200000Y-241200000D03*
%TD*%
D10*
%TO.C,LS10*%
X419800000Y-276400000D03*
D11*
X414800000Y-276400000D03*
%TD*%
D10*
%TO.C,LS38*%
X373850000Y-258850000D03*
D11*
X368850000Y-258850000D03*
%TD*%
D10*
%TO.C,LS37*%
X402500000Y-285250000D03*
D11*
X397500000Y-285250000D03*
%TD*%
D10*
%TO.C,LS31*%
X391100000Y-267700000D03*
D11*
X386100000Y-267700000D03*
%TD*%
D10*
%TO.C,LS40*%
X385300000Y-276400000D03*
D11*
X380300000Y-276400000D03*
%TD*%
D10*
%TO.C,LS39*%
X442700000Y-241200000D03*
D11*
X437700000Y-241200000D03*
%TD*%
D10*
%TO.C,LS36*%
X408300000Y-276400000D03*
D11*
X403300000Y-276400000D03*
%TD*%
D10*
%TO.C,LS35*%
X437050000Y-267600000D03*
D11*
X432050000Y-267600000D03*
%TD*%
D10*
%TO.C,LS34*%
X442800000Y-258750000D03*
D11*
X437800000Y-258750000D03*
%TD*%
D10*
%TO.C,LS33*%
X431100000Y-276250000D03*
D11*
X426100000Y-276250000D03*
%TD*%
D10*
%TO.C,LS20*%
X373700000Y-241200000D03*
D11*
X368700000Y-241200000D03*
%TD*%
D10*
%TO.C,LS18*%
X436950000Y-232350000D03*
D11*
X431950000Y-232350000D03*
%TD*%
D10*
%TO.C,LS17*%
X419700000Y-241200000D03*
D11*
X414700000Y-241200000D03*
%TD*%
D10*
%TO.C,LS16*%
X413950000Y-250000000D03*
D11*
X408950000Y-250000000D03*
%TD*%
D10*
%TO.C,LS15*%
X408300000Y-258750000D03*
D11*
X403300000Y-258750000D03*
%TD*%
D10*
%TO.C,LS14*%
X402550000Y-267600000D03*
D11*
X397550000Y-267600000D03*
%TD*%
D10*
%TO.C,LS13*%
X408250000Y-205500000D03*
D11*
X403250000Y-205500000D03*
%TD*%
D10*
%TO.C,LS12*%
X431200000Y-223500000D03*
D11*
X426200000Y-223500000D03*
%TD*%
D10*
%TO.C,LS11*%
X425450000Y-232350000D03*
D11*
X420450000Y-232350000D03*
%TD*%
D10*
%TO.C,LS30*%
X414000000Y-285250000D03*
D11*
X409000000Y-285250000D03*
%TD*%
D10*
%TO.C,LS29*%
X363500000Y-259600000D03*
D11*
X358500000Y-259600000D03*
%TD*%
D10*
%TO.C,LS28*%
X396800000Y-258750000D03*
D11*
X391800000Y-258750000D03*
%TD*%
D10*
%TO.C,LS27*%
X379600000Y-267700000D03*
D11*
X374600000Y-267700000D03*
%TD*%
D10*
%TO.C,LS26*%
X366200000Y-247600000D03*
D11*
X366200000Y-252600000D03*
%TD*%
D10*
%TO.C,LS25*%
X419700000Y-223500000D03*
D11*
X414700000Y-223500000D03*
%TD*%
D10*
%TO.C,LS24*%
X413950000Y-232350000D03*
D11*
X408950000Y-232350000D03*
%TD*%
D10*
%TO.C,LS23*%
X396700000Y-241200000D03*
D11*
X391700000Y-241200000D03*
%TD*%
D10*
%TO.C,LS22*%
X390950000Y-250000000D03*
D11*
X385950000Y-250000000D03*
%TD*%
D10*
%TO.C,LS21*%
X385300000Y-258750000D03*
D11*
X380300000Y-258750000D03*
%TD*%
D10*
%TO.C,LS9*%
X379450000Y-214650000D03*
D11*
X374450000Y-214650000D03*
%TD*%
D10*
%TO.C,LS8*%
X365400000Y-230000000D03*
D11*
X360400000Y-230000000D03*
%TD*%
D10*
%TO.C,LS7*%
X373700000Y-223500000D03*
D11*
X368700000Y-223500000D03*
%TD*%
D10*
%TO.C,LS6*%
X390950000Y-214650000D03*
D11*
X385950000Y-214650000D03*
%TD*%
D10*
%TO.C,LS5*%
X425500000Y-285250000D03*
D11*
X420500000Y-285250000D03*
%TD*%
D10*
%TO.C,LS4*%
X379450000Y-232350000D03*
D11*
X374450000Y-232350000D03*
%TD*%
D10*
%TO.C,LS3*%
X385200000Y-223500000D03*
D11*
X380200000Y-223500000D03*
%TD*%
D10*
%TO.C,LS2*%
X402450000Y-214650000D03*
D11*
X397450000Y-214650000D03*
%TD*%
D10*
%TO.C,LS1*%
X374200000Y-276900000D03*
D11*
X369200000Y-276900000D03*
%TD*%
%TO.C,R118*%
G36*
G01*
X378875000Y-288125000D02*
X378875000Y-288675000D01*
G75*
G02*
X378675000Y-288875000I-200000J0D01*
G01*
X378275000Y-288875000D01*
G75*
G02*
X378075000Y-288675000I0J200000D01*
G01*
X378075000Y-288125000D01*
G75*
G02*
X378275000Y-287925000I200000J0D01*
G01*
X378675000Y-287925000D01*
G75*
G02*
X378875000Y-288125000I0J-200000D01*
G01*
G37*
G36*
G01*
X380525000Y-288125000D02*
X380525000Y-288675000D01*
G75*
G02*
X380325000Y-288875000I-200000J0D01*
G01*
X379925000Y-288875000D01*
G75*
G02*
X379725000Y-288675000I0J200000D01*
G01*
X379725000Y-288125000D01*
G75*
G02*
X379925000Y-287925000I200000J0D01*
G01*
X380325000Y-287925000D01*
G75*
G02*
X380525000Y-288125000I0J-200000D01*
G01*
G37*
%TD*%
%TO.C,R109*%
G36*
G01*
X376325000Y-283375000D02*
X376325000Y-282825000D01*
G75*
G02*
X376525000Y-282625000I200000J0D01*
G01*
X376925000Y-282625000D01*
G75*
G02*
X377125000Y-282825000I0J-200000D01*
G01*
X377125000Y-283375000D01*
G75*
G02*
X376925000Y-283575000I-200000J0D01*
G01*
X376525000Y-283575000D01*
G75*
G02*
X376325000Y-283375000I0J200000D01*
G01*
G37*
G36*
G01*
X374675000Y-283375000D02*
X374675000Y-282825000D01*
G75*
G02*
X374875000Y-282625000I200000J0D01*
G01*
X375275000Y-282625000D01*
G75*
G02*
X375475000Y-282825000I0J-200000D01*
G01*
X375475000Y-283375000D01*
G75*
G02*
X375275000Y-283575000I-200000J0D01*
G01*
X374875000Y-283575000D01*
G75*
G02*
X374675000Y-283375000I0J200000D01*
G01*
G37*
%TD*%
%TO.C,R117*%
G36*
G01*
X389875000Y-287725000D02*
X389875000Y-288275000D01*
G75*
G02*
X389675000Y-288475000I-200000J0D01*
G01*
X389275000Y-288475000D01*
G75*
G02*
X389075000Y-288275000I0J200000D01*
G01*
X389075000Y-287725000D01*
G75*
G02*
X389275000Y-287525000I200000J0D01*
G01*
X389675000Y-287525000D01*
G75*
G02*
X389875000Y-287725000I0J-200000D01*
G01*
G37*
G36*
G01*
X391525000Y-287725000D02*
X391525000Y-288275000D01*
G75*
G02*
X391325000Y-288475000I-200000J0D01*
G01*
X390925000Y-288475000D01*
G75*
G02*
X390725000Y-288275000I0J200000D01*
G01*
X390725000Y-287725000D01*
G75*
G02*
X390925000Y-287525000I200000J0D01*
G01*
X391325000Y-287525000D01*
G75*
G02*
X391525000Y-287725000I0J-200000D01*
G01*
G37*
%TD*%
%TO.C,R108*%
G36*
G01*
X387325000Y-283275000D02*
X387325000Y-282725000D01*
G75*
G02*
X387525000Y-282525000I200000J0D01*
G01*
X387925000Y-282525000D01*
G75*
G02*
X388125000Y-282725000I0J-200000D01*
G01*
X388125000Y-283275000D01*
G75*
G02*
X387925000Y-283475000I-200000J0D01*
G01*
X387525000Y-283475000D01*
G75*
G02*
X387325000Y-283275000I0J200000D01*
G01*
G37*
G36*
G01*
X385675000Y-283275000D02*
X385675000Y-282725000D01*
G75*
G02*
X385875000Y-282525000I200000J0D01*
G01*
X386275000Y-282525000D01*
G75*
G02*
X386475000Y-282725000I0J-200000D01*
G01*
X386475000Y-283275000D01*
G75*
G02*
X386275000Y-283475000I-200000J0D01*
G01*
X385875000Y-283475000D01*
G75*
G02*
X385675000Y-283275000I0J200000D01*
G01*
G37*
%TD*%
%TO.C,R116*%
G36*
G01*
X395575000Y-278525000D02*
X395575000Y-279075000D01*
G75*
G02*
X395375000Y-279275000I-200000J0D01*
G01*
X394975000Y-279275000D01*
G75*
G02*
X394775000Y-279075000I0J200000D01*
G01*
X394775000Y-278525000D01*
G75*
G02*
X394975000Y-278325000I200000J0D01*
G01*
X395375000Y-278325000D01*
G75*
G02*
X395575000Y-278525000I0J-200000D01*
G01*
G37*
G36*
G01*
X397225000Y-278525000D02*
X397225000Y-279075000D01*
G75*
G02*
X397025000Y-279275000I-200000J0D01*
G01*
X396625000Y-279275000D01*
G75*
G02*
X396425000Y-279075000I0J200000D01*
G01*
X396425000Y-278525000D01*
G75*
G02*
X396625000Y-278325000I200000J0D01*
G01*
X397025000Y-278325000D01*
G75*
G02*
X397225000Y-278525000I0J-200000D01*
G01*
G37*
%TD*%
%TO.C,R115*%
G36*
G01*
X424275000Y-269825000D02*
X424275000Y-270375000D01*
G75*
G02*
X424075000Y-270575000I-200000J0D01*
G01*
X423675000Y-270575000D01*
G75*
G02*
X423475000Y-270375000I0J200000D01*
G01*
X423475000Y-269825000D01*
G75*
G02*
X423675000Y-269625000I200000J0D01*
G01*
X424075000Y-269625000D01*
G75*
G02*
X424275000Y-269825000I0J-200000D01*
G01*
G37*
G36*
G01*
X425925000Y-269825000D02*
X425925000Y-270375000D01*
G75*
G02*
X425725000Y-270575000I-200000J0D01*
G01*
X425325000Y-270575000D01*
G75*
G02*
X425125000Y-270375000I0J200000D01*
G01*
X425125000Y-269825000D01*
G75*
G02*
X425325000Y-269625000I200000J0D01*
G01*
X425725000Y-269625000D01*
G75*
G02*
X425925000Y-269825000I0J-200000D01*
G01*
G37*
%TD*%
%TO.C,R114*%
G36*
G01*
X429975000Y-243325000D02*
X429975000Y-243875000D01*
G75*
G02*
X429775000Y-244075000I-200000J0D01*
G01*
X429375000Y-244075000D01*
G75*
G02*
X429175000Y-243875000I0J200000D01*
G01*
X429175000Y-243325000D01*
G75*
G02*
X429375000Y-243125000I200000J0D01*
G01*
X429775000Y-243125000D01*
G75*
G02*
X429975000Y-243325000I0J-200000D01*
G01*
G37*
G36*
G01*
X431625000Y-243325000D02*
X431625000Y-243875000D01*
G75*
G02*
X431425000Y-244075000I-200000J0D01*
G01*
X431025000Y-244075000D01*
G75*
G02*
X430825000Y-243875000I0J200000D01*
G01*
X430825000Y-243325000D01*
G75*
G02*
X431025000Y-243125000I200000J0D01*
G01*
X431425000Y-243125000D01*
G75*
G02*
X431625000Y-243325000I0J-200000D01*
G01*
G37*
%TD*%
%TO.C,R113*%
G36*
G01*
X424175000Y-252225000D02*
X424175000Y-252775000D01*
G75*
G02*
X423975000Y-252975000I-200000J0D01*
G01*
X423575000Y-252975000D01*
G75*
G02*
X423375000Y-252775000I0J200000D01*
G01*
X423375000Y-252225000D01*
G75*
G02*
X423575000Y-252025000I200000J0D01*
G01*
X423975000Y-252025000D01*
G75*
G02*
X424175000Y-252225000I0J-200000D01*
G01*
G37*
G36*
G01*
X425825000Y-252225000D02*
X425825000Y-252775000D01*
G75*
G02*
X425625000Y-252975000I-200000J0D01*
G01*
X425225000Y-252975000D01*
G75*
G02*
X425025000Y-252775000I0J200000D01*
G01*
X425025000Y-252225000D01*
G75*
G02*
X425225000Y-252025000I200000J0D01*
G01*
X425625000Y-252025000D01*
G75*
G02*
X425825000Y-252225000I0J-200000D01*
G01*
G37*
%TD*%
%TO.C,R112*%
G36*
G01*
X418475000Y-260925000D02*
X418475000Y-261475000D01*
G75*
G02*
X418275000Y-261675000I-200000J0D01*
G01*
X417875000Y-261675000D01*
G75*
G02*
X417675000Y-261475000I0J200000D01*
G01*
X417675000Y-260925000D01*
G75*
G02*
X417875000Y-260725000I200000J0D01*
G01*
X418275000Y-260725000D01*
G75*
G02*
X418475000Y-260925000I0J-200000D01*
G01*
G37*
G36*
G01*
X420125000Y-260925000D02*
X420125000Y-261475000D01*
G75*
G02*
X419925000Y-261675000I-200000J0D01*
G01*
X419525000Y-261675000D01*
G75*
G02*
X419325000Y-261475000I0J200000D01*
G01*
X419325000Y-260925000D01*
G75*
G02*
X419525000Y-260725000I200000J0D01*
G01*
X419925000Y-260725000D01*
G75*
G02*
X420125000Y-260925000I0J-200000D01*
G01*
G37*
%TD*%
%TO.C,R111*%
G36*
G01*
X412775000Y-269825000D02*
X412775000Y-270375000D01*
G75*
G02*
X412575000Y-270575000I-200000J0D01*
G01*
X412175000Y-270575000D01*
G75*
G02*
X411975000Y-270375000I0J200000D01*
G01*
X411975000Y-269825000D01*
G75*
G02*
X412175000Y-269625000I200000J0D01*
G01*
X412575000Y-269625000D01*
G75*
G02*
X412775000Y-269825000I0J-200000D01*
G01*
G37*
G36*
G01*
X414425000Y-269825000D02*
X414425000Y-270375000D01*
G75*
G02*
X414225000Y-270575000I-200000J0D01*
G01*
X413825000Y-270575000D01*
G75*
G02*
X413625000Y-270375000I0J200000D01*
G01*
X413625000Y-269825000D01*
G75*
G02*
X413825000Y-269625000I200000J0D01*
G01*
X414225000Y-269625000D01*
G75*
G02*
X414425000Y-269825000I0J-200000D01*
G01*
G37*
%TD*%
%TO.C,R110*%
G36*
G01*
X435675000Y-252225000D02*
X435675000Y-252775000D01*
G75*
G02*
X435475000Y-252975000I-200000J0D01*
G01*
X435075000Y-252975000D01*
G75*
G02*
X434875000Y-252775000I0J200000D01*
G01*
X434875000Y-252225000D01*
G75*
G02*
X435075000Y-252025000I200000J0D01*
G01*
X435475000Y-252025000D01*
G75*
G02*
X435675000Y-252225000I0J-200000D01*
G01*
G37*
G36*
G01*
X437325000Y-252225000D02*
X437325000Y-252775000D01*
G75*
G02*
X437125000Y-252975000I-200000J0D01*
G01*
X436725000Y-252975000D01*
G75*
G02*
X436525000Y-252775000I0J200000D01*
G01*
X436525000Y-252225000D01*
G75*
G02*
X436725000Y-252025000I200000J0D01*
G01*
X437125000Y-252025000D01*
G75*
G02*
X437325000Y-252225000I0J-200000D01*
G01*
G37*
%TD*%
%TO.C,R107*%
G36*
G01*
X393025000Y-274175000D02*
X393025000Y-273625000D01*
G75*
G02*
X393225000Y-273425000I200000J0D01*
G01*
X393625000Y-273425000D01*
G75*
G02*
X393825000Y-273625000I0J-200000D01*
G01*
X393825000Y-274175000D01*
G75*
G02*
X393625000Y-274375000I-200000J0D01*
G01*
X393225000Y-274375000D01*
G75*
G02*
X393025000Y-274175000I0J200000D01*
G01*
G37*
G36*
G01*
X391375000Y-274175000D02*
X391375000Y-273625000D01*
G75*
G02*
X391575000Y-273425000I200000J0D01*
G01*
X391975000Y-273425000D01*
G75*
G02*
X392175000Y-273625000I0J-200000D01*
G01*
X392175000Y-274175000D01*
G75*
G02*
X391975000Y-274375000I-200000J0D01*
G01*
X391575000Y-274375000D01*
G75*
G02*
X391375000Y-274175000I0J200000D01*
G01*
G37*
%TD*%
%TO.C,R106*%
G36*
G01*
X421825000Y-265375000D02*
X421825000Y-264825000D01*
G75*
G02*
X422025000Y-264625000I200000J0D01*
G01*
X422425000Y-264625000D01*
G75*
G02*
X422625000Y-264825000I0J-200000D01*
G01*
X422625000Y-265375000D01*
G75*
G02*
X422425000Y-265575000I-200000J0D01*
G01*
X422025000Y-265575000D01*
G75*
G02*
X421825000Y-265375000I0J200000D01*
G01*
G37*
G36*
G01*
X420175000Y-265375000D02*
X420175000Y-264825000D01*
G75*
G02*
X420375000Y-264625000I200000J0D01*
G01*
X420775000Y-264625000D01*
G75*
G02*
X420975000Y-264825000I0J-200000D01*
G01*
X420975000Y-265375000D01*
G75*
G02*
X420775000Y-265575000I-200000J0D01*
G01*
X420375000Y-265575000D01*
G75*
G02*
X420175000Y-265375000I0J200000D01*
G01*
G37*
%TD*%
%TO.C,R105*%
G36*
G01*
X427425000Y-239075000D02*
X427425000Y-238525000D01*
G75*
G02*
X427625000Y-238325000I200000J0D01*
G01*
X428025000Y-238325000D01*
G75*
G02*
X428225000Y-238525000I0J-200000D01*
G01*
X428225000Y-239075000D01*
G75*
G02*
X428025000Y-239275000I-200000J0D01*
G01*
X427625000Y-239275000D01*
G75*
G02*
X427425000Y-239075000I0J200000D01*
G01*
G37*
G36*
G01*
X425775000Y-239075000D02*
X425775000Y-238525000D01*
G75*
G02*
X425975000Y-238325000I200000J0D01*
G01*
X426375000Y-238325000D01*
G75*
G02*
X426575000Y-238525000I0J-200000D01*
G01*
X426575000Y-239075000D01*
G75*
G02*
X426375000Y-239275000I-200000J0D01*
G01*
X425975000Y-239275000D01*
G75*
G02*
X425775000Y-239075000I0J200000D01*
G01*
G37*
%TD*%
%TO.C,R104*%
G36*
G01*
X421725000Y-247675000D02*
X421725000Y-247125000D01*
G75*
G02*
X421925000Y-246925000I200000J0D01*
G01*
X422325000Y-246925000D01*
G75*
G02*
X422525000Y-247125000I0J-200000D01*
G01*
X422525000Y-247675000D01*
G75*
G02*
X422325000Y-247875000I-200000J0D01*
G01*
X421925000Y-247875000D01*
G75*
G02*
X421725000Y-247675000I0J200000D01*
G01*
G37*
G36*
G01*
X420075000Y-247675000D02*
X420075000Y-247125000D01*
G75*
G02*
X420275000Y-246925000I200000J0D01*
G01*
X420675000Y-246925000D01*
G75*
G02*
X420875000Y-247125000I0J-200000D01*
G01*
X420875000Y-247675000D01*
G75*
G02*
X420675000Y-247875000I-200000J0D01*
G01*
X420275000Y-247875000D01*
G75*
G02*
X420075000Y-247675000I0J200000D01*
G01*
G37*
%TD*%
%TO.C,R103*%
G36*
G01*
X416125000Y-256475000D02*
X416125000Y-255925000D01*
G75*
G02*
X416325000Y-255725000I200000J0D01*
G01*
X416725000Y-255725000D01*
G75*
G02*
X416925000Y-255925000I0J-200000D01*
G01*
X416925000Y-256475000D01*
G75*
G02*
X416725000Y-256675000I-200000J0D01*
G01*
X416325000Y-256675000D01*
G75*
G02*
X416125000Y-256475000I0J200000D01*
G01*
G37*
G36*
G01*
X414475000Y-256475000D02*
X414475000Y-255925000D01*
G75*
G02*
X414675000Y-255725000I200000J0D01*
G01*
X415075000Y-255725000D01*
G75*
G02*
X415275000Y-255925000I0J-200000D01*
G01*
X415275000Y-256475000D01*
G75*
G02*
X415075000Y-256675000I-200000J0D01*
G01*
X414675000Y-256675000D01*
G75*
G02*
X414475000Y-256475000I0J200000D01*
G01*
G37*
%TD*%
%TO.C,R102*%
G36*
G01*
X410325000Y-265375000D02*
X410325000Y-264825000D01*
G75*
G02*
X410525000Y-264625000I200000J0D01*
G01*
X410925000Y-264625000D01*
G75*
G02*
X411125000Y-264825000I0J-200000D01*
G01*
X411125000Y-265375000D01*
G75*
G02*
X410925000Y-265575000I-200000J0D01*
G01*
X410525000Y-265575000D01*
G75*
G02*
X410325000Y-265375000I0J200000D01*
G01*
G37*
G36*
G01*
X408675000Y-265375000D02*
X408675000Y-264825000D01*
G75*
G02*
X408875000Y-264625000I200000J0D01*
G01*
X409275000Y-264625000D01*
G75*
G02*
X409475000Y-264825000I0J-200000D01*
G01*
X409475000Y-265375000D01*
G75*
G02*
X409275000Y-265575000I-200000J0D01*
G01*
X408875000Y-265575000D01*
G75*
G02*
X408675000Y-265375000I0J200000D01*
G01*
G37*
%TD*%
%TO.C,R101*%
G36*
G01*
X433225000Y-247675000D02*
X433225000Y-247125000D01*
G75*
G02*
X433425000Y-246925000I200000J0D01*
G01*
X433825000Y-246925000D01*
G75*
G02*
X434025000Y-247125000I0J-200000D01*
G01*
X434025000Y-247675000D01*
G75*
G02*
X433825000Y-247875000I-200000J0D01*
G01*
X433425000Y-247875000D01*
G75*
G02*
X433225000Y-247675000I0J200000D01*
G01*
G37*
G36*
G01*
X431575000Y-247675000D02*
X431575000Y-247125000D01*
G75*
G02*
X431775000Y-246925000I200000J0D01*
G01*
X432175000Y-246925000D01*
G75*
G02*
X432375000Y-247125000I0J-200000D01*
G01*
X432375000Y-247675000D01*
G75*
G02*
X432175000Y-247875000I-200000J0D01*
G01*
X431775000Y-247875000D01*
G75*
G02*
X431575000Y-247675000I0J200000D01*
G01*
G37*
%TD*%
%TO.C,R100*%
G36*
G01*
X395475000Y-207725000D02*
X395475000Y-208275000D01*
G75*
G02*
X395275000Y-208475000I-200000J0D01*
G01*
X394875000Y-208475000D01*
G75*
G02*
X394675000Y-208275000I0J200000D01*
G01*
X394675000Y-207725000D01*
G75*
G02*
X394875000Y-207525000I200000J0D01*
G01*
X395275000Y-207525000D01*
G75*
G02*
X395475000Y-207725000I0J-200000D01*
G01*
G37*
G36*
G01*
X397125000Y-207725000D02*
X397125000Y-208275000D01*
G75*
G02*
X396925000Y-208475000I-200000J0D01*
G01*
X396525000Y-208475000D01*
G75*
G02*
X396325000Y-208275000I0J200000D01*
G01*
X396325000Y-207725000D01*
G75*
G02*
X396525000Y-207525000I200000J0D01*
G01*
X396925000Y-207525000D01*
G75*
G02*
X397125000Y-207725000I0J-200000D01*
G01*
G37*
%TD*%
%TO.C,R99*%
G36*
G01*
X389675000Y-234425000D02*
X389675000Y-234975000D01*
G75*
G02*
X389475000Y-235175000I-200000J0D01*
G01*
X389075000Y-235175000D01*
G75*
G02*
X388875000Y-234975000I0J200000D01*
G01*
X388875000Y-234425000D01*
G75*
G02*
X389075000Y-234225000I200000J0D01*
G01*
X389475000Y-234225000D01*
G75*
G02*
X389675000Y-234425000I0J-200000D01*
G01*
G37*
G36*
G01*
X391325000Y-234425000D02*
X391325000Y-234975000D01*
G75*
G02*
X391125000Y-235175000I-200000J0D01*
G01*
X390725000Y-235175000D01*
G75*
G02*
X390525000Y-234975000I0J200000D01*
G01*
X390525000Y-234425000D01*
G75*
G02*
X390725000Y-234225000I200000J0D01*
G01*
X391125000Y-234225000D01*
G75*
G02*
X391325000Y-234425000I0J-200000D01*
G01*
G37*
%TD*%
%TO.C,R98*%
G36*
G01*
X395475000Y-225625000D02*
X395475000Y-226175000D01*
G75*
G02*
X395275000Y-226375000I-200000J0D01*
G01*
X394875000Y-226375000D01*
G75*
G02*
X394675000Y-226175000I0J200000D01*
G01*
X394675000Y-225625000D01*
G75*
G02*
X394875000Y-225425000I200000J0D01*
G01*
X395275000Y-225425000D01*
G75*
G02*
X395475000Y-225625000I0J-200000D01*
G01*
G37*
G36*
G01*
X397125000Y-225625000D02*
X397125000Y-226175000D01*
G75*
G02*
X396925000Y-226375000I-200000J0D01*
G01*
X396525000Y-226375000D01*
G75*
G02*
X396325000Y-226175000I0J200000D01*
G01*
X396325000Y-225625000D01*
G75*
G02*
X396525000Y-225425000I200000J0D01*
G01*
X396925000Y-225425000D01*
G75*
G02*
X397125000Y-225625000I0J-200000D01*
G01*
G37*
%TD*%
%TO.C,R97*%
G36*
G01*
X412675000Y-216825000D02*
X412675000Y-217375000D01*
G75*
G02*
X412475000Y-217575000I-200000J0D01*
G01*
X412075000Y-217575000D01*
G75*
G02*
X411875000Y-217375000I0J200000D01*
G01*
X411875000Y-216825000D01*
G75*
G02*
X412075000Y-216625000I200000J0D01*
G01*
X412475000Y-216625000D01*
G75*
G02*
X412675000Y-216825000I0J-200000D01*
G01*
G37*
G36*
G01*
X414325000Y-216825000D02*
X414325000Y-217375000D01*
G75*
G02*
X414125000Y-217575000I-200000J0D01*
G01*
X413725000Y-217575000D01*
G75*
G02*
X413525000Y-217375000I0J200000D01*
G01*
X413525000Y-216825000D01*
G75*
G02*
X413725000Y-216625000I200000J0D01*
G01*
X414125000Y-216625000D01*
G75*
G02*
X414325000Y-216825000I0J-200000D01*
G01*
G37*
%TD*%
%TO.C,R96*%
G36*
G01*
X365475000Y-271725000D02*
X365475000Y-272275000D01*
G75*
G02*
X365275000Y-272475000I-200000J0D01*
G01*
X364875000Y-272475000D01*
G75*
G02*
X364675000Y-272275000I0J200000D01*
G01*
X364675000Y-271725000D01*
G75*
G02*
X364875000Y-271525000I200000J0D01*
G01*
X365275000Y-271525000D01*
G75*
G02*
X365475000Y-271725000I0J-200000D01*
G01*
G37*
G36*
G01*
X367125000Y-271725000D02*
X367125000Y-272275000D01*
G75*
G02*
X366925000Y-272475000I-200000J0D01*
G01*
X366525000Y-272475000D01*
G75*
G02*
X366325000Y-272275000I0J200000D01*
G01*
X366325000Y-271725000D01*
G75*
G02*
X366525000Y-271525000I200000J0D01*
G01*
X366925000Y-271525000D01*
G75*
G02*
X367125000Y-271725000I0J-200000D01*
G01*
G37*
%TD*%
%TO.C,R95*%
G36*
G01*
X378175000Y-252225000D02*
X378175000Y-252775000D01*
G75*
G02*
X377975000Y-252975000I-200000J0D01*
G01*
X377575000Y-252975000D01*
G75*
G02*
X377375000Y-252775000I0J200000D01*
G01*
X377375000Y-252225000D01*
G75*
G02*
X377575000Y-252025000I200000J0D01*
G01*
X377975000Y-252025000D01*
G75*
G02*
X378175000Y-252225000I0J-200000D01*
G01*
G37*
G36*
G01*
X379825000Y-252225000D02*
X379825000Y-252775000D01*
G75*
G02*
X379625000Y-252975000I-200000J0D01*
G01*
X379225000Y-252975000D01*
G75*
G02*
X379025000Y-252775000I0J200000D01*
G01*
X379025000Y-252225000D01*
G75*
G02*
X379225000Y-252025000I200000J0D01*
G01*
X379625000Y-252025000D01*
G75*
G02*
X379825000Y-252225000I0J-200000D01*
G01*
G37*
%TD*%
%TO.C,R94*%
G36*
G01*
X383975000Y-243325000D02*
X383975000Y-243875000D01*
G75*
G02*
X383775000Y-244075000I-200000J0D01*
G01*
X383375000Y-244075000D01*
G75*
G02*
X383175000Y-243875000I0J200000D01*
G01*
X383175000Y-243325000D01*
G75*
G02*
X383375000Y-243125000I200000J0D01*
G01*
X383775000Y-243125000D01*
G75*
G02*
X383975000Y-243325000I0J-200000D01*
G01*
G37*
G36*
G01*
X385625000Y-243325000D02*
X385625000Y-243875000D01*
G75*
G02*
X385425000Y-244075000I-200000J0D01*
G01*
X385025000Y-244075000D01*
G75*
G02*
X384825000Y-243875000I0J200000D01*
G01*
X384825000Y-243325000D01*
G75*
G02*
X385025000Y-243125000I200000J0D01*
G01*
X385425000Y-243125000D01*
G75*
G02*
X385625000Y-243325000I0J-200000D01*
G01*
G37*
%TD*%
%TO.C,R93*%
G36*
G01*
X401175000Y-234425000D02*
X401175000Y-234975000D01*
G75*
G02*
X400975000Y-235175000I-200000J0D01*
G01*
X400575000Y-235175000D01*
G75*
G02*
X400375000Y-234975000I0J200000D01*
G01*
X400375000Y-234425000D01*
G75*
G02*
X400575000Y-234225000I200000J0D01*
G01*
X400975000Y-234225000D01*
G75*
G02*
X401175000Y-234425000I0J-200000D01*
G01*
G37*
G36*
G01*
X402825000Y-234425000D02*
X402825000Y-234975000D01*
G75*
G02*
X402625000Y-235175000I-200000J0D01*
G01*
X402225000Y-235175000D01*
G75*
G02*
X402025000Y-234975000I0J200000D01*
G01*
X402025000Y-234425000D01*
G75*
G02*
X402225000Y-234225000I200000J0D01*
G01*
X402625000Y-234225000D01*
G75*
G02*
X402825000Y-234425000I0J-200000D01*
G01*
G37*
%TD*%
%TO.C,R92*%
G36*
G01*
X406975000Y-225625000D02*
X406975000Y-226175000D01*
G75*
G02*
X406775000Y-226375000I-200000J0D01*
G01*
X406375000Y-226375000D01*
G75*
G02*
X406175000Y-226175000I0J200000D01*
G01*
X406175000Y-225625000D01*
G75*
G02*
X406375000Y-225425000I200000J0D01*
G01*
X406775000Y-225425000D01*
G75*
G02*
X406975000Y-225625000I0J-200000D01*
G01*
G37*
G36*
G01*
X408625000Y-225625000D02*
X408625000Y-226175000D01*
G75*
G02*
X408425000Y-226375000I-200000J0D01*
G01*
X408025000Y-226375000D01*
G75*
G02*
X407825000Y-226175000I0J200000D01*
G01*
X407825000Y-225625000D01*
G75*
G02*
X408025000Y-225425000I200000J0D01*
G01*
X408425000Y-225425000D01*
G75*
G02*
X408625000Y-225625000I0J-200000D01*
G01*
G37*
%TD*%
%TO.C,R91*%
G36*
G01*
X424175000Y-216825000D02*
X424175000Y-217375000D01*
G75*
G02*
X423975000Y-217575000I-200000J0D01*
G01*
X423575000Y-217575000D01*
G75*
G02*
X423375000Y-217375000I0J200000D01*
G01*
X423375000Y-216825000D01*
G75*
G02*
X423575000Y-216625000I200000J0D01*
G01*
X423975000Y-216625000D01*
G75*
G02*
X424175000Y-216825000I0J-200000D01*
G01*
G37*
G36*
G01*
X425825000Y-216825000D02*
X425825000Y-217375000D01*
G75*
G02*
X425625000Y-217575000I-200000J0D01*
G01*
X425225000Y-217575000D01*
G75*
G02*
X425025000Y-217375000I0J200000D01*
G01*
X425025000Y-216825000D01*
G75*
G02*
X425225000Y-216625000I200000J0D01*
G01*
X425625000Y-216625000D01*
G75*
G02*
X425825000Y-216825000I0J-200000D01*
G01*
G37*
%TD*%
%TO.C,R90*%
G36*
G01*
X393025000Y-203075000D02*
X393025000Y-202525000D01*
G75*
G02*
X393225000Y-202325000I200000J0D01*
G01*
X393625000Y-202325000D01*
G75*
G02*
X393825000Y-202525000I0J-200000D01*
G01*
X393825000Y-203075000D01*
G75*
G02*
X393625000Y-203275000I-200000J0D01*
G01*
X393225000Y-203275000D01*
G75*
G02*
X393025000Y-203075000I0J200000D01*
G01*
G37*
G36*
G01*
X391375000Y-203075000D02*
X391375000Y-202525000D01*
G75*
G02*
X391575000Y-202325000I200000J0D01*
G01*
X391975000Y-202325000D01*
G75*
G02*
X392175000Y-202525000I0J-200000D01*
G01*
X392175000Y-203075000D01*
G75*
G02*
X391975000Y-203275000I-200000J0D01*
G01*
X391575000Y-203275000D01*
G75*
G02*
X391375000Y-203075000I0J200000D01*
G01*
G37*
%TD*%
%TO.C,R89*%
G36*
G01*
X387225000Y-230275000D02*
X387225000Y-229725000D01*
G75*
G02*
X387425000Y-229525000I200000J0D01*
G01*
X387825000Y-229525000D01*
G75*
G02*
X388025000Y-229725000I0J-200000D01*
G01*
X388025000Y-230275000D01*
G75*
G02*
X387825000Y-230475000I-200000J0D01*
G01*
X387425000Y-230475000D01*
G75*
G02*
X387225000Y-230275000I0J200000D01*
G01*
G37*
G36*
G01*
X385575000Y-230275000D02*
X385575000Y-229725000D01*
G75*
G02*
X385775000Y-229525000I200000J0D01*
G01*
X386175000Y-229525000D01*
G75*
G02*
X386375000Y-229725000I0J-200000D01*
G01*
X386375000Y-230275000D01*
G75*
G02*
X386175000Y-230475000I-200000J0D01*
G01*
X385775000Y-230475000D01*
G75*
G02*
X385575000Y-230275000I0J200000D01*
G01*
G37*
%TD*%
%TO.C,R88*%
G36*
G01*
X392925000Y-221375000D02*
X392925000Y-220825000D01*
G75*
G02*
X393125000Y-220625000I200000J0D01*
G01*
X393525000Y-220625000D01*
G75*
G02*
X393725000Y-220825000I0J-200000D01*
G01*
X393725000Y-221375000D01*
G75*
G02*
X393525000Y-221575000I-200000J0D01*
G01*
X393125000Y-221575000D01*
G75*
G02*
X392925000Y-221375000I0J200000D01*
G01*
G37*
G36*
G01*
X391275000Y-221375000D02*
X391275000Y-220825000D01*
G75*
G02*
X391475000Y-220625000I200000J0D01*
G01*
X391875000Y-220625000D01*
G75*
G02*
X392075000Y-220825000I0J-200000D01*
G01*
X392075000Y-221375000D01*
G75*
G02*
X391875000Y-221575000I-200000J0D01*
G01*
X391475000Y-221575000D01*
G75*
G02*
X391275000Y-221375000I0J200000D01*
G01*
G37*
%TD*%
%TO.C,R87*%
G36*
G01*
X410225000Y-212375000D02*
X410225000Y-211825000D01*
G75*
G02*
X410425000Y-211625000I200000J0D01*
G01*
X410825000Y-211625000D01*
G75*
G02*
X411025000Y-211825000I0J-200000D01*
G01*
X411025000Y-212375000D01*
G75*
G02*
X410825000Y-212575000I-200000J0D01*
G01*
X410425000Y-212575000D01*
G75*
G02*
X410225000Y-212375000I0J200000D01*
G01*
G37*
G36*
G01*
X408575000Y-212375000D02*
X408575000Y-211825000D01*
G75*
G02*
X408775000Y-211625000I200000J0D01*
G01*
X409175000Y-211625000D01*
G75*
G02*
X409375000Y-211825000I0J-200000D01*
G01*
X409375000Y-212375000D01*
G75*
G02*
X409175000Y-212575000I-200000J0D01*
G01*
X408775000Y-212575000D01*
G75*
G02*
X408575000Y-212375000I0J200000D01*
G01*
G37*
%TD*%
%TO.C,R86*%
G36*
G01*
X363025000Y-267375000D02*
X363025000Y-266825000D01*
G75*
G02*
X363225000Y-266625000I200000J0D01*
G01*
X363625000Y-266625000D01*
G75*
G02*
X363825000Y-266825000I0J-200000D01*
G01*
X363825000Y-267375000D01*
G75*
G02*
X363625000Y-267575000I-200000J0D01*
G01*
X363225000Y-267575000D01*
G75*
G02*
X363025000Y-267375000I0J200000D01*
G01*
G37*
G36*
G01*
X361375000Y-267375000D02*
X361375000Y-266825000D01*
G75*
G02*
X361575000Y-266625000I200000J0D01*
G01*
X361975000Y-266625000D01*
G75*
G02*
X362175000Y-266825000I0J-200000D01*
G01*
X362175000Y-267375000D01*
G75*
G02*
X361975000Y-267575000I-200000J0D01*
G01*
X361575000Y-267575000D01*
G75*
G02*
X361375000Y-267375000I0J200000D01*
G01*
G37*
%TD*%
%TO.C,R85*%
G36*
G01*
X375725000Y-247675000D02*
X375725000Y-247125000D01*
G75*
G02*
X375925000Y-246925000I200000J0D01*
G01*
X376325000Y-246925000D01*
G75*
G02*
X376525000Y-247125000I0J-200000D01*
G01*
X376525000Y-247675000D01*
G75*
G02*
X376325000Y-247875000I-200000J0D01*
G01*
X375925000Y-247875000D01*
G75*
G02*
X375725000Y-247675000I0J200000D01*
G01*
G37*
G36*
G01*
X374075000Y-247675000D02*
X374075000Y-247125000D01*
G75*
G02*
X374275000Y-246925000I200000J0D01*
G01*
X374675000Y-246925000D01*
G75*
G02*
X374875000Y-247125000I0J-200000D01*
G01*
X374875000Y-247675000D01*
G75*
G02*
X374675000Y-247875000I-200000J0D01*
G01*
X374275000Y-247875000D01*
G75*
G02*
X374075000Y-247675000I0J200000D01*
G01*
G37*
%TD*%
%TO.C,R84*%
G36*
G01*
X381425000Y-239075000D02*
X381425000Y-238525000D01*
G75*
G02*
X381625000Y-238325000I200000J0D01*
G01*
X382025000Y-238325000D01*
G75*
G02*
X382225000Y-238525000I0J-200000D01*
G01*
X382225000Y-239075000D01*
G75*
G02*
X382025000Y-239275000I-200000J0D01*
G01*
X381625000Y-239275000D01*
G75*
G02*
X381425000Y-239075000I0J200000D01*
G01*
G37*
G36*
G01*
X379775000Y-239075000D02*
X379775000Y-238525000D01*
G75*
G02*
X379975000Y-238325000I200000J0D01*
G01*
X380375000Y-238325000D01*
G75*
G02*
X380575000Y-238525000I0J-200000D01*
G01*
X380575000Y-239075000D01*
G75*
G02*
X380375000Y-239275000I-200000J0D01*
G01*
X379975000Y-239275000D01*
G75*
G02*
X379775000Y-239075000I0J200000D01*
G01*
G37*
%TD*%
%TO.C,R83*%
G36*
G01*
X398725000Y-230275000D02*
X398725000Y-229725000D01*
G75*
G02*
X398925000Y-229525000I200000J0D01*
G01*
X399325000Y-229525000D01*
G75*
G02*
X399525000Y-229725000I0J-200000D01*
G01*
X399525000Y-230275000D01*
G75*
G02*
X399325000Y-230475000I-200000J0D01*
G01*
X398925000Y-230475000D01*
G75*
G02*
X398725000Y-230275000I0J200000D01*
G01*
G37*
G36*
G01*
X397075000Y-230275000D02*
X397075000Y-229725000D01*
G75*
G02*
X397275000Y-229525000I200000J0D01*
G01*
X397675000Y-229525000D01*
G75*
G02*
X397875000Y-229725000I0J-200000D01*
G01*
X397875000Y-230275000D01*
G75*
G02*
X397675000Y-230475000I-200000J0D01*
G01*
X397275000Y-230475000D01*
G75*
G02*
X397075000Y-230275000I0J200000D01*
G01*
G37*
%TD*%
%TO.C,R82*%
G36*
G01*
X404525000Y-221375000D02*
X404525000Y-220825000D01*
G75*
G02*
X404725000Y-220625000I200000J0D01*
G01*
X405125000Y-220625000D01*
G75*
G02*
X405325000Y-220825000I0J-200000D01*
G01*
X405325000Y-221375000D01*
G75*
G02*
X405125000Y-221575000I-200000J0D01*
G01*
X404725000Y-221575000D01*
G75*
G02*
X404525000Y-221375000I0J200000D01*
G01*
G37*
G36*
G01*
X402875000Y-221375000D02*
X402875000Y-220825000D01*
G75*
G02*
X403075000Y-220625000I200000J0D01*
G01*
X403475000Y-220625000D01*
G75*
G02*
X403675000Y-220825000I0J-200000D01*
G01*
X403675000Y-221375000D01*
G75*
G02*
X403475000Y-221575000I-200000J0D01*
G01*
X403075000Y-221575000D01*
G75*
G02*
X402875000Y-221375000I0J200000D01*
G01*
G37*
%TD*%
%TO.C,R81*%
G36*
G01*
X421725000Y-212375000D02*
X421725000Y-211825000D01*
G75*
G02*
X421925000Y-211625000I200000J0D01*
G01*
X422325000Y-211625000D01*
G75*
G02*
X422525000Y-211825000I0J-200000D01*
G01*
X422525000Y-212375000D01*
G75*
G02*
X422325000Y-212575000I-200000J0D01*
G01*
X421925000Y-212575000D01*
G75*
G02*
X421725000Y-212375000I0J200000D01*
G01*
G37*
G36*
G01*
X420075000Y-212375000D02*
X420075000Y-211825000D01*
G75*
G02*
X420275000Y-211625000I200000J0D01*
G01*
X420675000Y-211625000D01*
G75*
G02*
X420875000Y-211825000I0J-200000D01*
G01*
X420875000Y-212375000D01*
G75*
G02*
X420675000Y-212575000I-200000J0D01*
G01*
X420275000Y-212575000D01*
G75*
G02*
X420075000Y-212375000I0J200000D01*
G01*
G37*
%TD*%
%TO.C,R80*%
G36*
G01*
X383975000Y-278525000D02*
X383975000Y-279075000D01*
G75*
G02*
X383775000Y-279275000I-200000J0D01*
G01*
X383375000Y-279275000D01*
G75*
G02*
X383175000Y-279075000I0J200000D01*
G01*
X383175000Y-278525000D01*
G75*
G02*
X383375000Y-278325000I200000J0D01*
G01*
X383775000Y-278325000D01*
G75*
G02*
X383975000Y-278525000I0J-200000D01*
G01*
G37*
G36*
G01*
X385625000Y-278525000D02*
X385625000Y-279075000D01*
G75*
G02*
X385425000Y-279275000I-200000J0D01*
G01*
X385025000Y-279275000D01*
G75*
G02*
X384825000Y-279075000I0J200000D01*
G01*
X384825000Y-278525000D01*
G75*
G02*
X385025000Y-278325000I200000J0D01*
G01*
X385425000Y-278325000D01*
G75*
G02*
X385625000Y-278525000I0J-200000D01*
G01*
G37*
%TD*%
%TO.C,R79*%
G36*
G01*
X441475000Y-243325000D02*
X441475000Y-243875000D01*
G75*
G02*
X441275000Y-244075000I-200000J0D01*
G01*
X440875000Y-244075000D01*
G75*
G02*
X440675000Y-243875000I0J200000D01*
G01*
X440675000Y-243325000D01*
G75*
G02*
X440875000Y-243125000I200000J0D01*
G01*
X441275000Y-243125000D01*
G75*
G02*
X441475000Y-243325000I0J-200000D01*
G01*
G37*
G36*
G01*
X443125000Y-243325000D02*
X443125000Y-243875000D01*
G75*
G02*
X442925000Y-244075000I-200000J0D01*
G01*
X442525000Y-244075000D01*
G75*
G02*
X442325000Y-243875000I0J200000D01*
G01*
X442325000Y-243325000D01*
G75*
G02*
X442525000Y-243125000I200000J0D01*
G01*
X442925000Y-243125000D01*
G75*
G02*
X443125000Y-243325000I0J-200000D01*
G01*
G37*
%TD*%
%TO.C,R78*%
G36*
G01*
X372675000Y-260925000D02*
X372675000Y-261475000D01*
G75*
G02*
X372475000Y-261675000I-200000J0D01*
G01*
X372075000Y-261675000D01*
G75*
G02*
X371875000Y-261475000I0J200000D01*
G01*
X371875000Y-260925000D01*
G75*
G02*
X372075000Y-260725000I200000J0D01*
G01*
X372475000Y-260725000D01*
G75*
G02*
X372675000Y-260925000I0J-200000D01*
G01*
G37*
G36*
G01*
X374325000Y-260925000D02*
X374325000Y-261475000D01*
G75*
G02*
X374125000Y-261675000I-200000J0D01*
G01*
X373725000Y-261675000D01*
G75*
G02*
X373525000Y-261475000I0J200000D01*
G01*
X373525000Y-260925000D01*
G75*
G02*
X373725000Y-260725000I200000J0D01*
G01*
X374125000Y-260725000D01*
G75*
G02*
X374325000Y-260925000I0J-200000D01*
G01*
G37*
%TD*%
%TO.C,R77*%
G36*
G01*
X401275000Y-287725000D02*
X401275000Y-288275000D01*
G75*
G02*
X401075000Y-288475000I-200000J0D01*
G01*
X400675000Y-288475000D01*
G75*
G02*
X400475000Y-288275000I0J200000D01*
G01*
X400475000Y-287725000D01*
G75*
G02*
X400675000Y-287525000I200000J0D01*
G01*
X401075000Y-287525000D01*
G75*
G02*
X401275000Y-287725000I0J-200000D01*
G01*
G37*
G36*
G01*
X402925000Y-287725000D02*
X402925000Y-288275000D01*
G75*
G02*
X402725000Y-288475000I-200000J0D01*
G01*
X402325000Y-288475000D01*
G75*
G02*
X402125000Y-288275000I0J200000D01*
G01*
X402125000Y-287725000D01*
G75*
G02*
X402325000Y-287525000I200000J0D01*
G01*
X402725000Y-287525000D01*
G75*
G02*
X402925000Y-287725000I0J-200000D01*
G01*
G37*
%TD*%
%TO.C,R76*%
G36*
G01*
X407075000Y-278525000D02*
X407075000Y-279075000D01*
G75*
G02*
X406875000Y-279275000I-200000J0D01*
G01*
X406475000Y-279275000D01*
G75*
G02*
X406275000Y-279075000I0J200000D01*
G01*
X406275000Y-278525000D01*
G75*
G02*
X406475000Y-278325000I200000J0D01*
G01*
X406875000Y-278325000D01*
G75*
G02*
X407075000Y-278525000I0J-200000D01*
G01*
G37*
G36*
G01*
X408725000Y-278525000D02*
X408725000Y-279075000D01*
G75*
G02*
X408525000Y-279275000I-200000J0D01*
G01*
X408125000Y-279275000D01*
G75*
G02*
X407925000Y-279075000I0J200000D01*
G01*
X407925000Y-278525000D01*
G75*
G02*
X408125000Y-278325000I200000J0D01*
G01*
X408525000Y-278325000D01*
G75*
G02*
X408725000Y-278525000I0J-200000D01*
G01*
G37*
%TD*%
%TO.C,R75*%
G36*
G01*
X435775000Y-269825000D02*
X435775000Y-270375000D01*
G75*
G02*
X435575000Y-270575000I-200000J0D01*
G01*
X435175000Y-270575000D01*
G75*
G02*
X434975000Y-270375000I0J200000D01*
G01*
X434975000Y-269825000D01*
G75*
G02*
X435175000Y-269625000I200000J0D01*
G01*
X435575000Y-269625000D01*
G75*
G02*
X435775000Y-269825000I0J-200000D01*
G01*
G37*
G36*
G01*
X437425000Y-269825000D02*
X437425000Y-270375000D01*
G75*
G02*
X437225000Y-270575000I-200000J0D01*
G01*
X436825000Y-270575000D01*
G75*
G02*
X436625000Y-270375000I0J200000D01*
G01*
X436625000Y-269825000D01*
G75*
G02*
X436825000Y-269625000I200000J0D01*
G01*
X437225000Y-269625000D01*
G75*
G02*
X437425000Y-269825000I0J-200000D01*
G01*
G37*
%TD*%
%TO.C,R74*%
G36*
G01*
X441575000Y-260925000D02*
X441575000Y-261475000D01*
G75*
G02*
X441375000Y-261675000I-200000J0D01*
G01*
X440975000Y-261675000D01*
G75*
G02*
X440775000Y-261475000I0J200000D01*
G01*
X440775000Y-260925000D01*
G75*
G02*
X440975000Y-260725000I200000J0D01*
G01*
X441375000Y-260725000D01*
G75*
G02*
X441575000Y-260925000I0J-200000D01*
G01*
G37*
G36*
G01*
X443225000Y-260925000D02*
X443225000Y-261475000D01*
G75*
G02*
X443025000Y-261675000I-200000J0D01*
G01*
X442625000Y-261675000D01*
G75*
G02*
X442425000Y-261475000I0J200000D01*
G01*
X442425000Y-260925000D01*
G75*
G02*
X442625000Y-260725000I200000J0D01*
G01*
X443025000Y-260725000D01*
G75*
G02*
X443225000Y-260925000I0J-200000D01*
G01*
G37*
%TD*%
%TO.C,R73*%
G36*
G01*
X429875000Y-278425000D02*
X429875000Y-278975000D01*
G75*
G02*
X429675000Y-279175000I-200000J0D01*
G01*
X429275000Y-279175000D01*
G75*
G02*
X429075000Y-278975000I0J200000D01*
G01*
X429075000Y-278425000D01*
G75*
G02*
X429275000Y-278225000I200000J0D01*
G01*
X429675000Y-278225000D01*
G75*
G02*
X429875000Y-278425000I0J-200000D01*
G01*
G37*
G36*
G01*
X431525000Y-278425000D02*
X431525000Y-278975000D01*
G75*
G02*
X431325000Y-279175000I-200000J0D01*
G01*
X430925000Y-279175000D01*
G75*
G02*
X430725000Y-278975000I0J200000D01*
G01*
X430725000Y-278425000D01*
G75*
G02*
X430925000Y-278225000I200000J0D01*
G01*
X431325000Y-278225000D01*
G75*
G02*
X431525000Y-278425000I0J-200000D01*
G01*
G37*
%TD*%
%TO.C,R40*%
G36*
G01*
X372475000Y-243325000D02*
X372475000Y-243875000D01*
G75*
G02*
X372275000Y-244075000I-200000J0D01*
G01*
X371875000Y-244075000D01*
G75*
G02*
X371675000Y-243875000I0J200000D01*
G01*
X371675000Y-243325000D01*
G75*
G02*
X371875000Y-243125000I200000J0D01*
G01*
X372275000Y-243125000D01*
G75*
G02*
X372475000Y-243325000I0J-200000D01*
G01*
G37*
G36*
G01*
X374125000Y-243325000D02*
X374125000Y-243875000D01*
G75*
G02*
X373925000Y-244075000I-200000J0D01*
G01*
X373525000Y-244075000D01*
G75*
G02*
X373325000Y-243875000I0J200000D01*
G01*
X373325000Y-243325000D01*
G75*
G02*
X373525000Y-243125000I200000J0D01*
G01*
X373925000Y-243125000D01*
G75*
G02*
X374125000Y-243325000I0J-200000D01*
G01*
G37*
%TD*%
%TO.C,R39*%
G36*
G01*
X406875000Y-243325000D02*
X406875000Y-243875000D01*
G75*
G02*
X406675000Y-244075000I-200000J0D01*
G01*
X406275000Y-244075000D01*
G75*
G02*
X406075000Y-243875000I0J200000D01*
G01*
X406075000Y-243325000D01*
G75*
G02*
X406275000Y-243125000I200000J0D01*
G01*
X406675000Y-243125000D01*
G75*
G02*
X406875000Y-243325000I0J-200000D01*
G01*
G37*
G36*
G01*
X408525000Y-243325000D02*
X408525000Y-243875000D01*
G75*
G02*
X408325000Y-244075000I-200000J0D01*
G01*
X407925000Y-244075000D01*
G75*
G02*
X407725000Y-243875000I0J200000D01*
G01*
X407725000Y-243325000D01*
G75*
G02*
X407925000Y-243125000I200000J0D01*
G01*
X408325000Y-243125000D01*
G75*
G02*
X408525000Y-243325000I0J-200000D01*
G01*
G37*
%TD*%
%TO.C,R38*%
G36*
G01*
X435675000Y-234425000D02*
X435675000Y-234975000D01*
G75*
G02*
X435475000Y-235175000I-200000J0D01*
G01*
X435075000Y-235175000D01*
G75*
G02*
X434875000Y-234975000I0J200000D01*
G01*
X434875000Y-234425000D01*
G75*
G02*
X435075000Y-234225000I200000J0D01*
G01*
X435475000Y-234225000D01*
G75*
G02*
X435675000Y-234425000I0J-200000D01*
G01*
G37*
G36*
G01*
X437325000Y-234425000D02*
X437325000Y-234975000D01*
G75*
G02*
X437125000Y-235175000I-200000J0D01*
G01*
X436725000Y-235175000D01*
G75*
G02*
X436525000Y-234975000I0J200000D01*
G01*
X436525000Y-234425000D01*
G75*
G02*
X436725000Y-234225000I200000J0D01*
G01*
X437125000Y-234225000D01*
G75*
G02*
X437325000Y-234425000I0J-200000D01*
G01*
G37*
%TD*%
%TO.C,R37*%
G36*
G01*
X418475000Y-243325000D02*
X418475000Y-243875000D01*
G75*
G02*
X418275000Y-244075000I-200000J0D01*
G01*
X417875000Y-244075000D01*
G75*
G02*
X417675000Y-243875000I0J200000D01*
G01*
X417675000Y-243325000D01*
G75*
G02*
X417875000Y-243125000I200000J0D01*
G01*
X418275000Y-243125000D01*
G75*
G02*
X418475000Y-243325000I0J-200000D01*
G01*
G37*
G36*
G01*
X420125000Y-243325000D02*
X420125000Y-243875000D01*
G75*
G02*
X419925000Y-244075000I-200000J0D01*
G01*
X419525000Y-244075000D01*
G75*
G02*
X419325000Y-243875000I0J200000D01*
G01*
X419325000Y-243325000D01*
G75*
G02*
X419525000Y-243125000I200000J0D01*
G01*
X419925000Y-243125000D01*
G75*
G02*
X420125000Y-243325000I0J-200000D01*
G01*
G37*
%TD*%
%TO.C,R36*%
G36*
G01*
X412675000Y-252225000D02*
X412675000Y-252775000D01*
G75*
G02*
X412475000Y-252975000I-200000J0D01*
G01*
X412075000Y-252975000D01*
G75*
G02*
X411875000Y-252775000I0J200000D01*
G01*
X411875000Y-252225000D01*
G75*
G02*
X412075000Y-252025000I200000J0D01*
G01*
X412475000Y-252025000D01*
G75*
G02*
X412675000Y-252225000I0J-200000D01*
G01*
G37*
G36*
G01*
X414325000Y-252225000D02*
X414325000Y-252775000D01*
G75*
G02*
X414125000Y-252975000I-200000J0D01*
G01*
X413725000Y-252975000D01*
G75*
G02*
X413525000Y-252775000I0J200000D01*
G01*
X413525000Y-252225000D01*
G75*
G02*
X413725000Y-252025000I200000J0D01*
G01*
X414125000Y-252025000D01*
G75*
G02*
X414325000Y-252225000I0J-200000D01*
G01*
G37*
%TD*%
%TO.C,R35*%
G36*
G01*
X406975000Y-260925000D02*
X406975000Y-261475000D01*
G75*
G02*
X406775000Y-261675000I-200000J0D01*
G01*
X406375000Y-261675000D01*
G75*
G02*
X406175000Y-261475000I0J200000D01*
G01*
X406175000Y-260925000D01*
G75*
G02*
X406375000Y-260725000I200000J0D01*
G01*
X406775000Y-260725000D01*
G75*
G02*
X406975000Y-260925000I0J-200000D01*
G01*
G37*
G36*
G01*
X408625000Y-260925000D02*
X408625000Y-261475000D01*
G75*
G02*
X408425000Y-261675000I-200000J0D01*
G01*
X408025000Y-261675000D01*
G75*
G02*
X407825000Y-261475000I0J200000D01*
G01*
X407825000Y-260925000D01*
G75*
G02*
X408025000Y-260725000I200000J0D01*
G01*
X408425000Y-260725000D01*
G75*
G02*
X408625000Y-260925000I0J-200000D01*
G01*
G37*
%TD*%
%TO.C,R34*%
G36*
G01*
X401275000Y-269825000D02*
X401275000Y-270375000D01*
G75*
G02*
X401075000Y-270575000I-200000J0D01*
G01*
X400675000Y-270575000D01*
G75*
G02*
X400475000Y-270375000I0J200000D01*
G01*
X400475000Y-269825000D01*
G75*
G02*
X400675000Y-269625000I200000J0D01*
G01*
X401075000Y-269625000D01*
G75*
G02*
X401275000Y-269825000I0J-200000D01*
G01*
G37*
G36*
G01*
X402925000Y-269825000D02*
X402925000Y-270375000D01*
G75*
G02*
X402725000Y-270575000I-200000J0D01*
G01*
X402325000Y-270575000D01*
G75*
G02*
X402125000Y-270375000I0J200000D01*
G01*
X402125000Y-269825000D01*
G75*
G02*
X402325000Y-269625000I200000J0D01*
G01*
X402725000Y-269625000D01*
G75*
G02*
X402925000Y-269825000I0J-200000D01*
G01*
G37*
%TD*%
%TO.C,R33*%
G36*
G01*
X406975000Y-207725000D02*
X406975000Y-208275000D01*
G75*
G02*
X406775000Y-208475000I-200000J0D01*
G01*
X406375000Y-208475000D01*
G75*
G02*
X406175000Y-208275000I0J200000D01*
G01*
X406175000Y-207725000D01*
G75*
G02*
X406375000Y-207525000I200000J0D01*
G01*
X406775000Y-207525000D01*
G75*
G02*
X406975000Y-207725000I0J-200000D01*
G01*
G37*
G36*
G01*
X408625000Y-207725000D02*
X408625000Y-208275000D01*
G75*
G02*
X408425000Y-208475000I-200000J0D01*
G01*
X408025000Y-208475000D01*
G75*
G02*
X407825000Y-208275000I0J200000D01*
G01*
X407825000Y-207725000D01*
G75*
G02*
X408025000Y-207525000I200000J0D01*
G01*
X408425000Y-207525000D01*
G75*
G02*
X408625000Y-207725000I0J-200000D01*
G01*
G37*
%TD*%
%TO.C,R32*%
G36*
G01*
X429975000Y-225625000D02*
X429975000Y-226175000D01*
G75*
G02*
X429775000Y-226375000I-200000J0D01*
G01*
X429375000Y-226375000D01*
G75*
G02*
X429175000Y-226175000I0J200000D01*
G01*
X429175000Y-225625000D01*
G75*
G02*
X429375000Y-225425000I200000J0D01*
G01*
X429775000Y-225425000D01*
G75*
G02*
X429975000Y-225625000I0J-200000D01*
G01*
G37*
G36*
G01*
X431625000Y-225625000D02*
X431625000Y-226175000D01*
G75*
G02*
X431425000Y-226375000I-200000J0D01*
G01*
X431025000Y-226375000D01*
G75*
G02*
X430825000Y-226175000I0J200000D01*
G01*
X430825000Y-225625000D01*
G75*
G02*
X431025000Y-225425000I200000J0D01*
G01*
X431425000Y-225425000D01*
G75*
G02*
X431625000Y-225625000I0J-200000D01*
G01*
G37*
%TD*%
%TO.C,R31*%
G36*
G01*
X424175000Y-234425000D02*
X424175000Y-234975000D01*
G75*
G02*
X423975000Y-235175000I-200000J0D01*
G01*
X423575000Y-235175000D01*
G75*
G02*
X423375000Y-234975000I0J200000D01*
G01*
X423375000Y-234425000D01*
G75*
G02*
X423575000Y-234225000I200000J0D01*
G01*
X423975000Y-234225000D01*
G75*
G02*
X424175000Y-234425000I0J-200000D01*
G01*
G37*
G36*
G01*
X425825000Y-234425000D02*
X425825000Y-234975000D01*
G75*
G02*
X425625000Y-235175000I-200000J0D01*
G01*
X425225000Y-235175000D01*
G75*
G02*
X425025000Y-234975000I0J200000D01*
G01*
X425025000Y-234425000D01*
G75*
G02*
X425225000Y-234225000I200000J0D01*
G01*
X425625000Y-234225000D01*
G75*
G02*
X425825000Y-234425000I0J-200000D01*
G01*
G37*
%TD*%
%TO.C,R72*%
G36*
G01*
X430075000Y-260925000D02*
X430075000Y-261475000D01*
G75*
G02*
X429875000Y-261675000I-200000J0D01*
G01*
X429475000Y-261675000D01*
G75*
G02*
X429275000Y-261475000I0J200000D01*
G01*
X429275000Y-260925000D01*
G75*
G02*
X429475000Y-260725000I200000J0D01*
G01*
X429875000Y-260725000D01*
G75*
G02*
X430075000Y-260925000I0J-200000D01*
G01*
G37*
G36*
G01*
X431725000Y-260925000D02*
X431725000Y-261475000D01*
G75*
G02*
X431525000Y-261675000I-200000J0D01*
G01*
X431125000Y-261675000D01*
G75*
G02*
X430925000Y-261475000I0J200000D01*
G01*
X430925000Y-260925000D01*
G75*
G02*
X431125000Y-260725000I200000J0D01*
G01*
X431525000Y-260725000D01*
G75*
G02*
X431725000Y-260925000I0J-200000D01*
G01*
G37*
%TD*%
%TO.C,R71*%
G36*
G01*
X389875000Y-269825000D02*
X389875000Y-270375000D01*
G75*
G02*
X389675000Y-270575000I-200000J0D01*
G01*
X389275000Y-270575000D01*
G75*
G02*
X389075000Y-270375000I0J200000D01*
G01*
X389075000Y-269825000D01*
G75*
G02*
X389275000Y-269625000I200000J0D01*
G01*
X389675000Y-269625000D01*
G75*
G02*
X389875000Y-269825000I0J-200000D01*
G01*
G37*
G36*
G01*
X391525000Y-269825000D02*
X391525000Y-270375000D01*
G75*
G02*
X391325000Y-270575000I-200000J0D01*
G01*
X390925000Y-270575000D01*
G75*
G02*
X390725000Y-270375000I0J200000D01*
G01*
X390725000Y-269825000D01*
G75*
G02*
X390925000Y-269625000I200000J0D01*
G01*
X391325000Y-269625000D01*
G75*
G02*
X391525000Y-269825000I0J-200000D01*
G01*
G37*
%TD*%
%TO.C,R70*%
G36*
G01*
X381625000Y-274175000D02*
X381625000Y-273625000D01*
G75*
G02*
X381825000Y-273425000I200000J0D01*
G01*
X382225000Y-273425000D01*
G75*
G02*
X382425000Y-273625000I0J-200000D01*
G01*
X382425000Y-274175000D01*
G75*
G02*
X382225000Y-274375000I-200000J0D01*
G01*
X381825000Y-274375000D01*
G75*
G02*
X381625000Y-274175000I0J200000D01*
G01*
G37*
G36*
G01*
X379975000Y-274175000D02*
X379975000Y-273625000D01*
G75*
G02*
X380175000Y-273425000I200000J0D01*
G01*
X380575000Y-273425000D01*
G75*
G02*
X380775000Y-273625000I0J-200000D01*
G01*
X380775000Y-274175000D01*
G75*
G02*
X380575000Y-274375000I-200000J0D01*
G01*
X380175000Y-274375000D01*
G75*
G02*
X379975000Y-274175000I0J200000D01*
G01*
G37*
%TD*%
%TO.C,R69*%
G36*
G01*
X438925000Y-239075000D02*
X438925000Y-238525000D01*
G75*
G02*
X439125000Y-238325000I200000J0D01*
G01*
X439525000Y-238325000D01*
G75*
G02*
X439725000Y-238525000I0J-200000D01*
G01*
X439725000Y-239075000D01*
G75*
G02*
X439525000Y-239275000I-200000J0D01*
G01*
X439125000Y-239275000D01*
G75*
G02*
X438925000Y-239075000I0J200000D01*
G01*
G37*
G36*
G01*
X437275000Y-239075000D02*
X437275000Y-238525000D01*
G75*
G02*
X437475000Y-238325000I200000J0D01*
G01*
X437875000Y-238325000D01*
G75*
G02*
X438075000Y-238525000I0J-200000D01*
G01*
X438075000Y-239075000D01*
G75*
G02*
X437875000Y-239275000I-200000J0D01*
G01*
X437475000Y-239275000D01*
G75*
G02*
X437275000Y-239075000I0J200000D01*
G01*
G37*
%TD*%
%TO.C,R68*%
G36*
G01*
X370125000Y-256375000D02*
X370125000Y-255825000D01*
G75*
G02*
X370325000Y-255625000I200000J0D01*
G01*
X370725000Y-255625000D01*
G75*
G02*
X370925000Y-255825000I0J-200000D01*
G01*
X370925000Y-256375000D01*
G75*
G02*
X370725000Y-256575000I-200000J0D01*
G01*
X370325000Y-256575000D01*
G75*
G02*
X370125000Y-256375000I0J200000D01*
G01*
G37*
G36*
G01*
X368475000Y-256375000D02*
X368475000Y-255825000D01*
G75*
G02*
X368675000Y-255625000I200000J0D01*
G01*
X369075000Y-255625000D01*
G75*
G02*
X369275000Y-255825000I0J-200000D01*
G01*
X369275000Y-256375000D01*
G75*
G02*
X369075000Y-256575000I-200000J0D01*
G01*
X368675000Y-256575000D01*
G75*
G02*
X368475000Y-256375000I0J200000D01*
G01*
G37*
%TD*%
%TO.C,R67*%
G36*
G01*
X398825000Y-283275000D02*
X398825000Y-282725000D01*
G75*
G02*
X399025000Y-282525000I200000J0D01*
G01*
X399425000Y-282525000D01*
G75*
G02*
X399625000Y-282725000I0J-200000D01*
G01*
X399625000Y-283275000D01*
G75*
G02*
X399425000Y-283475000I-200000J0D01*
G01*
X399025000Y-283475000D01*
G75*
G02*
X398825000Y-283275000I0J200000D01*
G01*
G37*
G36*
G01*
X397175000Y-283275000D02*
X397175000Y-282725000D01*
G75*
G02*
X397375000Y-282525000I200000J0D01*
G01*
X397775000Y-282525000D01*
G75*
G02*
X397975000Y-282725000I0J-200000D01*
G01*
X397975000Y-283275000D01*
G75*
G02*
X397775000Y-283475000I-200000J0D01*
G01*
X397375000Y-283475000D01*
G75*
G02*
X397175000Y-283275000I0J200000D01*
G01*
G37*
%TD*%
%TO.C,R66*%
G36*
G01*
X404525000Y-274175000D02*
X404525000Y-273625000D01*
G75*
G02*
X404725000Y-273425000I200000J0D01*
G01*
X405125000Y-273425000D01*
G75*
G02*
X405325000Y-273625000I0J-200000D01*
G01*
X405325000Y-274175000D01*
G75*
G02*
X405125000Y-274375000I-200000J0D01*
G01*
X404725000Y-274375000D01*
G75*
G02*
X404525000Y-274175000I0J200000D01*
G01*
G37*
G36*
G01*
X402875000Y-274175000D02*
X402875000Y-273625000D01*
G75*
G02*
X403075000Y-273425000I200000J0D01*
G01*
X403475000Y-273425000D01*
G75*
G02*
X403675000Y-273625000I0J-200000D01*
G01*
X403675000Y-274175000D01*
G75*
G02*
X403475000Y-274375000I-200000J0D01*
G01*
X403075000Y-274375000D01*
G75*
G02*
X402875000Y-274175000I0J200000D01*
G01*
G37*
%TD*%
%TO.C,R65*%
G36*
G01*
X433325000Y-265375000D02*
X433325000Y-264825000D01*
G75*
G02*
X433525000Y-264625000I200000J0D01*
G01*
X433925000Y-264625000D01*
G75*
G02*
X434125000Y-264825000I0J-200000D01*
G01*
X434125000Y-265375000D01*
G75*
G02*
X433925000Y-265575000I-200000J0D01*
G01*
X433525000Y-265575000D01*
G75*
G02*
X433325000Y-265375000I0J200000D01*
G01*
G37*
G36*
G01*
X431675000Y-265375000D02*
X431675000Y-264825000D01*
G75*
G02*
X431875000Y-264625000I200000J0D01*
G01*
X432275000Y-264625000D01*
G75*
G02*
X432475000Y-264825000I0J-200000D01*
G01*
X432475000Y-265375000D01*
G75*
G02*
X432275000Y-265575000I-200000J0D01*
G01*
X431875000Y-265575000D01*
G75*
G02*
X431675000Y-265375000I0J200000D01*
G01*
G37*
%TD*%
%TO.C,R64*%
G36*
G01*
X439025000Y-256475000D02*
X439025000Y-255925000D01*
G75*
G02*
X439225000Y-255725000I200000J0D01*
G01*
X439625000Y-255725000D01*
G75*
G02*
X439825000Y-255925000I0J-200000D01*
G01*
X439825000Y-256475000D01*
G75*
G02*
X439625000Y-256675000I-200000J0D01*
G01*
X439225000Y-256675000D01*
G75*
G02*
X439025000Y-256475000I0J200000D01*
G01*
G37*
G36*
G01*
X437375000Y-256475000D02*
X437375000Y-255925000D01*
G75*
G02*
X437575000Y-255725000I200000J0D01*
G01*
X437975000Y-255725000D01*
G75*
G02*
X438175000Y-255925000I0J-200000D01*
G01*
X438175000Y-256475000D01*
G75*
G02*
X437975000Y-256675000I-200000J0D01*
G01*
X437575000Y-256675000D01*
G75*
G02*
X437375000Y-256475000I0J200000D01*
G01*
G37*
%TD*%
%TO.C,R63*%
G36*
G01*
X427325000Y-274075000D02*
X427325000Y-273525000D01*
G75*
G02*
X427525000Y-273325000I200000J0D01*
G01*
X427925000Y-273325000D01*
G75*
G02*
X428125000Y-273525000I0J-200000D01*
G01*
X428125000Y-274075000D01*
G75*
G02*
X427925000Y-274275000I-200000J0D01*
G01*
X427525000Y-274275000D01*
G75*
G02*
X427325000Y-274075000I0J200000D01*
G01*
G37*
G36*
G01*
X425675000Y-274075000D02*
X425675000Y-273525000D01*
G75*
G02*
X425875000Y-273325000I200000J0D01*
G01*
X426275000Y-273325000D01*
G75*
G02*
X426475000Y-273525000I0J-200000D01*
G01*
X426475000Y-274075000D01*
G75*
G02*
X426275000Y-274275000I-200000J0D01*
G01*
X425875000Y-274275000D01*
G75*
G02*
X425675000Y-274075000I0J200000D01*
G01*
G37*
%TD*%
%TO.C,R30*%
G36*
G01*
X369925000Y-239075000D02*
X369925000Y-238525000D01*
G75*
G02*
X370125000Y-238325000I200000J0D01*
G01*
X370525000Y-238325000D01*
G75*
G02*
X370725000Y-238525000I0J-200000D01*
G01*
X370725000Y-239075000D01*
G75*
G02*
X370525000Y-239275000I-200000J0D01*
G01*
X370125000Y-239275000D01*
G75*
G02*
X369925000Y-239075000I0J200000D01*
G01*
G37*
G36*
G01*
X368275000Y-239075000D02*
X368275000Y-238525000D01*
G75*
G02*
X368475000Y-238325000I200000J0D01*
G01*
X368875000Y-238325000D01*
G75*
G02*
X369075000Y-238525000I0J-200000D01*
G01*
X369075000Y-239075000D01*
G75*
G02*
X368875000Y-239275000I-200000J0D01*
G01*
X368475000Y-239275000D01*
G75*
G02*
X368275000Y-239075000I0J200000D01*
G01*
G37*
%TD*%
%TO.C,R29*%
G36*
G01*
X404425000Y-239075000D02*
X404425000Y-238525000D01*
G75*
G02*
X404625000Y-238325000I200000J0D01*
G01*
X405025000Y-238325000D01*
G75*
G02*
X405225000Y-238525000I0J-200000D01*
G01*
X405225000Y-239075000D01*
G75*
G02*
X405025000Y-239275000I-200000J0D01*
G01*
X404625000Y-239275000D01*
G75*
G02*
X404425000Y-239075000I0J200000D01*
G01*
G37*
G36*
G01*
X402775000Y-239075000D02*
X402775000Y-238525000D01*
G75*
G02*
X402975000Y-238325000I200000J0D01*
G01*
X403375000Y-238325000D01*
G75*
G02*
X403575000Y-238525000I0J-200000D01*
G01*
X403575000Y-239075000D01*
G75*
G02*
X403375000Y-239275000I-200000J0D01*
G01*
X402975000Y-239275000D01*
G75*
G02*
X402775000Y-239075000I0J200000D01*
G01*
G37*
%TD*%
%TO.C,R28*%
G36*
G01*
X433225000Y-230275000D02*
X433225000Y-229725000D01*
G75*
G02*
X433425000Y-229525000I200000J0D01*
G01*
X433825000Y-229525000D01*
G75*
G02*
X434025000Y-229725000I0J-200000D01*
G01*
X434025000Y-230275000D01*
G75*
G02*
X433825000Y-230475000I-200000J0D01*
G01*
X433425000Y-230475000D01*
G75*
G02*
X433225000Y-230275000I0J200000D01*
G01*
G37*
G36*
G01*
X431575000Y-230275000D02*
X431575000Y-229725000D01*
G75*
G02*
X431775000Y-229525000I200000J0D01*
G01*
X432175000Y-229525000D01*
G75*
G02*
X432375000Y-229725000I0J-200000D01*
G01*
X432375000Y-230275000D01*
G75*
G02*
X432175000Y-230475000I-200000J0D01*
G01*
X431775000Y-230475000D01*
G75*
G02*
X431575000Y-230275000I0J200000D01*
G01*
G37*
%TD*%
%TO.C,R27*%
G36*
G01*
X415925000Y-239075000D02*
X415925000Y-238525000D01*
G75*
G02*
X416125000Y-238325000I200000J0D01*
G01*
X416525000Y-238325000D01*
G75*
G02*
X416725000Y-238525000I0J-200000D01*
G01*
X416725000Y-239075000D01*
G75*
G02*
X416525000Y-239275000I-200000J0D01*
G01*
X416125000Y-239275000D01*
G75*
G02*
X415925000Y-239075000I0J200000D01*
G01*
G37*
G36*
G01*
X414275000Y-239075000D02*
X414275000Y-238525000D01*
G75*
G02*
X414475000Y-238325000I200000J0D01*
G01*
X414875000Y-238325000D01*
G75*
G02*
X415075000Y-238525000I0J-200000D01*
G01*
X415075000Y-239075000D01*
G75*
G02*
X414875000Y-239275000I-200000J0D01*
G01*
X414475000Y-239275000D01*
G75*
G02*
X414275000Y-239075000I0J200000D01*
G01*
G37*
%TD*%
%TO.C,R26*%
G36*
G01*
X410225000Y-247675000D02*
X410225000Y-247125000D01*
G75*
G02*
X410425000Y-246925000I200000J0D01*
G01*
X410825000Y-246925000D01*
G75*
G02*
X411025000Y-247125000I0J-200000D01*
G01*
X411025000Y-247675000D01*
G75*
G02*
X410825000Y-247875000I-200000J0D01*
G01*
X410425000Y-247875000D01*
G75*
G02*
X410225000Y-247675000I0J200000D01*
G01*
G37*
G36*
G01*
X408575000Y-247675000D02*
X408575000Y-247125000D01*
G75*
G02*
X408775000Y-246925000I200000J0D01*
G01*
X409175000Y-246925000D01*
G75*
G02*
X409375000Y-247125000I0J-200000D01*
G01*
X409375000Y-247675000D01*
G75*
G02*
X409175000Y-247875000I-200000J0D01*
G01*
X408775000Y-247875000D01*
G75*
G02*
X408575000Y-247675000I0J200000D01*
G01*
G37*
%TD*%
%TO.C,R25*%
G36*
G01*
X404625000Y-256375000D02*
X404625000Y-255825000D01*
G75*
G02*
X404825000Y-255625000I200000J0D01*
G01*
X405225000Y-255625000D01*
G75*
G02*
X405425000Y-255825000I0J-200000D01*
G01*
X405425000Y-256375000D01*
G75*
G02*
X405225000Y-256575000I-200000J0D01*
G01*
X404825000Y-256575000D01*
G75*
G02*
X404625000Y-256375000I0J200000D01*
G01*
G37*
G36*
G01*
X402975000Y-256375000D02*
X402975000Y-255825000D01*
G75*
G02*
X403175000Y-255625000I200000J0D01*
G01*
X403575000Y-255625000D01*
G75*
G02*
X403775000Y-255825000I0J-200000D01*
G01*
X403775000Y-256375000D01*
G75*
G02*
X403575000Y-256575000I-200000J0D01*
G01*
X403175000Y-256575000D01*
G75*
G02*
X402975000Y-256375000I0J200000D01*
G01*
G37*
%TD*%
%TO.C,R24*%
G36*
G01*
X398825000Y-265375000D02*
X398825000Y-264825000D01*
G75*
G02*
X399025000Y-264625000I200000J0D01*
G01*
X399425000Y-264625000D01*
G75*
G02*
X399625000Y-264825000I0J-200000D01*
G01*
X399625000Y-265375000D01*
G75*
G02*
X399425000Y-265575000I-200000J0D01*
G01*
X399025000Y-265575000D01*
G75*
G02*
X398825000Y-265375000I0J200000D01*
G01*
G37*
G36*
G01*
X397175000Y-265375000D02*
X397175000Y-264825000D01*
G75*
G02*
X397375000Y-264625000I200000J0D01*
G01*
X397775000Y-264625000D01*
G75*
G02*
X397975000Y-264825000I0J-200000D01*
G01*
X397975000Y-265375000D01*
G75*
G02*
X397775000Y-265575000I-200000J0D01*
G01*
X397375000Y-265575000D01*
G75*
G02*
X397175000Y-265375000I0J200000D01*
G01*
G37*
%TD*%
%TO.C,R23*%
G36*
G01*
X404525000Y-203075000D02*
X404525000Y-202525000D01*
G75*
G02*
X404725000Y-202325000I200000J0D01*
G01*
X405125000Y-202325000D01*
G75*
G02*
X405325000Y-202525000I0J-200000D01*
G01*
X405325000Y-203075000D01*
G75*
G02*
X405125000Y-203275000I-200000J0D01*
G01*
X404725000Y-203275000D01*
G75*
G02*
X404525000Y-203075000I0J200000D01*
G01*
G37*
G36*
G01*
X402875000Y-203075000D02*
X402875000Y-202525000D01*
G75*
G02*
X403075000Y-202325000I200000J0D01*
G01*
X403475000Y-202325000D01*
G75*
G02*
X403675000Y-202525000I0J-200000D01*
G01*
X403675000Y-203075000D01*
G75*
G02*
X403475000Y-203275000I-200000J0D01*
G01*
X403075000Y-203275000D01*
G75*
G02*
X402875000Y-203075000I0J200000D01*
G01*
G37*
%TD*%
%TO.C,R22*%
G36*
G01*
X427425000Y-221275000D02*
X427425000Y-220725000D01*
G75*
G02*
X427625000Y-220525000I200000J0D01*
G01*
X428025000Y-220525000D01*
G75*
G02*
X428225000Y-220725000I0J-200000D01*
G01*
X428225000Y-221275000D01*
G75*
G02*
X428025000Y-221475000I-200000J0D01*
G01*
X427625000Y-221475000D01*
G75*
G02*
X427425000Y-221275000I0J200000D01*
G01*
G37*
G36*
G01*
X425775000Y-221275000D02*
X425775000Y-220725000D01*
G75*
G02*
X425975000Y-220525000I200000J0D01*
G01*
X426375000Y-220525000D01*
G75*
G02*
X426575000Y-220725000I0J-200000D01*
G01*
X426575000Y-221275000D01*
G75*
G02*
X426375000Y-221475000I-200000J0D01*
G01*
X425975000Y-221475000D01*
G75*
G02*
X425775000Y-221275000I0J200000D01*
G01*
G37*
%TD*%
%TO.C,R21*%
G36*
G01*
X421725000Y-230275000D02*
X421725000Y-229725000D01*
G75*
G02*
X421925000Y-229525000I200000J0D01*
G01*
X422325000Y-229525000D01*
G75*
G02*
X422525000Y-229725000I0J-200000D01*
G01*
X422525000Y-230275000D01*
G75*
G02*
X422325000Y-230475000I-200000J0D01*
G01*
X421925000Y-230475000D01*
G75*
G02*
X421725000Y-230275000I0J200000D01*
G01*
G37*
G36*
G01*
X420075000Y-230275000D02*
X420075000Y-229725000D01*
G75*
G02*
X420275000Y-229525000I200000J0D01*
G01*
X420675000Y-229525000D01*
G75*
G02*
X420875000Y-229725000I0J-200000D01*
G01*
X420875000Y-230275000D01*
G75*
G02*
X420675000Y-230475000I-200000J0D01*
G01*
X420275000Y-230475000D01*
G75*
G02*
X420075000Y-230275000I0J200000D01*
G01*
G37*
%TD*%
%TO.C,R62*%
G36*
G01*
X427625000Y-256475000D02*
X427625000Y-255925000D01*
G75*
G02*
X427825000Y-255725000I200000J0D01*
G01*
X428225000Y-255725000D01*
G75*
G02*
X428425000Y-255925000I0J-200000D01*
G01*
X428425000Y-256475000D01*
G75*
G02*
X428225000Y-256675000I-200000J0D01*
G01*
X427825000Y-256675000D01*
G75*
G02*
X427625000Y-256475000I0J200000D01*
G01*
G37*
G36*
G01*
X425975000Y-256475000D02*
X425975000Y-255925000D01*
G75*
G02*
X426175000Y-255725000I200000J0D01*
G01*
X426575000Y-255725000D01*
G75*
G02*
X426775000Y-255925000I0J-200000D01*
G01*
X426775000Y-256475000D01*
G75*
G02*
X426575000Y-256675000I-200000J0D01*
G01*
X426175000Y-256675000D01*
G75*
G02*
X425975000Y-256475000I0J200000D01*
G01*
G37*
%TD*%
%TO.C,R61*%
G36*
G01*
X387425000Y-265375000D02*
X387425000Y-264825000D01*
G75*
G02*
X387625000Y-264625000I200000J0D01*
G01*
X388025000Y-264625000D01*
G75*
G02*
X388225000Y-264825000I0J-200000D01*
G01*
X388225000Y-265375000D01*
G75*
G02*
X388025000Y-265575000I-200000J0D01*
G01*
X387625000Y-265575000D01*
G75*
G02*
X387425000Y-265375000I0J200000D01*
G01*
G37*
G36*
G01*
X385775000Y-265375000D02*
X385775000Y-264825000D01*
G75*
G02*
X385975000Y-264625000I200000J0D01*
G01*
X386375000Y-264625000D01*
G75*
G02*
X386575000Y-264825000I0J-200000D01*
G01*
X386575000Y-265375000D01*
G75*
G02*
X386375000Y-265575000I-200000J0D01*
G01*
X385975000Y-265575000D01*
G75*
G02*
X385775000Y-265375000I0J200000D01*
G01*
G37*
%TD*%
%TO.C,R60*%
G36*
G01*
X412775000Y-287725000D02*
X412775000Y-288275000D01*
G75*
G02*
X412575000Y-288475000I-200000J0D01*
G01*
X412175000Y-288475000D01*
G75*
G02*
X411975000Y-288275000I0J200000D01*
G01*
X411975000Y-287725000D01*
G75*
G02*
X412175000Y-287525000I200000J0D01*
G01*
X412575000Y-287525000D01*
G75*
G02*
X412775000Y-287725000I0J-200000D01*
G01*
G37*
G36*
G01*
X414425000Y-287725000D02*
X414425000Y-288275000D01*
G75*
G02*
X414225000Y-288475000I-200000J0D01*
G01*
X413825000Y-288475000D01*
G75*
G02*
X413625000Y-288275000I0J200000D01*
G01*
X413625000Y-287725000D01*
G75*
G02*
X413825000Y-287525000I200000J0D01*
G01*
X414225000Y-287525000D01*
G75*
G02*
X414425000Y-287725000I0J-200000D01*
G01*
G37*
%TD*%
%TO.C,R59*%
G36*
G01*
X362175000Y-261825000D02*
X362175000Y-262375000D01*
G75*
G02*
X361975000Y-262575000I-200000J0D01*
G01*
X361575000Y-262575000D01*
G75*
G02*
X361375000Y-262375000I0J200000D01*
G01*
X361375000Y-261825000D01*
G75*
G02*
X361575000Y-261625000I200000J0D01*
G01*
X361975000Y-261625000D01*
G75*
G02*
X362175000Y-261825000I0J-200000D01*
G01*
G37*
G36*
G01*
X363825000Y-261825000D02*
X363825000Y-262375000D01*
G75*
G02*
X363625000Y-262575000I-200000J0D01*
G01*
X363225000Y-262575000D01*
G75*
G02*
X363025000Y-262375000I0J200000D01*
G01*
X363025000Y-261825000D01*
G75*
G02*
X363225000Y-261625000I200000J0D01*
G01*
X363625000Y-261625000D01*
G75*
G02*
X363825000Y-261825000I0J-200000D01*
G01*
G37*
%TD*%
%TO.C,R58*%
G36*
G01*
X395575000Y-260925000D02*
X395575000Y-261475000D01*
G75*
G02*
X395375000Y-261675000I-200000J0D01*
G01*
X394975000Y-261675000D01*
G75*
G02*
X394775000Y-261475000I0J200000D01*
G01*
X394775000Y-260925000D01*
G75*
G02*
X394975000Y-260725000I200000J0D01*
G01*
X395375000Y-260725000D01*
G75*
G02*
X395575000Y-260925000I0J-200000D01*
G01*
G37*
G36*
G01*
X397225000Y-260925000D02*
X397225000Y-261475000D01*
G75*
G02*
X397025000Y-261675000I-200000J0D01*
G01*
X396625000Y-261675000D01*
G75*
G02*
X396425000Y-261475000I0J200000D01*
G01*
X396425000Y-260925000D01*
G75*
G02*
X396625000Y-260725000I200000J0D01*
G01*
X397025000Y-260725000D01*
G75*
G02*
X397225000Y-260925000I0J-200000D01*
G01*
G37*
%TD*%
%TO.C,R57*%
G36*
G01*
X378375000Y-269825000D02*
X378375000Y-270375000D01*
G75*
G02*
X378175000Y-270575000I-200000J0D01*
G01*
X377775000Y-270575000D01*
G75*
G02*
X377575000Y-270375000I0J200000D01*
G01*
X377575000Y-269825000D01*
G75*
G02*
X377775000Y-269625000I200000J0D01*
G01*
X378175000Y-269625000D01*
G75*
G02*
X378375000Y-269825000I0J-200000D01*
G01*
G37*
G36*
G01*
X380025000Y-269825000D02*
X380025000Y-270375000D01*
G75*
G02*
X379825000Y-270575000I-200000J0D01*
G01*
X379425000Y-270575000D01*
G75*
G02*
X379225000Y-270375000I0J200000D01*
G01*
X379225000Y-269825000D01*
G75*
G02*
X379425000Y-269625000I200000J0D01*
G01*
X379825000Y-269625000D01*
G75*
G02*
X380025000Y-269825000I0J-200000D01*
G01*
G37*
%TD*%
%TO.C,R56*%
G36*
G01*
X368425000Y-248875000D02*
X368975000Y-248875000D01*
G75*
G02*
X369175000Y-249075000I0J-200000D01*
G01*
X369175000Y-249475000D01*
G75*
G02*
X368975000Y-249675000I-200000J0D01*
G01*
X368425000Y-249675000D01*
G75*
G02*
X368225000Y-249475000I0J200000D01*
G01*
X368225000Y-249075000D01*
G75*
G02*
X368425000Y-248875000I200000J0D01*
G01*
G37*
G36*
G01*
X368425000Y-247225000D02*
X368975000Y-247225000D01*
G75*
G02*
X369175000Y-247425000I0J-200000D01*
G01*
X369175000Y-247825000D01*
G75*
G02*
X368975000Y-248025000I-200000J0D01*
G01*
X368425000Y-248025000D01*
G75*
G02*
X368225000Y-247825000I0J200000D01*
G01*
X368225000Y-247425000D01*
G75*
G02*
X368425000Y-247225000I200000J0D01*
G01*
G37*
%TD*%
%TO.C,R55*%
G36*
G01*
X418475000Y-225625000D02*
X418475000Y-226175000D01*
G75*
G02*
X418275000Y-226375000I-200000J0D01*
G01*
X417875000Y-226375000D01*
G75*
G02*
X417675000Y-226175000I0J200000D01*
G01*
X417675000Y-225625000D01*
G75*
G02*
X417875000Y-225425000I200000J0D01*
G01*
X418275000Y-225425000D01*
G75*
G02*
X418475000Y-225625000I0J-200000D01*
G01*
G37*
G36*
G01*
X420125000Y-225625000D02*
X420125000Y-226175000D01*
G75*
G02*
X419925000Y-226375000I-200000J0D01*
G01*
X419525000Y-226375000D01*
G75*
G02*
X419325000Y-226175000I0J200000D01*
G01*
X419325000Y-225625000D01*
G75*
G02*
X419525000Y-225425000I200000J0D01*
G01*
X419925000Y-225425000D01*
G75*
G02*
X420125000Y-225625000I0J-200000D01*
G01*
G37*
%TD*%
%TO.C,R54*%
G36*
G01*
X412675000Y-234425000D02*
X412675000Y-234975000D01*
G75*
G02*
X412475000Y-235175000I-200000J0D01*
G01*
X412075000Y-235175000D01*
G75*
G02*
X411875000Y-234975000I0J200000D01*
G01*
X411875000Y-234425000D01*
G75*
G02*
X412075000Y-234225000I200000J0D01*
G01*
X412475000Y-234225000D01*
G75*
G02*
X412675000Y-234425000I0J-200000D01*
G01*
G37*
G36*
G01*
X414325000Y-234425000D02*
X414325000Y-234975000D01*
G75*
G02*
X414125000Y-235175000I-200000J0D01*
G01*
X413725000Y-235175000D01*
G75*
G02*
X413525000Y-234975000I0J200000D01*
G01*
X413525000Y-234425000D01*
G75*
G02*
X413725000Y-234225000I200000J0D01*
G01*
X414125000Y-234225000D01*
G75*
G02*
X414325000Y-234425000I0J-200000D01*
G01*
G37*
%TD*%
%TO.C,R53*%
G36*
G01*
X395475000Y-243325000D02*
X395475000Y-243875000D01*
G75*
G02*
X395275000Y-244075000I-200000J0D01*
G01*
X394875000Y-244075000D01*
G75*
G02*
X394675000Y-243875000I0J200000D01*
G01*
X394675000Y-243325000D01*
G75*
G02*
X394875000Y-243125000I200000J0D01*
G01*
X395275000Y-243125000D01*
G75*
G02*
X395475000Y-243325000I0J-200000D01*
G01*
G37*
G36*
G01*
X397125000Y-243325000D02*
X397125000Y-243875000D01*
G75*
G02*
X396925000Y-244075000I-200000J0D01*
G01*
X396525000Y-244075000D01*
G75*
G02*
X396325000Y-243875000I0J200000D01*
G01*
X396325000Y-243325000D01*
G75*
G02*
X396525000Y-243125000I200000J0D01*
G01*
X396925000Y-243125000D01*
G75*
G02*
X397125000Y-243325000I0J-200000D01*
G01*
G37*
%TD*%
%TO.C,R20*%
G36*
G01*
X418475000Y-278525000D02*
X418475000Y-279075000D01*
G75*
G02*
X418275000Y-279275000I-200000J0D01*
G01*
X417875000Y-279275000D01*
G75*
G02*
X417675000Y-279075000I0J200000D01*
G01*
X417675000Y-278525000D01*
G75*
G02*
X417875000Y-278325000I200000J0D01*
G01*
X418275000Y-278325000D01*
G75*
G02*
X418475000Y-278525000I0J-200000D01*
G01*
G37*
G36*
G01*
X420125000Y-278525000D02*
X420125000Y-279075000D01*
G75*
G02*
X419925000Y-279275000I-200000J0D01*
G01*
X419525000Y-279275000D01*
G75*
G02*
X419325000Y-279075000I0J200000D01*
G01*
X419325000Y-278525000D01*
G75*
G02*
X419525000Y-278325000I200000J0D01*
G01*
X419925000Y-278325000D01*
G75*
G02*
X420125000Y-278525000I0J-200000D01*
G01*
G37*
%TD*%
%TO.C,R19*%
G36*
G01*
X378175000Y-216825000D02*
X378175000Y-217375000D01*
G75*
G02*
X377975000Y-217575000I-200000J0D01*
G01*
X377575000Y-217575000D01*
G75*
G02*
X377375000Y-217375000I0J200000D01*
G01*
X377375000Y-216825000D01*
G75*
G02*
X377575000Y-216625000I200000J0D01*
G01*
X377975000Y-216625000D01*
G75*
G02*
X378175000Y-216825000I0J-200000D01*
G01*
G37*
G36*
G01*
X379825000Y-216825000D02*
X379825000Y-217375000D01*
G75*
G02*
X379625000Y-217575000I-200000J0D01*
G01*
X379225000Y-217575000D01*
G75*
G02*
X379025000Y-217375000I0J200000D01*
G01*
X379025000Y-216825000D01*
G75*
G02*
X379225000Y-216625000I200000J0D01*
G01*
X379625000Y-216625000D01*
G75*
G02*
X379825000Y-216825000I0J-200000D01*
G01*
G37*
%TD*%
%TO.C,R18*%
G36*
G01*
X364175000Y-232125000D02*
X364175000Y-232675000D01*
G75*
G02*
X363975000Y-232875000I-200000J0D01*
G01*
X363575000Y-232875000D01*
G75*
G02*
X363375000Y-232675000I0J200000D01*
G01*
X363375000Y-232125000D01*
G75*
G02*
X363575000Y-231925000I200000J0D01*
G01*
X363975000Y-231925000D01*
G75*
G02*
X364175000Y-232125000I0J-200000D01*
G01*
G37*
G36*
G01*
X365825000Y-232125000D02*
X365825000Y-232675000D01*
G75*
G02*
X365625000Y-232875000I-200000J0D01*
G01*
X365225000Y-232875000D01*
G75*
G02*
X365025000Y-232675000I0J200000D01*
G01*
X365025000Y-232125000D01*
G75*
G02*
X365225000Y-231925000I200000J0D01*
G01*
X365625000Y-231925000D01*
G75*
G02*
X365825000Y-232125000I0J-200000D01*
G01*
G37*
%TD*%
%TO.C,R17*%
G36*
G01*
X372475000Y-225625000D02*
X372475000Y-226175000D01*
G75*
G02*
X372275000Y-226375000I-200000J0D01*
G01*
X371875000Y-226375000D01*
G75*
G02*
X371675000Y-226175000I0J200000D01*
G01*
X371675000Y-225625000D01*
G75*
G02*
X371875000Y-225425000I200000J0D01*
G01*
X372275000Y-225425000D01*
G75*
G02*
X372475000Y-225625000I0J-200000D01*
G01*
G37*
G36*
G01*
X374125000Y-225625000D02*
X374125000Y-226175000D01*
G75*
G02*
X373925000Y-226375000I-200000J0D01*
G01*
X373525000Y-226375000D01*
G75*
G02*
X373325000Y-226175000I0J200000D01*
G01*
X373325000Y-225625000D01*
G75*
G02*
X373525000Y-225425000I200000J0D01*
G01*
X373925000Y-225425000D01*
G75*
G02*
X374125000Y-225625000I0J-200000D01*
G01*
G37*
%TD*%
%TO.C,R16*%
G36*
G01*
X389675000Y-216825000D02*
X389675000Y-217375000D01*
G75*
G02*
X389475000Y-217575000I-200000J0D01*
G01*
X389075000Y-217575000D01*
G75*
G02*
X388875000Y-217375000I0J200000D01*
G01*
X388875000Y-216825000D01*
G75*
G02*
X389075000Y-216625000I200000J0D01*
G01*
X389475000Y-216625000D01*
G75*
G02*
X389675000Y-216825000I0J-200000D01*
G01*
G37*
G36*
G01*
X391325000Y-216825000D02*
X391325000Y-217375000D01*
G75*
G02*
X391125000Y-217575000I-200000J0D01*
G01*
X390725000Y-217575000D01*
G75*
G02*
X390525000Y-217375000I0J200000D01*
G01*
X390525000Y-216825000D01*
G75*
G02*
X390725000Y-216625000I200000J0D01*
G01*
X391125000Y-216625000D01*
G75*
G02*
X391325000Y-216825000I0J-200000D01*
G01*
G37*
%TD*%
%TO.C,R15*%
G36*
G01*
X424375000Y-287625000D02*
X424375000Y-288175000D01*
G75*
G02*
X424175000Y-288375000I-200000J0D01*
G01*
X423775000Y-288375000D01*
G75*
G02*
X423575000Y-288175000I0J200000D01*
G01*
X423575000Y-287625000D01*
G75*
G02*
X423775000Y-287425000I200000J0D01*
G01*
X424175000Y-287425000D01*
G75*
G02*
X424375000Y-287625000I0J-200000D01*
G01*
G37*
G36*
G01*
X426025000Y-287625000D02*
X426025000Y-288175000D01*
G75*
G02*
X425825000Y-288375000I-200000J0D01*
G01*
X425425000Y-288375000D01*
G75*
G02*
X425225000Y-288175000I0J200000D01*
G01*
X425225000Y-287625000D01*
G75*
G02*
X425425000Y-287425000I200000J0D01*
G01*
X425825000Y-287425000D01*
G75*
G02*
X426025000Y-287625000I0J-200000D01*
G01*
G37*
%TD*%
%TO.C,R14*%
G36*
G01*
X378175000Y-234425000D02*
X378175000Y-234975000D01*
G75*
G02*
X377975000Y-235175000I-200000J0D01*
G01*
X377575000Y-235175000D01*
G75*
G02*
X377375000Y-234975000I0J200000D01*
G01*
X377375000Y-234425000D01*
G75*
G02*
X377575000Y-234225000I200000J0D01*
G01*
X377975000Y-234225000D01*
G75*
G02*
X378175000Y-234425000I0J-200000D01*
G01*
G37*
G36*
G01*
X379825000Y-234425000D02*
X379825000Y-234975000D01*
G75*
G02*
X379625000Y-235175000I-200000J0D01*
G01*
X379225000Y-235175000D01*
G75*
G02*
X379025000Y-234975000I0J200000D01*
G01*
X379025000Y-234425000D01*
G75*
G02*
X379225000Y-234225000I200000J0D01*
G01*
X379625000Y-234225000D01*
G75*
G02*
X379825000Y-234425000I0J-200000D01*
G01*
G37*
%TD*%
%TO.C,R13*%
G36*
G01*
X383975000Y-225625000D02*
X383975000Y-226175000D01*
G75*
G02*
X383775000Y-226375000I-200000J0D01*
G01*
X383375000Y-226375000D01*
G75*
G02*
X383175000Y-226175000I0J200000D01*
G01*
X383175000Y-225625000D01*
G75*
G02*
X383375000Y-225425000I200000J0D01*
G01*
X383775000Y-225425000D01*
G75*
G02*
X383975000Y-225625000I0J-200000D01*
G01*
G37*
G36*
G01*
X385625000Y-225625000D02*
X385625000Y-226175000D01*
G75*
G02*
X385425000Y-226375000I-200000J0D01*
G01*
X385025000Y-226375000D01*
G75*
G02*
X384825000Y-226175000I0J200000D01*
G01*
X384825000Y-225625000D01*
G75*
G02*
X385025000Y-225425000I200000J0D01*
G01*
X385425000Y-225425000D01*
G75*
G02*
X385625000Y-225625000I0J-200000D01*
G01*
G37*
%TD*%
%TO.C,R12*%
G36*
G01*
X401175000Y-216825000D02*
X401175000Y-217375000D01*
G75*
G02*
X400975000Y-217575000I-200000J0D01*
G01*
X400575000Y-217575000D01*
G75*
G02*
X400375000Y-217375000I0J200000D01*
G01*
X400375000Y-216825000D01*
G75*
G02*
X400575000Y-216625000I200000J0D01*
G01*
X400975000Y-216625000D01*
G75*
G02*
X401175000Y-216825000I0J-200000D01*
G01*
G37*
G36*
G01*
X402825000Y-216825000D02*
X402825000Y-217375000D01*
G75*
G02*
X402625000Y-217575000I-200000J0D01*
G01*
X402225000Y-217575000D01*
G75*
G02*
X402025000Y-217375000I0J200000D01*
G01*
X402025000Y-216825000D01*
G75*
G02*
X402225000Y-216625000I200000J0D01*
G01*
X402625000Y-216625000D01*
G75*
G02*
X402825000Y-216825000I0J-200000D01*
G01*
G37*
%TD*%
%TO.C,R11*%
G36*
G01*
X372975000Y-278925000D02*
X372975000Y-279475000D01*
G75*
G02*
X372775000Y-279675000I-200000J0D01*
G01*
X372375000Y-279675000D01*
G75*
G02*
X372175000Y-279475000I0J200000D01*
G01*
X372175000Y-278925000D01*
G75*
G02*
X372375000Y-278725000I200000J0D01*
G01*
X372775000Y-278725000D01*
G75*
G02*
X372975000Y-278925000I0J-200000D01*
G01*
G37*
G36*
G01*
X374625000Y-278925000D02*
X374625000Y-279475000D01*
G75*
G02*
X374425000Y-279675000I-200000J0D01*
G01*
X374025000Y-279675000D01*
G75*
G02*
X373825000Y-279475000I0J200000D01*
G01*
X373825000Y-278925000D01*
G75*
G02*
X374025000Y-278725000I200000J0D01*
G01*
X374425000Y-278725000D01*
G75*
G02*
X374625000Y-278925000I0J-200000D01*
G01*
G37*
%TD*%
%TO.C,R52*%
G36*
G01*
X389675000Y-252225000D02*
X389675000Y-252775000D01*
G75*
G02*
X389475000Y-252975000I-200000J0D01*
G01*
X389075000Y-252975000D01*
G75*
G02*
X388875000Y-252775000I0J200000D01*
G01*
X388875000Y-252225000D01*
G75*
G02*
X389075000Y-252025000I200000J0D01*
G01*
X389475000Y-252025000D01*
G75*
G02*
X389675000Y-252225000I0J-200000D01*
G01*
G37*
G36*
G01*
X391325000Y-252225000D02*
X391325000Y-252775000D01*
G75*
G02*
X391125000Y-252975000I-200000J0D01*
G01*
X390725000Y-252975000D01*
G75*
G02*
X390525000Y-252775000I0J200000D01*
G01*
X390525000Y-252225000D01*
G75*
G02*
X390725000Y-252025000I200000J0D01*
G01*
X391125000Y-252025000D01*
G75*
G02*
X391325000Y-252225000I0J-200000D01*
G01*
G37*
%TD*%
%TO.C,R51*%
G36*
G01*
X384075000Y-260925000D02*
X384075000Y-261475000D01*
G75*
G02*
X383875000Y-261675000I-200000J0D01*
G01*
X383475000Y-261675000D01*
G75*
G02*
X383275000Y-261475000I0J200000D01*
G01*
X383275000Y-260925000D01*
G75*
G02*
X383475000Y-260725000I200000J0D01*
G01*
X383875000Y-260725000D01*
G75*
G02*
X384075000Y-260925000I0J-200000D01*
G01*
G37*
G36*
G01*
X385725000Y-260925000D02*
X385725000Y-261475000D01*
G75*
G02*
X385525000Y-261675000I-200000J0D01*
G01*
X385125000Y-261675000D01*
G75*
G02*
X384925000Y-261475000I0J200000D01*
G01*
X384925000Y-260925000D01*
G75*
G02*
X385125000Y-260725000I200000J0D01*
G01*
X385525000Y-260725000D01*
G75*
G02*
X385725000Y-260925000I0J-200000D01*
G01*
G37*
%TD*%
%TO.C,R50*%
G36*
G01*
X410225000Y-283275000D02*
X410225000Y-282725000D01*
G75*
G02*
X410425000Y-282525000I200000J0D01*
G01*
X410825000Y-282525000D01*
G75*
G02*
X411025000Y-282725000I0J-200000D01*
G01*
X411025000Y-283275000D01*
G75*
G02*
X410825000Y-283475000I-200000J0D01*
G01*
X410425000Y-283475000D01*
G75*
G02*
X410225000Y-283275000I0J200000D01*
G01*
G37*
G36*
G01*
X408575000Y-283275000D02*
X408575000Y-282725000D01*
G75*
G02*
X408775000Y-282525000I200000J0D01*
G01*
X409175000Y-282525000D01*
G75*
G02*
X409375000Y-282725000I0J-200000D01*
G01*
X409375000Y-283275000D01*
G75*
G02*
X409175000Y-283475000I-200000J0D01*
G01*
X408775000Y-283475000D01*
G75*
G02*
X408575000Y-283275000I0J200000D01*
G01*
G37*
%TD*%
%TO.C,R49*%
G36*
G01*
X359825000Y-257275000D02*
X359825000Y-256725000D01*
G75*
G02*
X360025000Y-256525000I200000J0D01*
G01*
X360425000Y-256525000D01*
G75*
G02*
X360625000Y-256725000I0J-200000D01*
G01*
X360625000Y-257275000D01*
G75*
G02*
X360425000Y-257475000I-200000J0D01*
G01*
X360025000Y-257475000D01*
G75*
G02*
X359825000Y-257275000I0J200000D01*
G01*
G37*
G36*
G01*
X358175000Y-257275000D02*
X358175000Y-256725000D01*
G75*
G02*
X358375000Y-256525000I200000J0D01*
G01*
X358775000Y-256525000D01*
G75*
G02*
X358975000Y-256725000I0J-200000D01*
G01*
X358975000Y-257275000D01*
G75*
G02*
X358775000Y-257475000I-200000J0D01*
G01*
X358375000Y-257475000D01*
G75*
G02*
X358175000Y-257275000I0J200000D01*
G01*
G37*
%TD*%
%TO.C,R48*%
G36*
G01*
X393125000Y-256375000D02*
X393125000Y-255825000D01*
G75*
G02*
X393325000Y-255625000I200000J0D01*
G01*
X393725000Y-255625000D01*
G75*
G02*
X393925000Y-255825000I0J-200000D01*
G01*
X393925000Y-256375000D01*
G75*
G02*
X393725000Y-256575000I-200000J0D01*
G01*
X393325000Y-256575000D01*
G75*
G02*
X393125000Y-256375000I0J200000D01*
G01*
G37*
G36*
G01*
X391475000Y-256375000D02*
X391475000Y-255825000D01*
G75*
G02*
X391675000Y-255625000I200000J0D01*
G01*
X392075000Y-255625000D01*
G75*
G02*
X392275000Y-255825000I0J-200000D01*
G01*
X392275000Y-256375000D01*
G75*
G02*
X392075000Y-256575000I-200000J0D01*
G01*
X391675000Y-256575000D01*
G75*
G02*
X391475000Y-256375000I0J200000D01*
G01*
G37*
%TD*%
%TO.C,R47*%
G36*
G01*
X375825000Y-265575000D02*
X375825000Y-265025000D01*
G75*
G02*
X376025000Y-264825000I200000J0D01*
G01*
X376425000Y-264825000D01*
G75*
G02*
X376625000Y-265025000I0J-200000D01*
G01*
X376625000Y-265575000D01*
G75*
G02*
X376425000Y-265775000I-200000J0D01*
G01*
X376025000Y-265775000D01*
G75*
G02*
X375825000Y-265575000I0J200000D01*
G01*
G37*
G36*
G01*
X374175000Y-265575000D02*
X374175000Y-265025000D01*
G75*
G02*
X374375000Y-264825000I200000J0D01*
G01*
X374775000Y-264825000D01*
G75*
G02*
X374975000Y-265025000I0J-200000D01*
G01*
X374975000Y-265575000D01*
G75*
G02*
X374775000Y-265775000I-200000J0D01*
G01*
X374375000Y-265775000D01*
G75*
G02*
X374175000Y-265575000I0J200000D01*
G01*
G37*
%TD*%
%TO.C,R46*%
G36*
G01*
X363875000Y-251325000D02*
X363325000Y-251325000D01*
G75*
G02*
X363125000Y-251125000I0J200000D01*
G01*
X363125000Y-250725000D01*
G75*
G02*
X363325000Y-250525000I200000J0D01*
G01*
X363875000Y-250525000D01*
G75*
G02*
X364075000Y-250725000I0J-200000D01*
G01*
X364075000Y-251125000D01*
G75*
G02*
X363875000Y-251325000I-200000J0D01*
G01*
G37*
G36*
G01*
X363875000Y-252975000D02*
X363325000Y-252975000D01*
G75*
G02*
X363125000Y-252775000I0J200000D01*
G01*
X363125000Y-252375000D01*
G75*
G02*
X363325000Y-252175000I200000J0D01*
G01*
X363875000Y-252175000D01*
G75*
G02*
X364075000Y-252375000I0J-200000D01*
G01*
X364075000Y-252775000D01*
G75*
G02*
X363875000Y-252975000I-200000J0D01*
G01*
G37*
%TD*%
%TO.C,R45*%
G36*
G01*
X415925000Y-221275000D02*
X415925000Y-220725000D01*
G75*
G02*
X416125000Y-220525000I200000J0D01*
G01*
X416525000Y-220525000D01*
G75*
G02*
X416725000Y-220725000I0J-200000D01*
G01*
X416725000Y-221275000D01*
G75*
G02*
X416525000Y-221475000I-200000J0D01*
G01*
X416125000Y-221475000D01*
G75*
G02*
X415925000Y-221275000I0J200000D01*
G01*
G37*
G36*
G01*
X414275000Y-221275000D02*
X414275000Y-220725000D01*
G75*
G02*
X414475000Y-220525000I200000J0D01*
G01*
X414875000Y-220525000D01*
G75*
G02*
X415075000Y-220725000I0J-200000D01*
G01*
X415075000Y-221275000D01*
G75*
G02*
X414875000Y-221475000I-200000J0D01*
G01*
X414475000Y-221475000D01*
G75*
G02*
X414275000Y-221275000I0J200000D01*
G01*
G37*
%TD*%
%TO.C,R44*%
G36*
G01*
X410225000Y-230275000D02*
X410225000Y-229725000D01*
G75*
G02*
X410425000Y-229525000I200000J0D01*
G01*
X410825000Y-229525000D01*
G75*
G02*
X411025000Y-229725000I0J-200000D01*
G01*
X411025000Y-230275000D01*
G75*
G02*
X410825000Y-230475000I-200000J0D01*
G01*
X410425000Y-230475000D01*
G75*
G02*
X410225000Y-230275000I0J200000D01*
G01*
G37*
G36*
G01*
X408575000Y-230275000D02*
X408575000Y-229725000D01*
G75*
G02*
X408775000Y-229525000I200000J0D01*
G01*
X409175000Y-229525000D01*
G75*
G02*
X409375000Y-229725000I0J-200000D01*
G01*
X409375000Y-230275000D01*
G75*
G02*
X409175000Y-230475000I-200000J0D01*
G01*
X408775000Y-230475000D01*
G75*
G02*
X408575000Y-230275000I0J200000D01*
G01*
G37*
%TD*%
%TO.C,R43*%
G36*
G01*
X392925000Y-239075000D02*
X392925000Y-238525000D01*
G75*
G02*
X393125000Y-238325000I200000J0D01*
G01*
X393525000Y-238325000D01*
G75*
G02*
X393725000Y-238525000I0J-200000D01*
G01*
X393725000Y-239075000D01*
G75*
G02*
X393525000Y-239275000I-200000J0D01*
G01*
X393125000Y-239275000D01*
G75*
G02*
X392925000Y-239075000I0J200000D01*
G01*
G37*
G36*
G01*
X391275000Y-239075000D02*
X391275000Y-238525000D01*
G75*
G02*
X391475000Y-238325000I200000J0D01*
G01*
X391875000Y-238325000D01*
G75*
G02*
X392075000Y-238525000I0J-200000D01*
G01*
X392075000Y-239075000D01*
G75*
G02*
X391875000Y-239275000I-200000J0D01*
G01*
X391475000Y-239275000D01*
G75*
G02*
X391275000Y-239075000I0J200000D01*
G01*
G37*
%TD*%
%TO.C,R10*%
G36*
G01*
X416025000Y-274075000D02*
X416025000Y-273525000D01*
G75*
G02*
X416225000Y-273325000I200000J0D01*
G01*
X416625000Y-273325000D01*
G75*
G02*
X416825000Y-273525000I0J-200000D01*
G01*
X416825000Y-274075000D01*
G75*
G02*
X416625000Y-274275000I-200000J0D01*
G01*
X416225000Y-274275000D01*
G75*
G02*
X416025000Y-274075000I0J200000D01*
G01*
G37*
G36*
G01*
X414375000Y-274075000D02*
X414375000Y-273525000D01*
G75*
G02*
X414575000Y-273325000I200000J0D01*
G01*
X414975000Y-273325000D01*
G75*
G02*
X415175000Y-273525000I0J-200000D01*
G01*
X415175000Y-274075000D01*
G75*
G02*
X414975000Y-274275000I-200000J0D01*
G01*
X414575000Y-274275000D01*
G75*
G02*
X414375000Y-274075000I0J200000D01*
G01*
G37*
%TD*%
%TO.C,R9*%
G36*
G01*
X375725000Y-212375000D02*
X375725000Y-211825000D01*
G75*
G02*
X375925000Y-211625000I200000J0D01*
G01*
X376325000Y-211625000D01*
G75*
G02*
X376525000Y-211825000I0J-200000D01*
G01*
X376525000Y-212375000D01*
G75*
G02*
X376325000Y-212575000I-200000J0D01*
G01*
X375925000Y-212575000D01*
G75*
G02*
X375725000Y-212375000I0J200000D01*
G01*
G37*
G36*
G01*
X374075000Y-212375000D02*
X374075000Y-211825000D01*
G75*
G02*
X374275000Y-211625000I200000J0D01*
G01*
X374675000Y-211625000D01*
G75*
G02*
X374875000Y-211825000I0J-200000D01*
G01*
X374875000Y-212375000D01*
G75*
G02*
X374675000Y-212575000I-200000J0D01*
G01*
X374275000Y-212575000D01*
G75*
G02*
X374075000Y-212375000I0J200000D01*
G01*
G37*
%TD*%
%TO.C,R8*%
G36*
G01*
X361725000Y-227875000D02*
X361725000Y-227325000D01*
G75*
G02*
X361925000Y-227125000I200000J0D01*
G01*
X362325000Y-227125000D01*
G75*
G02*
X362525000Y-227325000I0J-200000D01*
G01*
X362525000Y-227875000D01*
G75*
G02*
X362325000Y-228075000I-200000J0D01*
G01*
X361925000Y-228075000D01*
G75*
G02*
X361725000Y-227875000I0J200000D01*
G01*
G37*
G36*
G01*
X360075000Y-227875000D02*
X360075000Y-227325000D01*
G75*
G02*
X360275000Y-227125000I200000J0D01*
G01*
X360675000Y-227125000D01*
G75*
G02*
X360875000Y-227325000I0J-200000D01*
G01*
X360875000Y-227875000D01*
G75*
G02*
X360675000Y-228075000I-200000J0D01*
G01*
X360275000Y-228075000D01*
G75*
G02*
X360075000Y-227875000I0J200000D01*
G01*
G37*
%TD*%
%TO.C,R7*%
G36*
G01*
X369925000Y-221375000D02*
X369925000Y-220825000D01*
G75*
G02*
X370125000Y-220625000I200000J0D01*
G01*
X370525000Y-220625000D01*
G75*
G02*
X370725000Y-220825000I0J-200000D01*
G01*
X370725000Y-221375000D01*
G75*
G02*
X370525000Y-221575000I-200000J0D01*
G01*
X370125000Y-221575000D01*
G75*
G02*
X369925000Y-221375000I0J200000D01*
G01*
G37*
G36*
G01*
X368275000Y-221375000D02*
X368275000Y-220825000D01*
G75*
G02*
X368475000Y-220625000I200000J0D01*
G01*
X368875000Y-220625000D01*
G75*
G02*
X369075000Y-220825000I0J-200000D01*
G01*
X369075000Y-221375000D01*
G75*
G02*
X368875000Y-221575000I-200000J0D01*
G01*
X368475000Y-221575000D01*
G75*
G02*
X368275000Y-221375000I0J200000D01*
G01*
G37*
%TD*%
%TO.C,R6*%
G36*
G01*
X387225000Y-212375000D02*
X387225000Y-211825000D01*
G75*
G02*
X387425000Y-211625000I200000J0D01*
G01*
X387825000Y-211625000D01*
G75*
G02*
X388025000Y-211825000I0J-200000D01*
G01*
X388025000Y-212375000D01*
G75*
G02*
X387825000Y-212575000I-200000J0D01*
G01*
X387425000Y-212575000D01*
G75*
G02*
X387225000Y-212375000I0J200000D01*
G01*
G37*
G36*
G01*
X385575000Y-212375000D02*
X385575000Y-211825000D01*
G75*
G02*
X385775000Y-211625000I200000J0D01*
G01*
X386175000Y-211625000D01*
G75*
G02*
X386375000Y-211825000I0J-200000D01*
G01*
X386375000Y-212375000D01*
G75*
G02*
X386175000Y-212575000I-200000J0D01*
G01*
X385775000Y-212575000D01*
G75*
G02*
X385575000Y-212375000I0J200000D01*
G01*
G37*
%TD*%
%TO.C,R5*%
G36*
G01*
X421725000Y-283175000D02*
X421725000Y-282625000D01*
G75*
G02*
X421925000Y-282425000I200000J0D01*
G01*
X422325000Y-282425000D01*
G75*
G02*
X422525000Y-282625000I0J-200000D01*
G01*
X422525000Y-283175000D01*
G75*
G02*
X422325000Y-283375000I-200000J0D01*
G01*
X421925000Y-283375000D01*
G75*
G02*
X421725000Y-283175000I0J200000D01*
G01*
G37*
G36*
G01*
X420075000Y-283175000D02*
X420075000Y-282625000D01*
G75*
G02*
X420275000Y-282425000I200000J0D01*
G01*
X420675000Y-282425000D01*
G75*
G02*
X420875000Y-282625000I0J-200000D01*
G01*
X420875000Y-283175000D01*
G75*
G02*
X420675000Y-283375000I-200000J0D01*
G01*
X420275000Y-283375000D01*
G75*
G02*
X420075000Y-283175000I0J200000D01*
G01*
G37*
%TD*%
%TO.C,R4*%
G36*
G01*
X375725000Y-230275000D02*
X375725000Y-229725000D01*
G75*
G02*
X375925000Y-229525000I200000J0D01*
G01*
X376325000Y-229525000D01*
G75*
G02*
X376525000Y-229725000I0J-200000D01*
G01*
X376525000Y-230275000D01*
G75*
G02*
X376325000Y-230475000I-200000J0D01*
G01*
X375925000Y-230475000D01*
G75*
G02*
X375725000Y-230275000I0J200000D01*
G01*
G37*
G36*
G01*
X374075000Y-230275000D02*
X374075000Y-229725000D01*
G75*
G02*
X374275000Y-229525000I200000J0D01*
G01*
X374675000Y-229525000D01*
G75*
G02*
X374875000Y-229725000I0J-200000D01*
G01*
X374875000Y-230275000D01*
G75*
G02*
X374675000Y-230475000I-200000J0D01*
G01*
X374275000Y-230475000D01*
G75*
G02*
X374075000Y-230275000I0J200000D01*
G01*
G37*
%TD*%
%TO.C,R3*%
G36*
G01*
X381425000Y-221375000D02*
X381425000Y-220825000D01*
G75*
G02*
X381625000Y-220625000I200000J0D01*
G01*
X382025000Y-220625000D01*
G75*
G02*
X382225000Y-220825000I0J-200000D01*
G01*
X382225000Y-221375000D01*
G75*
G02*
X382025000Y-221575000I-200000J0D01*
G01*
X381625000Y-221575000D01*
G75*
G02*
X381425000Y-221375000I0J200000D01*
G01*
G37*
G36*
G01*
X379775000Y-221375000D02*
X379775000Y-220825000D01*
G75*
G02*
X379975000Y-220625000I200000J0D01*
G01*
X380375000Y-220625000D01*
G75*
G02*
X380575000Y-220825000I0J-200000D01*
G01*
X380575000Y-221375000D01*
G75*
G02*
X380375000Y-221575000I-200000J0D01*
G01*
X379975000Y-221575000D01*
G75*
G02*
X379775000Y-221375000I0J200000D01*
G01*
G37*
%TD*%
%TO.C,R2*%
G36*
G01*
X398725000Y-212375000D02*
X398725000Y-211825000D01*
G75*
G02*
X398925000Y-211625000I200000J0D01*
G01*
X399325000Y-211625000D01*
G75*
G02*
X399525000Y-211825000I0J-200000D01*
G01*
X399525000Y-212375000D01*
G75*
G02*
X399325000Y-212575000I-200000J0D01*
G01*
X398925000Y-212575000D01*
G75*
G02*
X398725000Y-212375000I0J200000D01*
G01*
G37*
G36*
G01*
X397075000Y-212375000D02*
X397075000Y-211825000D01*
G75*
G02*
X397275000Y-211625000I200000J0D01*
G01*
X397675000Y-211625000D01*
G75*
G02*
X397875000Y-211825000I0J-200000D01*
G01*
X397875000Y-212375000D01*
G75*
G02*
X397675000Y-212575000I-200000J0D01*
G01*
X397275000Y-212575000D01*
G75*
G02*
X397075000Y-212375000I0J200000D01*
G01*
G37*
%TD*%
%TO.C,R1*%
G36*
G01*
X370425000Y-274675000D02*
X370425000Y-274125000D01*
G75*
G02*
X370625000Y-273925000I200000J0D01*
G01*
X371025000Y-273925000D01*
G75*
G02*
X371225000Y-274125000I0J-200000D01*
G01*
X371225000Y-274675000D01*
G75*
G02*
X371025000Y-274875000I-200000J0D01*
G01*
X370625000Y-274875000D01*
G75*
G02*
X370425000Y-274675000I0J200000D01*
G01*
G37*
G36*
G01*
X368775000Y-274675000D02*
X368775000Y-274125000D01*
G75*
G02*
X368975000Y-273925000I200000J0D01*
G01*
X369375000Y-273925000D01*
G75*
G02*
X369575000Y-274125000I0J-200000D01*
G01*
X369575000Y-274675000D01*
G75*
G02*
X369375000Y-274875000I-200000J0D01*
G01*
X368975000Y-274875000D01*
G75*
G02*
X368775000Y-274675000I0J200000D01*
G01*
G37*
%TD*%
%TO.C,R42*%
G36*
G01*
X387225000Y-247675000D02*
X387225000Y-247125000D01*
G75*
G02*
X387425000Y-246925000I200000J0D01*
G01*
X387825000Y-246925000D01*
G75*
G02*
X388025000Y-247125000I0J-200000D01*
G01*
X388025000Y-247675000D01*
G75*
G02*
X387825000Y-247875000I-200000J0D01*
G01*
X387425000Y-247875000D01*
G75*
G02*
X387225000Y-247675000I0J200000D01*
G01*
G37*
G36*
G01*
X385575000Y-247675000D02*
X385575000Y-247125000D01*
G75*
G02*
X385775000Y-246925000I200000J0D01*
G01*
X386175000Y-246925000D01*
G75*
G02*
X386375000Y-247125000I0J-200000D01*
G01*
X386375000Y-247675000D01*
G75*
G02*
X386175000Y-247875000I-200000J0D01*
G01*
X385775000Y-247875000D01*
G75*
G02*
X385575000Y-247675000I0J200000D01*
G01*
G37*
%TD*%
%TO.C,R41*%
G36*
G01*
X381625000Y-256375000D02*
X381625000Y-255825000D01*
G75*
G02*
X381825000Y-255625000I200000J0D01*
G01*
X382225000Y-255625000D01*
G75*
G02*
X382425000Y-255825000I0J-200000D01*
G01*
X382425000Y-256375000D01*
G75*
G02*
X382225000Y-256575000I-200000J0D01*
G01*
X381825000Y-256575000D01*
G75*
G02*
X381625000Y-256375000I0J200000D01*
G01*
G37*
G36*
G01*
X379975000Y-256375000D02*
X379975000Y-255825000D01*
G75*
G02*
X380175000Y-255625000I200000J0D01*
G01*
X380575000Y-255625000D01*
G75*
G02*
X380775000Y-255825000I0J-200000D01*
G01*
X380775000Y-256375000D01*
G75*
G02*
X380575000Y-256575000I-200000J0D01*
G01*
X380175000Y-256575000D01*
G75*
G02*
X379975000Y-256375000I0J200000D01*
G01*
G37*
%TD*%
D13*
%TO.C,J1*%
X368700000Y-266200000D03*
G36*
G01*
X367150000Y-261800000D02*
X370250000Y-261800000D01*
G75*
G02*
X370500000Y-262050000I0J-250000D01*
G01*
X370500000Y-263350000D01*
G75*
G02*
X370250000Y-263600000I-250000J0D01*
G01*
X367150000Y-263600000D01*
G75*
G02*
X366900000Y-263350000I0J250000D01*
G01*
X366900000Y-262050000D01*
G75*
G02*
X367150000Y-261800000I250000J0D01*
G01*
G37*
%TD*%
D14*
%TO.C,H12*%
X394866666Y-297000000D03*
%TD*%
%TO.C,H11*%
X405133332Y-297000000D03*
%TD*%
%TO.C,H10*%
X384600000Y-203000000D03*
%TD*%
%TO.C,H9*%
X415400000Y-297000000D03*
%TD*%
%TO.C,H8*%
X447000000Y-234600000D03*
%TD*%
%TO.C,H7*%
X447000000Y-265400000D03*
%TD*%
%TO.C,H6*%
X353000000Y-258736250D03*
%TD*%
%TO.C,H5*%
X353000000Y-241263750D03*
%TD*%
%TO.C,H4*%
X384600000Y-297000000D03*
%TD*%
%TO.C,H3*%
X353000000Y-265400000D03*
%TD*%
%TO.C,H2*%
X415400000Y-203000000D03*
%TD*%
%TO.C,H1*%
X353000000Y-234600000D03*
%TD*%
M02*
