M48
; DRILL file {KiCad 5.1.10} date Sun Jul  4 18:04:30 2021
; FORMAT={-:-/ absolute / inch / decimal}
; #@! TF.CreationDate,2021-07-04T18:04:30+02:00
; #@! TF.GenerationSoftware,Kicad,Pcbnew,5.1.10
; #@! TF.FileFunction,Plated,1,2,PTH
FMAT,2
INCH
T1C0.0157
T2C0.0315
T3C0.0394
T4C0.0472
%
G90
G05
T1
X14.2244Y-9.3661
X14.2362Y-10.1181
X14.311Y-8.9606
X14.315Y-9.8248
X14.3622Y-10.5157
X14.6339Y-8.7047
X14.6339Y-9.4016
X14.6417Y-10.0827
X14.6535Y-10.8031
X14.8622Y-8.3504
X14.8622Y-9.0551
X14.8622Y-9.7402
X14.8661Y-10.4449
X14.8858Y-11.1457
X15.079Y-9.4092
X15.0866Y-8.7047
X15.0945Y-10.0827
X15.0945Y-10.7835
X15.315Y-8.3504
X15.315Y-9.0551
X15.315Y-9.7402
X15.3189Y-11.1417
X15.3228Y-10.437
X15.5394Y-8.7047
X15.5394Y-9.4016
X15.5433Y-7.9843
X15.5433Y-10.7835
X15.5472Y-10.0827
X15.5472Y-11.4803
X15.7677Y-8.3504
X15.7677Y-9.0551
X15.7717Y-10.437
X15.7756Y-11.1417
X15.9921Y-9.4016
X15.9961Y-7.9843
X15.9961Y-8.7047
X15.9961Y-10.7835
X16.0Y-10.0827
X16.0Y-11.4803
X16.2205Y-8.3504
X16.2205Y-9.0551
X16.2205Y-9.7402
X16.2205Y-11.1417
X16.2244Y-10.437
X16.4449Y-8.7008
X16.4449Y-9.4016
X16.4488Y-10.7795
X16.4528Y-10.0866
X16.6732Y-8.3504
X16.6732Y-9.0551
X16.6732Y-9.7402
X16.6732Y-11.1378
X16.6772Y-10.437
X16.8937Y-10.7795
X16.8976Y-8.7008
X16.8976Y-9.4016
X16.9055Y-10.0866
X17.126Y-9.0551
X17.126Y-9.7402
X17.1299Y-10.437
X17.3504Y-9.4016
X17.3543Y-10.0866
T2
X15.3401Y-9.6146
X16.156Y-10.0704
T3
X14.1063Y-9.4685
X14.1142Y-10.2205
X14.189Y-9.0551
X14.2402Y-10.6142
X14.3031Y-9.4685
X14.311Y-10.2205
X14.3858Y-9.0551
X14.4173Y-9.748
X14.4173Y-9.9449
X14.437Y-10.6142
X14.5157Y-8.7992
X14.5157Y-9.4961
X14.5217Y-10.1909
X14.5354Y-10.9016
X14.7126Y-8.7992
X14.7126Y-9.4961
X14.7185Y-10.1909
X14.7323Y-10.9016
X14.7421Y-8.4508
X14.7421Y-9.1476
X14.7421Y-9.8425
X14.748Y-10.5394
X14.7677Y-11.2441
X14.939Y-8.4508
X14.939Y-9.1476
X14.939Y-9.8425
X14.9449Y-10.5394
X14.9646Y-11.2441
X14.9685Y-8.7992
X14.9685Y-9.4961
X14.9724Y-10.187
X14.9724Y-10.8819
X15.1654Y-8.7992
X15.1654Y-9.4961
X15.1693Y-10.187
X15.1693Y-10.8819
X15.1949Y-8.4508
X15.1949Y-9.1476
X15.1949Y-9.8425
X15.2008Y-10.5394
X15.2008Y-11.2323
X15.3917Y-8.4508
X15.3917Y-9.1476
X15.3917Y-9.8425
X15.3976Y-10.5394
X15.3976Y-11.2323
X15.4213Y-8.7992
X15.4213Y-9.4961
X15.4232Y-8.0906
X15.4252Y-10.187
X15.4252Y-10.8819
X15.4252Y-11.5787
X15.6181Y-8.7992
X15.6181Y-9.4961
X15.6201Y-8.0906
X15.622Y-10.187
X15.622Y-10.8819
X15.622Y-11.5787
X15.6476Y-8.4508
X15.6476Y-9.1476
X15.6496Y-11.2303
X15.6516Y-10.5354
X15.8445Y-8.4508
X15.8445Y-9.1476
X15.8465Y-11.2303
X15.8484Y-10.5354
X15.874Y-8.7992
X15.874Y-9.4961
X15.876Y-8.0906
X15.878Y-10.187
X15.878Y-10.8819
X15.878Y-11.5787
X16.0709Y-8.7992
X16.0709Y-9.4961
X16.0728Y-8.0906
X16.0748Y-10.187
X16.0748Y-10.8819
X16.0748Y-11.5787
X16.1004Y-8.4508
X16.1004Y-9.1476
X16.1004Y-9.8425
X16.1024Y-11.2303
X16.1043Y-10.5354
X16.2972Y-8.4508
X16.2972Y-9.1476
X16.2972Y-9.8425
X16.2992Y-11.2303
X16.3012Y-10.5354
X16.3268Y-8.7992
X16.3268Y-9.4961
X16.3307Y-10.187
X16.3307Y-10.8819
X16.5236Y-8.7992
X16.5236Y-9.4961
X16.5276Y-10.187
X16.5276Y-10.8819
X16.5531Y-8.4508
X16.5531Y-9.1476
X16.5531Y-9.8425
X16.5551Y-11.2303
X16.5571Y-10.5354
X16.75Y-8.4508
X16.75Y-9.1476
X16.75Y-9.8425
X16.752Y-11.2303
X16.7539Y-10.5354
X16.7756Y-10.876
X16.7795Y-8.7992
X16.7795Y-9.4961
X16.7835Y-10.187
X16.9724Y-10.876
X16.9764Y-8.7992
X16.9764Y-9.4961
X16.9803Y-10.187
X17.0059Y-9.1476
X17.0059Y-9.8425
X17.0098Y-10.5354
X17.2028Y-9.1476
X17.2028Y-9.8425
X17.2067Y-10.5354
X17.2323Y-9.4961
X17.2362Y-10.187
X17.4291Y-9.4961
X17.4331Y-10.187
T4
X14.1476Y-9.7717
X14.1476Y-9.9094
X14.5157Y-10.3425
X14.5157Y-10.4803
T0
M30
